<svg xmlns="http://www.w3.org/2000/svg" width="148.5" height="43.6" viewBox="-74 191.6 148.5 43.6" enable-background="new -74 191.6 148.5 43.6" preserveAspectRatio="none"><style type="text/css">.st0{fill:#FFFFFF;} .st1{fill:#BDC3C6;} .st2{fill:#16B0C5;} .st3{fill:#EBF1F7;} .st4{fill:#EFC75E;} .st5{fill:#DE554B;} .st6{fill:#F5F8FB;} .st7{fill:#0AC5AB;} .st8{fill:#BCC2C5;} .st9{fill:#D7DCDE;}</style><path d="M34.5 192.4h7c1.1 0 2 .9 2 2v38c0 1.1-.9 2-2 2h-7c-1.1 0-2-.9-2-2v-38c0-1.1.9-2 2-2z" class="st0"/><path d="M41.5 234.9h-7c-1.4 0-2.5-1.1-2.5-2.5v-38c0-1.4 1.1-2.5 2.5-2.5h7c1.4 0 2.5 1.1 2.5 2.5v38c0 1.4-1.1 2.5-2.5 2.5zm-7-42c-.8 0-1.5.7-1.5 1.5v38c0 .8.7 1.5 1.5 1.5h7c.8 0 1.5-.7 1.5-1.5v-38c0-.8-.7-1.5-1.5-1.5h-7z" class="st1"/><path d="M33 203.9h10.6v3H33z" class="st2"/><path d="M32 203.9v-1h11v1H32zM32 207.9v-1h11v1H32z" class="st1"/><circle cx="38" cy="227.9" r="2.5" class="st0"/><path d="M38 230.9c-1.7 0-3-1.3-3-3s1.3-3 3-3 3 1.3 3 3-1.3 3-3 3zm0-5c-1.1 0-2 .9-2 2s.9 2 2 2 2-.9 2-2-.9-2-2-2z" class="st1"/><path d="M44.5 192.4h7c1.1 0 2 .9 2 2v38c0 1.1-.9 2-2 2h-7c-1.1 0-2-.9-2-2v-38c0-1.1.9-2 2-2z" class="st3"/><path d="M51.5 234.9h-7c-1.4 0-2.5-1.1-2.5-2.5v-38c0-1.4 1.1-2.5 2.5-2.5h7c1.4 0 2.5 1.1 2.5 2.5v38c0 1.4-1.1 2.5-2.5 2.5zm-7-42c-.8 0-1.5.7-1.5 1.5v38c0 .8.7 1.5 1.5 1.5h7c.8 0 1.5-.7 1.5-1.5v-38c0-.8-.7-1.5-1.5-1.5h-7z" class="st1"/><path d="M43 203.9h10.1v3.1H43z" class="st0"/><path d="M42 203.9v-1h11v1H42zM42 207.9v-1h11v1H42z" class="st1"/><circle cx="48" cy="227.9" r="2.5" class="st0"/><path d="M48 230.9c-1.7 0-3-1.3-3-3s1.3-3 3-3 3 1.3 3 3-1.3 3-3 3zm0-5c-1.1 0-2 .9-2 2s.9 2 2 2 2-.9 2-2-.9-2-2-2z" class="st1"/><path d="M55.6 193.9l6.8-1.7c1.1-.3 2.2.4 2.4 1.5l9.1 36.9c.3 1.1-.4 2.2-1.5 2.4l-6.8 1.7c-1.1.3-2.2-.4-2.4-1.5l-9.1-36.9c-.3-1.1.4-2.2 1.5-2.4z" class="st0"/><path d="M65.2 235.2c-1.2 0-2.1-.8-2.4-1.9l-9.1-36.9c-.3-1.3.5-2.7 1.8-3l6.8-1.7c1.3-.3 2.7.5 3 1.8l9.1 36.9c.3 1.3-.5 2.7-1.8 3l-6.8 1.7c-.2.1-.4.1-.6.1zm-2.4-42.6c-.1 0-.2 0-.4 0l-6.8 1.7c-.8.2-1.3 1-1.1 1.8l9.1 36.9c.2.8 1 1.3 1.8 1.1l6.8-1.7c.8-.2 1.3-1 1.1-1.8l-9.1-36.9c-.1-.6-.7-1.1-1.4-1.1z" class="st1"/><path d="M56.8 205.3l10-2.5.6 3.1-10 2.5-.6-3.1z" class="st4"/><path d="M56 205.5l-.2-1 10.7-2.6.2 1-10.7 2.6zM57 209.4l-.2-1 10.7-2.6.2 1-10.7 2.6z" class="st1"/><circle cx="67.5" cy="227.5" r="2.5" class="st0"/><path d="M67.5 230.5c-1.7 0-3-1.4-3-3 0-1.7 1.4-3 3-3 1.7 0 3 1.4 3 3 0 1.7-1.4 3-3 3zm0-5c-1.1 0-2 .9-2 2s.9 2 2 2 2-.9 2-2-.9-2-2-2zM17.5 233.4c-2.8 0-5-2.2-5-5s2.2-5 5-5 5 2.2 5 5-2.2 5-5 5zm0-6c-.6 0-1 .4-1 1s.4 1 1 1 1-.4 1-1-.4-1-1-1z" class="st1"/><path d="M8.5 222.4h7c1.1 0 2 .9 2 2v8c0 1.1-.9 2-2 2h-7c-1.1 0-2-.9-2-2v-8c0-1.1.9-2 2-2z" class="st0"/><path d="M15.5 234.9h-7c-1.4 0-2.5-1.1-2.5-2.5v-8c0-1.4 1.1-2.5 2.5-2.5h7c1.4 0 2.5 1.1 2.5 2.5v8c0 1.4-1.1 2.5-2.5 2.5zm-7-12c-.8 0-1.5.7-1.5 1.5v8c0 .8.7 1.5 1.5 1.5h7c.8 0 1.5-.7 1.5-1.5v-8c0-.8-.7-1.5-1.5-1.5h-7z" class="st1"/><path d="M-68.5 195.4h58c1.1 0 2 .9 2 2v34h-62v-34c0-1.1.9-2 2-2z" class="st0"/><path d="M-8 231.9h-63v-34.5c0-1.4 1.1-2.5 2.5-2.5h58c1.4 0 2.5 1.1 2.5 2.5v34.5zm-62-1h61v-33.5c0-.8-.7-1.5-1.5-1.5h-58c-.8 0-1.5.7-1.5 1.5v33.5z" class="st1"/><path d="M-66.5 197.4h54c1.1 0 2 .9 2 2v30h-58v-30c0-1.1.9-2 2-2z" class="st0"/><path d="M-10 229.9h-59v-30.5c0-1.4 1.1-2.5 2.5-2.5h54c1.4 0 2.5 1.1 2.5 2.5v30.5zm-58-1h57v-29.5c0-.8-.7-1.5-1.5-1.5h-54c-.8 0-1.5.7-1.5 1.5v29.5z" class="st1"/><circle cx="-39" cy="196.9" r=".5" class="st5"/><path d="M-73.5 230.4h68v.7c0 1.8-1.5 3.3-3.3 3.3h-61.4c-1.8 0-3.3-1.5-3.3-3.3v-.7z" class="st0"/><path d="M-8.8 234.9h-61.4c-2.1 0-3.8-1.7-3.8-3.8v-1.2h69v1.2c0 2.1-1.7 3.8-3.8 3.8zm-64.2-4v.2c0 1.6 1.3 2.8 2.8 2.8h61.4c1.6 0 2.8-1.3 2.8-2.8v-.2h-67z" class="st1"/><path d="M-63.5 200.4h25c1.1 0 2 .9 2 2v22c0 1.1-.9 2-2 2h-25c-1.1 0-2-.9-2-2v-22c0-1.1.9-2 2-2z" class="st6"/><path d="M-38.5 226.9h-25c-1.4 0-2.5-1.1-2.5-2.5v-22c0-1.4 1.1-2.5 2.5-2.5h25c1.4 0 2.5 1.1 2.5 2.5v22c0 1.4-1.1 2.5-2.5 2.5zm-25-26c-.8 0-1.5.7-1.5 1.5v22c0 .8.7 1.5 1.5 1.5h25c.8 0 1.5-.7 1.5-1.5v-22c0-.8-.7-1.5-1.5-1.5h-25z" class="st1"/><path d="M-43.5 224.8c0-.1 0-.3-.1-.4-.3-1.6-.8-4.2-2.7-5.6.1-.9.2-2.3.2-4.4 0-3.3-2.2-6-4.9-6-1.9 0-3 1.3-3 1.3-1.1 1.1-1.9 2.8-1.9 4.7 0 2.1.1 3.5.2 4.4-1.9 1.4-2.4 4-2.7 5.6 0 .1-.1.3-.1.4-.1.7.4 1.5 1.1 1.6.1 0 .2 0 .2 0H-45c.1 0 .2 0 .2 0 .9-.1 1.4-.8 1.3-1.6zm-7.5-3.1l-2.6-1.3 1.3-2.1c.4.2.8.3 1.3.3.4 0 .9-.1 1.2-.3l1.3 2.1-2.5 1.3zm0-4c-2.5 0-3.5-3.3-3.3-4.3 2.7-2.3 5.1-2.2 5.1-2.2s.4 1.3 1.5 2.9c-.2 1.6-1.8 3.6-3.3 3.6z" class="st0"/><path d="M-57.1 226.9c-.1 0-.2 0-.3 0-.5-.1-.9-.4-1.2-.8-.3-.4-.4-.9-.3-1.4l.1-.4c.3-1.6.8-4.2 2.6-5.7-.1-1-.2-2.3-.2-4.2 0-2 .7-3.9 2-5.1 0 0 1.3-1.4 3.4-1.4 3 0 5.4 2.9 5.4 6.5 0 1.9-.1 3.2-.2 4.2 1.9 1.5 2.3 4.1 2.6 5.7l.1.4c.1.5 0 1-.3 1.4-.3.4-.7.7-1.2.8-.1 0-.2 0-.3 0h-12.2zm6.1-18c-1.6 0-2.7 1.1-2.7 1.1-1.1 1.1-1.8 2.7-1.8 4.4 0 2 .1 3.4.2 4.3v.3l-.2.2c-1.7 1.3-2.2 3.7-2.5 5.3l-.1.4c0 .2 0 .5.1.6.1.2.3.3.6.4.1 0 .1 0 .2 0H-45s.1 0 .1 0c.3 0 .5-.2.6-.4.1-.2.2-.4.1-.6l-.1-.4c-.3-1.5-.7-4-2.5-5.2l-.2-.2v-.3c.1-.9.2-2.3.2-4.3.2-3.1-1.8-5.6-4.2-5.6zm0 13.4l-3.3-1.7 1.8-2.8c-.4-.2-.8-.5-1.1-1-.9-1.1-1.3-2.7-1.2-3.5v-.2l.1-.1c2.5-2.1 4.7-2.3 5.4-2.3h.5l.1.3s.4 1.3 1.5 2.8l.1.2v.2c-.2 1.3-1.2 2.8-2.4 3.5l1.8 2.8-3.3 1.8zm-1.9-2.1l1.9.9 1.9-.9-.8-1.3c-.7.2-1.4.2-2.1 0l-.9 1.3zm-1-6.5c0 .5.3 1.7 1 2.6.5.7 1.2 1 1.9 1 1.2 0 2.6-1.6 2.8-2.9-.7-1.1-1.2-2-1.4-2.5-.6-.1-2.3.2-4.3 1.8z" class="st1"/><path d="M-32.5 200.4h17c1.1 0 2 .9 2 2v15c0 1.1-.9 2-2 2h-17c-1.1 0-2-.9-2-2v-15c0-1.1.9-2 2-2z" class="st0"/><path d="M-15.5 219.9h-17c-1.4 0-2.5-1.1-2.5-2.5v-15c0-1.4 1.1-2.5 2.5-2.5h17c1.4 0 2.5 1.1 2.5 2.5v15c0 1.4-1.1 2.5-2.5 2.5zm-17-19c-.8 0-1.5.7-1.5 1.5v15c0 .8.7 1.5 1.5 1.5h17c.8 0 1.5-.7 1.5-1.5v-15c0-.8-.7-1.5-1.5-1.5h-17z" class="st1"/><path d="M-33.4 222.4h18.8c.6 0 1.1.5 1.1 1.1v1.8c0 .6-.5 1.1-1.1 1.1h-18.8c-.6 0-1.1-.5-1.1-1.1v-1.8c0-.6.5-1.1 1.1-1.1z" class="st0"/><path d="M-14.6 226.9h-18.8c-.9 0-1.6-.7-1.6-1.6v-1.8c0-.9.7-1.6 1.6-1.6h18.8c.9 0 1.6.7 1.6 1.6v1.8c0 .9-.7 1.6-1.6 1.6zm-18.8-4c-.3 0-.6.3-.6.6v1.8c0 .3.3.6.6.6h18.8c.3 0 .6-.3.6-.6v-1.8c0-.3-.3-.6-.6-.6h-18.8z" class="st1"/><path d="M-18.4 223.3h3c.6 0 1 .4 1 1s-.4 1-1 1h-3c-.6 0-1-.4-1-1s.5-1 1-1z" class="st7"/><path d="M-31.3 205.4h2.6c.1 0 .2.1.2.2v.6c0 .1-.1.2-.2.2h-2.6c-.1 0-.2-.1-.2-.2v-.6c0-.1.1-.2.2-.2z" class="st8"/><path d="M-26.3 205.4h6.6c.1 0 .2.1.2.2v.6c0 .1-.1.2-.2.2h-6.6c-.1 0-.2-.1-.2-.2v-.6c0-.1.1-.2.2-.2z" class="st9"/><path d="M-31.3 208.4h2.6c.1 0 .2.1.2.2v.6c0 .1-.1.2-.2.2h-2.6c-.1 0-.2-.1-.2-.2v-.6c0-.1.1-.2.2-.2zM-26.3 208.4h8.6c.1 0 .2.1.2.2v.6c0 .1-.1.2-.2.2h-8.6c-.1 0-.2-.1-.2-.2v-.6c0-.1.1-.2.2-.2z" class="st7"/><path d="M-31.3 211.4h2.6c.1 0 .2.1.2.2v.6c0 .1-.1.2-.2.2h-2.6c-.1 0-.2-.1-.2-.2v-.6c0-.1.1-.2.2-.2z" class="st8"/><path d="M-26.3 211.4h6.6c.1 0 .2.1.2.2v.6c0 .1-.1.2-.2.2h-6.6c-.1 0-.2-.1-.2-.2v-.6c0-.1.1-.2.2-.2z" class="st9"/></svg>