<svg xmlns="http://www.w3.org/2000/svg" width="119.5" height="77" viewBox="-88 174.2 119.5 77" enable-background="new -88 174.2 119.5 77" preserveAspectRatio="none"><style type="text/css">.st0{fill:#FFFFFF;} .st1{fill:#BDC3C6;} .st2{fill:#BCC2C5;} .st3{fill:#F5F8FB;} .st4{fill:#565656;} .st5{fill:#EFC75E;} .st6{fill:#16B0C5;}</style><circle cx="-75" cy="197.7" r="12" class="st0"/><path d="M-75 210.7c-7.2 0-13-5.8-13-13s5.8-13 13-13 13 5.8 13 13-5.8 13-13 13zm0-24c-6.1 0-11 4.9-11 11s4.9 11 11 11 11-4.9 11-11-4.9-11-11-11z" class="st1"/><circle cx="-75" cy="197.7" r="8" class="st0"/><path d="M-75 206.2c-4.7 0-8.5-3.8-8.5-8.5s3.8-8.5 8.5-8.5 8.5 3.8 8.5 8.5-3.8 8.5-8.5 8.5zm0-16c-4.1 0-7.5 3.4-7.5 7.5s3.4 7.5 7.5 7.5 7.5-3.4 7.5-7.5-3.4-7.5-7.5-7.5z" class="st1"/><path d="M-74.8 193.7h.6c.1 0 .2.1.2.2v4.6c0 .1-.1.2-.2.2h-.6c-.1 0-.2-.1-.2-.2v-4.6c0-.1.1-.2.2-.2zM-79.8 197.7h4.6c.1 0 .2.1.2.2v.6c0 .1-.1.2-.2.2h-4.6c-.1 0-.2-.1-.2-.2v-.6c0-.1.1-.2.2-.2z" class="st2"/><path d="M-29 236.7h10v13h-10z" class="st0"/><path d="M-18.5 250.2h-11v-14h11v14zm-10-1h9v-12h-9v12z" class="st1"/><path d="M-68.5 229.7h88v4c0 2.2-1.8 4-4 4h-80c-2.2 0-4-1.8-4-4v-4z" class="st0"/><path d="M15.5 238.2h-80c-2.5 0-4.5-2-4.5-4.5v-4.5h89v4.5c0 2.5-2 4.5-4.5 4.5zm-83.5-8v3.5c0 1.9 1.6 3.5 3.5 3.5h80c1.9 0 3.5-1.6 3.5-3.5v-3.5h-87z" class="st1"/><path d="M-64.5 174.7h80c2.2 0 4 1.8 4 4v52h-88v-52c0-2.2 1.8-4 4-4z" class="st0"/><path d="M20 231.2h-89v-52.5c0-2.5 2-4.5 4.5-4.5h80c2.5 0 4.5 2 4.5 4.5v52.5zm-88-1h87v-51.5c0-1.9-1.6-3.5-3.5-3.5h-80c-1.9 0-3.5 1.6-3.5 3.5v51.5z" class="st1"/><path d="M-65 177.7h82v50h-82z" class="st0"/><path d="M17.5 228.2h-83v-51h83v51zm-82-1h81v-49h-81v49z" class="st1"/><path d="M-33.5 183.7h45v34c0 1.1-.9 2-2 2h-41.1c-1.1 0-2-.9-2-2v-34z" class="st3"/><path d="M9.5 220.2h-41.1c-1.4 0-2.5-1.1-2.5-2.5v-34.5h46v34.5c.1 1.4-1 2.5-2.4 2.5zm-42.5-36v33.5c0 .8.7 1.5 1.5 1.5h41c.8 0 1.5-.7 1.5-1.5v-33.5h-44z" class="st1"/><path d="M-32 181.2h42c1.1 0 2 .9 2 2v1h-46v-1c0-1.1.9-2 2-2z" class="st4"/><circle cx="-31.4" cy="182.8" r=".5" class="st0"/><circle cx="-29.4" cy="182.8" r=".5" class="st0"/><circle cx="-27.4" cy="182.8" r=".5" class="st0"/><path d="M-25 188.7h1c1.1 0 2 .9 2 2v1c0 1.1-.9 2-2 2h-1c-1.1 0-2-.9-2-2v-1c0-1.1.9-2 2-2zM-19.8 188.7h8.6c.1 0 .2.1.2.2v.6c0 .1-.1.2-.2.2h-8.6c-.1 0-.2-.1-.2-.2v-.6c0-.1.1-.2.2-.2z" class="st5"/><path d="M-19.8 190.7h13.6c.1 0 .2.1.2.2v.6c0 .1-.1.2-.2.2h-13.6c-.1 0-.2-.1-.2-.2v-.6c0-.1.1-.2.2-.2zM-19.8 192.7h13.6c.1 0 .2.1.2.2v.6c0 .1-.1.2-.2.2h-13.6c-.1 0-.2-.1-.2-.2v-.6c0-.1.1-.2.2-.2z" class="st1"/><path d="M-25 195.7h1c1.1 0 2 .9 2 2v1c0 1.1-.9 2-2 2h-1c-1.1 0-2-.9-2-2v-1c0-1.1.9-2 2-2zM-19.8 195.7h8.6c.1 0 .2.1.2.2v.6c0 .1-.1.2-.2.2h-8.6c-.1 0-.2-.1-.2-.2v-.6c0-.1.1-.2.2-.2z" class="st5"/><path d="M-19.8 197.7h13.6c.1 0 .2.1.2.2v.6c0 .1-.1.2-.2.2h-13.6c-.1 0-.2-.1-.2-.2v-.6c0-.1.1-.2.2-.2zM-19.8 199.7h13.6c.1 0 .2.1.2.2v.6c0 .1-.1.2-.2.2h-13.6c-.1 0-.2-.1-.2-.2v-.6c0-.1.1-.2.2-.2z" class="st1"/><path d="M-25 202.7h1c1.1 0 2 .9 2 2v1c0 1.1-.9 2-2 2h-1c-1.1 0-2-.9-2-2v-1c0-1.1.9-2 2-2zM-19.8 202.7h8.6c.1 0 .2.1.2.2v.6c0 .1-.1.2-.2.2h-8.6c-.1 0-.2-.1-.2-.2v-.6c0-.1.1-.2.2-.2z" class="st5"/><path d="M-19.8 204.7h13.6c.1 0 .2.1.2.2v.6c0 .1-.1.2-.2.2h-13.6c-.1 0-.2-.1-.2-.2v-.6c0-.1.1-.2.2-.2zM-19.8 206.7h13.6c.1 0 .2.1.2.2v.6c0 .1-.1.2-.2.2h-13.6c-.1 0-.2-.1-.2-.2v-.6c0-.1.1-.2.2-.2z" class="st1"/><path d="M-25 209.7h1c1.1 0 2 .9 2 2v1c0 1.1-.9 2-2 2h-1c-1.1 0-2-.9-2-2v-1c0-1.1.9-2 2-2zM-19.8 209.7h8.6c.1 0 .2.1.2.2v.6c0 .1-.1.2-.2.2h-8.6c-.1 0-.2-.1-.2-.2v-.6c0-.1.1-.2.2-.2z" class="st5"/><path d="M-19.8 211.7h13.6c.1 0 .2.1.2.2v.6c0 .1-.1.2-.2.2h-13.6c-.1 0-.2-.1-.2-.2v-.6c0-.1.1-.2.2-.2zM-19.8 213.7h13.6c.1 0 .2.1.2.2v.6c0 .1-.1.2-.2.2h-13.6c-.1 0-.2-.1-.2-.2v-.6c0-.1.1-.2.2-.2z" class="st1"/><path d="M-60.5 189.7h44v26c0 1.1-.9 2-2 2h-40.1c-1.1 0-2-.9-2-2v-26z" class="st0"/><path d="M-18.5 218.2h-40.1c-1.4 0-2.5-1.1-2.5-2.5v-26.5h45v26.5c.1 1.4-1 2.5-2.4 2.5zm-41.5-28v25.5c0 .8.7 1.5 1.5 1.5h40.1c.8 0 1.5-.7 1.5-1.5v-25.5H-60z" class="st1"/><path d="M-59 187.2h41c1.1 0 2 .9 2 2v1h-45v-1c0-1.1.9-2 2-2z" class="st4"/><circle cx="-18.2" cy="188.7" r=".5" class="st0"/><circle cx="-20.2" cy="188.7" r=".5" class="st0"/><circle cx="-22.2" cy="188.7" r=".5" class="st0"/><path d="M-46.1 201.1h8.2v4.8h-8.2z" class="st5"/><path d="M-29.4 206h8v5h-8z" class="st6"/><path d="M-21 196.2v-1h-34v1h34zM-21 201.2v-1h-34v1h34zM-21 206.2v-1h-34v1h34zM-21 211.2v-1h-34v1h34z" class="st1"/><path d="M-29 195.3h-1v15h1v-15zM-21 195.3h-1v15h1v-15zM-37 195.3h-1v15h1v-15zM-46 195.3h-1v15h1v-15zM-54 195.3h-1v15h1v-15z" class="st2"/><path d="M-44 219.7h5c1.1 0 2 .9 2 2v26c0 1.1-.9 2-2 2h-5c-1.1 0-2-.9-2-2v-26c0-1.1.9-2 2-2z" class="st0"/><path d="M-39 250.2h-5c-1.4 0-2.5-1.1-2.5-2.5v-26c0-1.4 1.1-2.5 2.5-2.5h5c1.4 0 2.5 1.1 2.5 2.5v26c0 1.4-1.1 2.5-2.5 2.5zm-5-30c-.8 0-1.5.7-1.5 1.5v26c0 .8.7 1.5 1.5 1.5h5c.8 0 1.5-.7 1.5-1.5v-26c0-.8-.7-1.5-1.5-1.5h-5z" class="st1"/><path d="M-44.5 227.2h7v2h-7z" class="st6"/><path d="M-37.4 227.2v-1H-46v1h8.6zM-37.4 230.2v-1H-46v1h8.6z" class="st1"/><circle cx="-41.5" cy="244.2" r="2.5" class="st0"/><path d="M-41.5 247.2c-1.7 0-3-1.3-3-3s1.3-3 3-3 3 1.3 3 3-1.3 3-3 3zm0-5c-1.1 0-2 .9-2 2s.9 2 2 2 2-.9 2-2-.9-2-2-2z" class="st1"/><path d="M-52 219.7h5c1.1 0 2 .9 2 2v26c0 1.1-.9 2-2 2h-5c-1.1 0-2-.9-2-2v-26c0-1.1.9-2 2-2z" class="st0"/><path d="M-47 250.2h-5c-1.4 0-2.5-1.1-2.5-2.5v-26c0-1.4 1.1-2.5 2.5-2.5h5c1.4 0 2.5 1.1 2.5 2.5v26c0 1.4-1.1 2.5-2.5 2.5zm-5-30c-.8 0-1.5.7-1.5 1.5v26c0 .8.7 1.5 1.5 1.5h5c.8 0 1.5-.7 1.5-1.5v-26c0-.8-.7-1.5-1.5-1.5h-5z" class="st1"/><path d="M-53.5 227.2h8v2h-8z" class="st5"/><path d="M-45.5 227.2v-1h-8.1v1h8.1zM-45.4 230.2v-1H-54v1h8.6z" class="st1"/><circle cx="-49.5" cy="244.2" r="2.5" class="st0"/><path d="M-49.5 247.2c-1.7 0-3-1.3-3-3s1.3-3 3-3 3 1.3 3 3-1.3 3-3 3zm0-5c-1.1 0-2 .9-2 2s.9 2 2 2 2-.9 2-2-.9-2-2-2z" class="st1"/><path d="M12.1 201.5l-.7.8L28 217.1l.7-.8-16.6-14.8z" class="st0"/><path d="M28.1 217.8l-17.3-15.4 1.4-1.6 17.3 15.4-1.4 1.6zm-16-15.6L28 216.4v-.1l-15.9-14.1z" class="st1"/><path d="M29.2 216.8l-1-.3-8 30.6 1 .3 8-30.6z" class="st0"/><path d="M21.5 248.1l-2-.5 8.3-31.6 2 .5-8.3 31.6zm-.8-1.3l7.8-29.7h-.1l-7.7 29.7z" class="st1"/><circle cx="28.5" cy="217.2" r="2.5" class="st0"/><path d="M28.5 220.2c-1.7 0-3-1.3-3-3s1.3-3 3-3 3 1.3 3 3-1.3 3-3 3zm0-5c-1.1 0-2 .9-2 2s.9 2 2 2 2-.9 2-2-.9-2-2-2z" class="st1"/><path d="M7.3 212.1c-1.1 2-3.5 2.7-5.4 1.5C0 212.5-.7 209.9.4 208c0-.1.1-.1.2-.2l6.8 4.1c-.1 0-.1.1-.1.2z" class="st0"/><path d="M3.8 214.7c-.8 0-1.6-.2-2.2-.6-2.1-1.3-2.9-4.1-1.6-6.3 0-.1.1-.1.1-.2l.3-.4.5.2 7.2 4.3-.2.4c-.1.1-.1.2-.1.3-.9 1.4-2.4 2.3-4 2.3zm-3.1-6.2c-.8 1.8-.2 3.8 1.4 4.7.5.3 1.1.5 1.7.5 1.2 0 2.3-.6 2.9-1.6l-6-3.6z" class="st1"/><path d="M15.2 199.3L8.7 195l-5.6 8.5 6.5 4.3 5.6-8.5z" class="st0"/><path d="M9.7 208.5l-7.3-4.9 6.2-9.4 7.3 4.9-6.2 9.4zm-5.9-5.1l5.6 3.7 5.1-7.7-5.6-3.7-5.1 7.7z" class="st1"/><path d="M7.9 202.2c4.5 2.8 6.2 8.6 3.5 13.2-.1.2-.2.4-.3.5l-16.5-9.6c.1-.2.2-.4.3-.6 2.5-4.6 8.4-6.2 13-3.5z" class="st0"/><path d="M11.2 216.6l-17.4-10.1.3-.5c.1-.2.2-.3.3-.5 1.8-3.1 5.1-5.1 8.7-5.1 1.8 0 3.5.5 5 1.4 4.8 3 6.4 9.1 3.7 13.8-.1.2-.2.3-.3.5l-.3.5zm-16-10.5l15.7 9.1s0-.1.1-.1c2.5-4.3 1-9.8-3.3-12.5-1.4-.8-2.9-1.2-4.5-1.2-3.2 0-6.3 1.8-7.9 4.6-.1 0-.1 0-.1.1z" class="st1"/><path d="M21.5 244.7c1.7 0 3 1.3 3 3v1h-6v-1c0-1.7 1.3-3 3-3z" class="st0"/><path d="M25 249.2h-7v-1.5c0-1.9 1.6-3.5 3.5-3.5s3.5 1.6 3.5 3.5v1.5zm-6-1h5v-.5c0-1.4-1.1-2.5-2.5-2.5s-2.5 1.1-2.5 2.5v.5z" class="st1"/><path d="M16 248.7h12v2H16z" class="st0"/><path d="M28.5 251.2h-13v-3h13v3zm-12-1h11v-1h-11v1z" class="st1"/></svg>