<svg xmlns="http://www.w3.org/2000/svg" width="159.5" height="122" preserveAspectRatio="none"><defs><style>.cls-1, .cls-8 { fill: #fff; stroke: #bdc3c6; } .cls-1 { stroke-width: 1px; } .cls-2 { fill: #0ac5ab; } .cls-3 { fill: #d54bde; } .cls-4 { fill: #bdc3c6; } .cls-4, .cls-6, .cls-7 { fill-rule: evenodd; } .cls-5, .cls-6 { fill: #bcc2c5; } .cls-7 { fill: #de554b; } .cls-8 { stroke-width: 2px; }</style></defs><rect width="130" height="100" x=".5" y="4" rx="6" ry="6" class="cls-1"/><path d="M65.5 58h32v17h-32z" class="cls-2"/><path d="M1.5 76h31v17h-31z" class="cls-3"/><path d="M28 17c0 2.76-2.24 5-5 5s-5-2.24-5-5c0-1.63.8-3.06 2-3.98V0h6v13.02c1.2.92 2 2.35 2 3.98zM56 17c0 2.76-2.24 5-5 5s-5-2.24-5-5c0-1.63.8-3.06 2-3.98V0h6v13.02c1.2.92 2 2.35 2 3.98zM84 17c0 2.76-2.24 5-5 5s-5-2.24-5-5c0-1.63.8-3.06 2-3.98V0h6v13.02c1.2.92 2 2.35 2 3.98zM112 17c0 2.76-2.24 5-5 5s-5-2.24-5-5c0-1.63.8-3.06 2-3.98V0h6v13.02c1.2.92 2 2.35 2 3.98zM0 41v-1h130v1H0zM0 58v-1h130v1H0zM0 76v-1h130v1H0zM0 94v-1h130v1H0z" class="cls-4"/><path d="M32.5 41h1v52h-1zM64.5 41h1v52h-1zM96.5 41h1v52h-1z" class="cls-5"/><path d="M8 34h18c.55 0 1 .45 1 1s-.45 1-1 1H8c-.55 0-1-.45-1-1s.45-1 1-1zM40 34h18c.55 0 1 .45 1 1s-.45 1-1 1H40c-.55 0-1-.45-1-1s.45-1 1-1zM73 34h18c.55 0 1 .45 1 1s-.45 1-1 1H73c-.55 0-1-.45-1-1s.45-1 1-1zM105 34h18c.55 0 1 .45 1 1s-.45 1-1 1h-18c-.55 0-1-.45-1-1s.45-1 1-1z" class="cls-6"/><path d="M49 69.43L51.47 71l-.65-2.96 2.18-2-2.88-.25L49 63l-1.12 2.8-2.88.25 2.18 2-.65 2.95L49 69.43z" class="cls-7"/><circle cx="129.5" cy="92" r="29" class="cls-8"/><circle cx="129.5" cy="92" r="24" class="cls-1"/><path d="M129 76c.55 0 1 .45 1 1v13c0 .55-.45 1-1 1s-1-.45-1-1V77c0-.55.45-1 1-1zM129 91h15c.55 0 1 .45 1 1s-.45 1-1 1h-15c-.55 0-1-.45-1-1s.45-1 1-1z" class="cls-6"/></svg>