<svg xmlns="http://www.w3.org/2000/svg" width="144" height="116" preserveAspectRatio="none"><defs><style>.cls-1 { fill: #fff; } .cls-1, .cls-3 { stroke: #bdc3c6; stroke-width: 1px; } .cls-1, .cls-4, .cls-5, .cls-7 { fill-rule: evenodd; } .cls-2, .cls-5 { fill: #bdc3c6; } .cls-3 { fill: #ebf1f7; } .cls-4 { fill: #0ac5ab; } .cls-6, .cls-7 { fill: #efc75e; }</style></defs><path d="M.5 12.5h100v93c0 1.1-.9 2-2 2h-96c-1.1 0-2-.9-2-2v-93zM2.5.5h96c1.1 0 2 .9 2 2v12H.5v-12c0-1.1.9-2 2-2z" class="cls-1"/><circle cx="8.5" cy="7.5" r="3" class="cls-2"/><circle cx="16.5" cy="7.5" r="3" class="cls-2"/><circle cx="24.5" cy="7.5" r="3" class="cls-2"/><rect width="80" height="44" x="10.5" y="24.5" rx="2" ry="2" class="cls-3"/><path d="M11 78h45.34c.56 0 1 .45 1 1s-.44 1-1 1H11c-.55 0-1-.45-1-1s.45-1 1-1z" class="cls-4"/><path d="M11 84h78c.55 0 1 .45 1 1s-.45 1-1 1H11c-.55 0-1-.45-1-1s.45-1 1-1zM11 90h78c.55 0 1 .45 1 1s-.45 1-1 1H11c-.55 0-1-.45-1-1s.45-1 1-1z" class="cls-5"/><path d="M43.5 20.5h100v93c0 1.1-.9 2-2 2h-96c-1.1 0-2-.9-2-2v-93zM45.5 8.5h96c1.1 0 2 .9 2 2v12h-100v-12c0-1.1.9-2 2-2z" class="cls-1"/><circle cx="51.5" cy="15.5" r="3" class="cls-2"/><circle cx="59.5" cy="15.5" r="3" class="cls-2"/><circle cx="67.5" cy="15.5" r="3" class="cls-2"/><rect width="18" height="18" x="55.5" y="32.5" rx="2" ry="2" class="cls-6"/><path d="M78 34h27c.55 0 1 .45 1 1s-.45 1-1 1H78c-.55 0-1-.45-1-1s.45-1 1-1z" class="cls-7"/><path d="M78 40h47c.55 0 1 .45 1 1s-.45 1-1 1H78c-.55 0-1-.45-1-1s.45-1 1-1zM78 46h47c.55 0 1 .45 1 1s-.45 1-1 1H78c-.55 0-1-.45-1-1s.45-1 1-1z" class="cls-5"/><rect width="18" height="18" x="55.5" y="58.5" rx="2" ry="2" class="cls-2"/><path d="M78 60h27c.55 0 1 .45 1 1s-.45 1-1 1H78c-.55 0-1-.45-1-1s.45-1 1-1zM78 66h47c.55 0 1 .45 1 1s-.45 1-1 1H78c-.55 0-1-.45-1-1s.45-1 1-1zM78 72h47c.55 0 1 .45 1 1s-.45 1-1 1H78c-.55 0-1-.45-1-1s.45-1 1-1z" class="cls-5"/><rect width="18" height="18" x="55.5" y="84.5" rx="2" ry="2" class="cls-2"/><path d="M78 86h27c.55 0 1 .45 1 1s-.45 1-1 1H78c-.55 0-1-.45-1-1s.45-1 1-1zM78 92h47c.55 0 1 .45 1 1s-.45 1-1 1H78c-.55 0-1-.45-1-1s.45-1 1-1zM78 98h47c.55 0 1 .45 1 1s-.45 1-1 1H78c-.55 0-1-.45-1-1s.45-1 1-1z" class="cls-5"/></svg>