<svg xmlns="http://www.w3.org/2000/svg" width="147" height="132" preserveAspectRatio="none"><defs><style>.cls-1, .cls-3 { fill: #fff; } .cls-1, .cls-2, .cls-3, .cls-5 { stroke: #bdc3c6; stroke-width: 1px; } .cls-2 { fill: #f5f8fb; } .cls-3, .cls-5, .cls-6 { fill-rule: evenodd; } .cls-4 { fill: #efc75e; } .cls-5 { fill: #ebf1f7; } .cls-6 { fill: #0ac5ab; }</style></defs><rect width="100" height="110" x=".5" y=".5" rx="4" ry="4" class="cls-1"/><rect width="88" height="78" x="6.5" y="6.5" rx="4" ry="4" class="cls-2"/><path d="M52.68 69.7v2.52h-4.4V69.7c.72.13 1.46.2 2.2.2.74 0 1.47-.07 2.2-.2zM68.2 51.26c-.88 2.6-2.77 4.5-4.76 4.9-2.52 5.56-7.14 11.23-12.96 11.23-5.82 0-10.45-5.68-12.96-11.23-2.03-.42-3.9-2.32-4.76-4.9-.56-1.63-.65-3.34-.28-4.8.4-1.54 1.3-2.7 2.5-3.2-.04-1.65.1-6.3 1.24-10.12.77-2.53 2.02-5 4.1-6.7l-.56 2.92-.26 1.36s.53-1.04 1.5-2.28c1.33-1.7 3.53-3.8 6.55-4.1l-1.5 1.77-.72.85c.23-.25.56-.57 1-.92 1.95-1.6 6-3.76 12.32-1.7 0 0-2.54.72-3.5 1.46 0 0 3.5.1 5.64-.94 0 0 .94 2.96 1.16 5.15.02.18.04.36.05.52l.1-.4.93-4s2 3.63 2.82 8.78c.4 2.4.58 5.5.14 8.37 2.4 1.04 3.4 4.5 2.2 8zm-3.22-5.7c-.08-.03-.23-.05-.3-.05-.6-.07-1.08-.57-1.1-1.2-.04-.6-.16-1.2-.25-1.77-3.18-1.02-8.7-3.5-12.7-9.2 0 0-1.86 2.72-7.87 5.24 0 0 1.82-1.16 2.95-3.9 0 0-6.26.54-8.08 7.93-.14.55-.2 1.1-.23 1.7-.04.62-.5 1.12-1.12 1.2-.07 0-.22 0-.3.03-.7.26-1 1.08-1.13 1.55-.25.98-.17 2.2.22 3.35.72 2.14 2.2 3.3 3.22 3.3.48 0 .97.3 1.16.75 2.13 5.02 6.14 10.38 11.02 10.38 4.87 0 8.9-5.36 11-10.38.2-.46.57-.68 1.16-.75 1.05 0 2.53-1.16 3.25-3.3.8-2.4.16-4.5-.92-4.9zm-16.7 28.32h4.44l1.54 10.6h-7.52l1.54-10.6zM29.9 66.06l9-2.76c.6.76 1.2 1.44 1.83 2.07l-2.37.73c.93 3.8 2.8 11.46 4.4 18.4H28.43c-1.23-2.97-1.92-6.24-1.92-9.67v-4.07c0-2.17 1.38-4.08 3.4-4.7zm32.7 0l-2.36-.7c.63-.64 1.24-1.32 1.82-2.07l9.04 2.77c2.02.62 3.4 2.52 3.4 4.7v4.06c0 3.43-.7 6.7-1.92 9.67h-14.4c1.62-6.94 3.48-14.62 4.4-18.42z" class="cls-3"/><rect width="100" height="110" x="46.5" y="21.5" rx="4" ry="4" class="cls-1"/><rect width="88" height="78" x="52.5" y="27.5" rx="4" ry="4" class="cls-2"/><circle cx="86.5" cy="49.5" r="7" class="cls-4"/><path d="M136.5 111.5h-80c-2.2 0-4-1.8-4-4v-6.07l23-19.93 34 13 31-22.8v35.8c0 2.2-1.8 4-4 4z" class="cls-5"/><path d="M115 21v30l9-6.6 9 6.6V21h-18z" class="cls-6"/></svg>