<svg xmlns="http://www.w3.org/2000/svg" width="191" height="109" preserveAspectRatio="none"><defs><style>.cls-1, .cls-4 { fill: #fff; } .cls-1, .cls-3, .cls-4 { stroke: #bdc3c6; stroke-width: 1px; } .cls-1, .cls-5, .cls-6, .cls-7, .cls-8 { fill-rule: evenodd; } .cls-2 { fill: #de554b; } .cls-3 { fill: #f5f8fb; } .cls-5 { fill: #0ac5ab; } .cls-6 { fill: #bcc2c5; } .cls-7 { fill: #d7dcde; } .cls-8 { fill: #efc75e; }</style></defs><path d="M16.5.5h158c3.3 0 6 2.7 6 6v94h-170v-94c0-3.3 2.7-6 6-6zM17.5 8.5h156c1.1 0 2 .9 2 2v85h-160v-85c0-1.1.9-2 2-2z" class="cls-1"/><circle cx="96.5" cy="5.5" r="2" class="cls-2"/><path d="M.5 98.5h190v4c0 3.3-2.7 6-6 6H6.5c-3.3 0-6-2.7-6-6v-4z" class="cls-1"/><rect width="80" height="64" x="23.5" y="20.5" rx="4" ry="4" class="cls-3"/><path d="M88.8 84.5H38.2c1.1-5.6 3.07-13.27 8.93-17.55-.47-3.15-.73-8.06-.73-15.34 0-6.75 2.58-12.73 6.57-16.6 0 0 4.1-4.5 10.53-4.5 9.44 0 17.1 9.43 17.1 21.1 0 7.3-.25 12.2-.73 15.36C85.7 71.3 87.7 78.9 88.8 84.5zm-25.3-7.55l8.98-4.53-4.67-7.3c-1.26.65-2.9 1.02-4.3 1.02s-3.07-.36-4.33-1l-4.68 7.28 9 4.53zm6.25-36.54s-8.35-.55-17.8 7.55C51.23 51.53 54.93 63 63.5 63c5.32 0 10.92-7 11.6-12.46C71.25 45 69.75 40.4 69.75 40.4z" class="cls-1"/><rect width="56" height="53" x="111.5" y="20.5" rx="4" ry="4" class="cls-4"/><path d="M114.5 78.5h50c1.66 0 3 1.34 3 3s-1.34 3-3 3h-50c-1.66 0-3-1.34-3-3s1.34-3 3-3z" class="cls-1"/><path d="M156 78h8c1.66 0 3 1.34 3 3s-1.34 3-3 3h-8c-1.66 0-3-1.34-3-3s1.34-3 3-3z" class="cls-5"/><path d="M117 25h6c.55 0 1 .45 1 1s-.45 1-1 1h-6c-.55 0-1-.45-1-1s.45-1 1-1z" class="cls-6"/><path d="M129 25h16c.55 0 1 .45 1 1s-.45 1-1 1h-16c-.55 0-1-.45-1-1s.45-1 1-1z" class="cls-7"/><path d="M117 30h6c.55 0 1 .45 1 1s-.45 1-1 1h-6c-.55 0-1-.45-1-1s.45-1 1-1z" class="cls-6"/><path d="M129 30h26c.55 0 1 .45 1 1s-.45 1-1 1h-26c-.55 0-1-.45-1-1s.45-1 1-1z" class="cls-8"/><path d="M117 35h6c.55 0 1 .45 1 1s-.45 1-1 1h-6c-.55 0-1-.45-1-1s.45-1 1-1z" class="cls-6"/><path d="M129 35h10c.55 0 1 .45 1 1s-.45 1-1 1h-10c-.55 0-1-.45-1-1s.45-1 1-1z" class="cls-7"/></svg>