<svg xmlns="http://www.w3.org/2000/svg" viewBox="40 -46.7 102.5 115.7" enable-background="new 40 -46.7 102.5 115.7" preserveAspectRatio="none"><style type="text/css">.st0{fill:#FFFFFF;} .st1{fill:#BDC3C6;} .st2{fill:#0AC5AB;} .st3{fill:#EBF1F7;} .st4{fill:#EFC75E;}</style><path d="M44.5-44.9h24c2.2 0 4 1.8 4 4v104c0 2.2-1.8 4-4 4h-24c-2.2 0-4-1.8-4-4v-104c0-2.2 1.8-4 4-4z" class="st0"/><path d="M68.5 67.6h-24c-2.5 0-4.5-2-4.5-4.5v-104c0-2.5 2-4.5 4.5-4.5h24c2.5 0 4.5 2 4.5 4.5v104c0 2.5-2 4.5-4.5 4.5zm-24-112c-1.9 0-3.5 1.6-3.5 3.5v104c0 1.9 1.6 3.5 3.5 3.5h24c1.9 0 3.5-1.6 3.5-3.5v-104c0-1.9-1.6-3.5-3.5-3.5h-24z" class="st1"/><path d="M41-16.4h29v9H41z" class="st2"/><path d="M41-16.4v-1h29v1H41zM41-6.4v-1h29v1H41z" class="st1"/><circle cx="56.5" cy="48.1" r="7" class="st0"/><path d="M56.5 55.6c-4.1 0-7.5-3.4-7.5-7.5s3.4-7.5 7.5-7.5S64 44 64 48.1s-3.4 7.5-7.5 7.5zm0-14c-3.6 0-6.5 2.9-6.5 6.5s2.9 6.5 6.5 6.5 6.5-2.9 6.5-6.5-2.9-6.5-6.5-6.5z" class="st1"/><path d="M74.5-44.9h24c2.2 0 4 1.8 4 4v104c0 2.2-1.8 4-4 4h-24c-2.2 0-4-1.8-4-4v-104c0-2.2 1.8-4 4-4z" class="st3"/><path d="M98.5 67.6h-24c-2.5 0-4.5-2-4.5-4.5v-104c0-2.5 2-4.5 4.5-4.5h24c2.5 0 4.5 2 4.5 4.5v104c0 2.5-2 4.5-4.5 4.5zm-24-112c-1.9 0-3.5 1.6-3.5 3.5v104c0 1.9 1.6 3.5 3.5 3.5h24c1.9 0 3.5-1.6 3.5-3.5v-104c0-1.9-1.6-3.5-3.5-3.5h-24z" class="st1"/><path d="M71-16.4h29v9H71z" class="st0"/><path d="M71-16.4v-1h29v1H71zM71-6.4v-1h29v1H71z" class="st1"/><circle cx="86.5" cy="48.1" r="7" class="st0"/><path d="M86.5 55.6c-4.1 0-7.5-3.4-7.5-7.5s3.4-7.5 7.5-7.5S94 44 94 48.1s-3.4 7.5-7.5 7.5zm0-14c-3.6 0-6.5 2.9-6.5 6.5s2.9 6.5 6.5 6.5 6.5-2.9 6.5-6.5-2.9-6.5-6.5-6.5z" class="st1"/><path d="M94.3-41.7l23.6-4.5c2.2-.4 4.3 1 4.7 3.2L142 59.2c.4 2.2-1 4.3-3.2 4.7l-23.6 4.5c-2.2.4-4.3-1-4.7-3.2L91.1-37c-.4-2.2 1-4.3 3.2-4.7z" class="st0"/><path d="M114.5 69c-2.2 0-4.1-1.5-4.5-3.7L90.6-36.9c-.2-1.2 0-2.4.7-3.4s1.7-1.7 2.9-1.9l23.6-4.5c2.5-.4 4.8 1.2 5.3 3.6l19.4 102.2c.5 2.5-1.2 4.8-3.6 5.3l-23.6 4.5c-.3.1-.6.1-.8.1zm4.2-114.7c-.2 0-.4 0-.7.1l-23.6 4.5c-.9.2-1.7.7-2.2 1.5-.5.8-.7 1.7-.5 2.7L111 65.2c.4 1.9 2.2 3.2 4.1 2.8l23.6-4.5c1.9-.4 3.2-2.2 2.8-4.1L122.1-42.9c-.3-1.7-1.8-2.8-3.4-2.8z" class="st1"/><path d="M96-13.4l30.7-5.2 1.7 8.8-30.6 5.3-1.8-8.9z" class="st4"/><path d="M96.1-13.2l-.2-1 30.8-5.4.2 1-30.8 5.4zM98-3.5l-.2-1 30.8-5.4.2 1L98-3.5z" class="st1"/><circle cx="123.4" cy="47.4" r="7" class="st0"/><path d="M123.4 54.9c-4.1 0-7.5-3.4-7.5-7.5s3.4-7.5 7.5-7.5 7.5 3.4 7.5 7.5-3.4 7.5-7.5 7.5zm0-14c-3.6 0-6.5 2.9-6.5 6.5s2.9 6.5 6.5 6.5 6.5-2.9 6.5-6.5-2.9-6.5-6.5-6.5z" class="st1"/></svg>