<svg xmlns="http://www.w3.org/2000/svg" width="115" height="109" preserveAspectRatio="none"><defs><style>.cls-1 { fill: #bdc3c6; } .cls-1, .cls-2, .cls-3 { fill-rule: evenodd; } .cls-2 { fill: #0ac5ab; } .cls-3 { fill: #efc75e; } .cls-4 { fill: #fff; }</style></defs><path d="M13.5 0h56c.28 0 .5.22.5.5s-.22.5-.5.5h-56c-.28 0-.5-.22-.5-.5s.22-.5.5-.5zM.5 95h69c.28 0 .5.22.5.5s-.22.5-.5.5H.5c-.28 0-.5-.22-.5-.5s.22-.5.5-.5zM69.5 0c.28 0 .5.22.5.5v95c0 .28-.22.5-.5.5s-.5-.22-.5-.5V.5c0-.28.22-.5.5-.5zM.5 0c.28 0 .5.22.5.5v95c0 .28-.22.5-.5.5s-.5-.22-.5-.5V.5C0 .22.22 0 .5 0zM.5 0h9c.28 0 .5.22.5.5s-.22.5-.5.5h-9C.22 1 0 .78 0 .5S.22 0 .5 0zM69.5 6h6c.28 0 .5.22.5.5s-.22.5-.5.5h-6c-.28 0-.5-.22-.5-.5s.22-.5.5-.5zM6.5 101h68c.28 0 .5.22.5.5s-.22.5-.5.5h-68c-.28 0-.5-.22-.5-.5s.22-.5.5-.5zM75.5 6c.28 0 .5.22.5.5v68c0 .28-.22.5-.5.5s-.5-.22-.5-.5v-68c0-.28.22-.5.5-.5zM75.5 80c.28 0 .5.22.5.5v21c0 .28-.22.5-.5.5s-.5-.22-.5-.5v-21c0-.28.22-.5.5-.5zM6.5 95c.28 0 .5.22.5.5v6c0 .28-.22.5-.5.5s-.5-.22-.5-.5v-6c0-.28.22-.5.5-.5zM75.5 12h6c.28 0 .5.22.5.5s-.22.5-.5.5h-6c-.28 0-.5-.22-.5-.5s.22-.5.5-.5zM12.5 107h41c.28 0 .5.22.5.5s-.22.5-.5.5h-41c-.28 0-.5-.22-.5-.5s.22-.5.5-.5zM60.5 107h21c.28 0 .5.22.5.5s-.22.5-.5.5h-21c-.28 0-.5-.22-.5-.5s.22-.5.5-.5zM81.5 12c.28 0 .5.22.5.5v94c0 .28-.22.5-.5.5s-.5-.22-.5-.5v-94c0-.28.22-.5.5-.5zM12.5 101c.28 0 .5.22.5.5v6c0 .28-.22.5-.5.5s-.5-.22-.5-.5v-6c0-.28.22-.5.5-.5z" class="cls-1"/><path d="M13 23h18c.55 0 1 .45 1 1s-.45 1-1 1H13c-.55 0-1-.45-1-1s.45-1 1-1z" class="cls-2"/><path d="M13 29h44c.55 0 1 .45 1 1s-.45 1-1 1H13c-.55 0-1-.45-1-1s.45-1 1-1zM13 35h44c.55 0 1 .45 1 1s-.45 1-1 1H13c-.55 0-1-.45-1-1s.45-1 1-1zM13 41h44c.55 0 1 .45 1 1s-.45 1-1 1H13c-.55 0-1-.45-1-1s.45-1 1-1z" class="cls-1"/><path d="M13 53h34c.55 0 1 .45 1 1s-.45 1-1 1H13c-.55 0-1-.45-1-1s.45-1 1-1z" class="cls-3"/><path d="M13 59h44c.55 0 1 .45 1 1s-.45 1-1 1H13c-.55 0-1-.45-1-1s.45-1 1-1zM13 65h44c.55 0 1 .45 1 1s-.45 1-1 1H13c-.55 0-1-.45-1-1s.45-1 1-1zM13 71h44c.55 0 1 .45 1 1s-.45 1-1 1H13c-.55 0-1-.45-1-1s.45-1 1-1z" class="cls-1"/><circle cx="73" cy="64" r="17" class="cls-4"/><path d="M113.86 98.17l-16.4-17.43c-.8-.86-1.9-1.3-3.1-1.2-1.14.07-2.23.6-3.08 1.5l-.38.42-4.5-4.77c2.8-3.38 4.5-7.8 4.5-12.62C90.9 53.56 82.83 45 72.93 45S55 53.56 55 64.08c0 10.52 8.05 19.08 17.94 19.08 4.45 0 8.52-1.72 11.66-4.58l4.5 4.8-.4.4c-1.78 1.9-1.9 4.85-.28 6.58 0 0 16.45 17.5 16.5 17.52.74.75 1.7 1.12 2.7 1.12 1.2 0 2.42-.5 3.37-1.52l2.57-2.74c.84-.9 1.35-2.05 1.42-3.26.07-1.28-.33-2.45-1.14-3.3zm-40.92-17.7c-8.5 0-15.4-7.36-15.4-16.4 0-9.02 6.9-16.37 15.4-16.37s15.4 7.35 15.4 16.38-6.9 16.38-15.4 16.38zm30.9 22.47L90.2 88.44c.02 0 .02 0 .02 0-.64-.66-.5-1.9.3-2.75l2.56-2.74c.4-.44.92-.7 1.44-.73.46-.03.87.1 1.15.42l13.63 14.48-5.46 5.8zm8.62-1.64c-.04.56-.28 1.1-.7 1.53l-2.56 2.74c-.8.85-1.96 1-2.6.3l-.96-1.02 5.45-5.8.96 1.03c.3.3.43.73.4 1.22z" class="cls-1"/><path d="M72.94 78.64c-7.54 0-13.68-6.53-13.68-14.56 0-8.02 6.14-14.55 13.68-14.55.7 0 1.27.6 1.27 1.35 0 .74-.56 1.35-1.26 1.35-6.14 0-11.14 5.32-11.14 11.85 0 6.54 5 11.86 11.14 11.86.7 0 1.27.6 1.27 1.34 0 .75-.56 1.36-1.26 1.36z" class="cls-2"/></svg>