<svg xmlns="http://www.w3.org/2000/svg" width="146.69" height="132" preserveAspectRatio="none"><defs><style>.cls-1 { fill: #fff; stroke: #bdc3c6; stroke-width: 1px; } .cls-1, .cls-2, .cls-3, .cls-4, .cls-5 { fill-rule: evenodd; } .cls-2 { fill: #f5f8fb; } .cls-3 { fill: #bdc3c6; } .cls-4 { fill: #16b0c5; } .cls-5 { fill: #0ac5ab; }</style></defs><path d="M2.98 18.2L81.24.57c1.7-.38 3.38.68 3.76 2.37l22.88 100.83c.38 1.7-.68 3.36-2.38 3.74l-78.26 17.6c-1.7.4-3.38-.67-3.76-2.36L.6 21.93c-.38-1.68.68-3.36 2.38-3.74z" class="cls-1"/><path d="M23.03 86.93L92.08 71.4c.85-.2 1.7.33 1.88 1.18l2.26 9.93c.2.85-.34 1.7-1.2 1.88L25.98 99.9c-.84.2-1.7-.33-1.88-1.17l-2.26-9.93c-.2-.84.34-1.68 1.2-1.87z" class="cls-2"/><path d="M26.93 91.67l43.73-9.84c.64-.14 1.27.26 1.4.9.16.62-.24 1.25-.88 1.4l-43.73 9.83c-.64.14-1.27-.25-1.4-.9-.16-.62.24-1.25.88-1.4zM76.8 80.45l13.04-2.93c.64-.14 1.27.25 1.4.9.16.62-.24 1.25-.88 1.4l-13.04 2.92c-.64.15-1.27-.25-1.4-.88-.16-.64.24-1.27.88-1.4zM79.75 93.44l13.04-2.94c.62-.14 1.26.26 1.4.9.14.62-.26 1.25-.9 1.4l-13.03 2.93c-.64.14-1.27-.26-1.42-.9-.14-.62.26-1.25.9-1.4zM81.13 99.55l13.05-2.94c.63-.13 1.26.27 1.4.9.15.63-.25 1.26-.9 1.4l-13.03 2.94c-.63.14-1.27-.25-1.4-.9-.15-.62.25-1.25.88-1.4zM69.86 49.9l13.05-2.94c.64-.14 1.27.26 1.42.9.14.62-.26 1.25-.9 1.4L70.4 52.19c-.63.13-1.26-.27-1.4-.9-.15-.63.25-1.26.88-1.4zM71.42 56.77l13.05-2.93c.63-.15 1.27.25 1.4.88.15.64-.25 1.27-.88 1.4l-13.06 2.94c-.63.15-1.26-.25-1.4-.88-.15-.64.25-1.27.88-1.4zM72.98 63.65l13.05-2.94c.63-.13 1.27.27 1.4.9.15.63-.25 1.26-.88 1.4L73.5 65.94c-.63.14-1.26-.26-1.4-.9-.15-.62.25-1.25.9-1.4zM23.1 74.86l43.75-9.83c.63-.15 1.26.25 1.4.88.15.65-.25 1.28-.88 1.42l-43.74 9.84c-.63.14-1.27-.26-1.4-.9-.15-.62.25-1.25.88-1.4zM21.55 68l43.74-9.85c.62-.14 1.25.26 1.4.9.14.62-.26 1.25-.9 1.4l-43.73 9.83c-.63.14-1.27-.25-1.4-.9-.15-.62.25-1.25.88-1.4zM20 61.12l43.73-9.84c.63-.15 1.26.25 1.4.88.15.64-.25 1.27-.88 1.4L20.5 63.42c-.62.15-1.25-.25-1.4-.88-.14-.63.26-1.26.9-1.4z" class="cls-3"/><path d="M10.03 29.64L79.08 14.1c.85-.2 1.7.34 1.88 1.2l4.5 19.85c.2.84-.33 1.68-1.18 1.87L15.23 52.55c-.85.2-1.7-.34-1.88-1.18L8.85 31.5c-.2-.84.33-1.67 1.18-1.86z" class="cls-2"/><path d="M24.07 32.9l43.74-9.84c.64-.14 1.27.26 1.42.9.14.62-.26 1.25-.9 1.4L24.6 35.18c-.64.13-1.28-.26-1.42-.9-.14-.63.26-1.26.9-1.4zM16.6 42.6l62.15-13.97c.63-.14 1.27.26 1.4.9.15.62-.25 1.25-.88 1.4L17.12 44.9c-.64.14-1.27-.25-1.4-.9-.16-.62.24-1.25.88-1.4z" class="cls-3"/><path d="M55.87 14.6l79.85 7.77c1.73.17 3 1.7 2.82 3.43l-10.12 102.87c-.17 1.73-1.7 2.98-3.44 2.82l-79.85-7.8c-1.73-.17-3-1.7-2.82-3.42L52.44 17.4c.17-1.72 1.7-2.98 3.44-2.8z" class="cls-1"/><path d="M53 86.25l70.47 6.87c.86.08 1.5.85 1.4 1.7l-1 10.14c-.07.86-.84 1.5-1.7 1.4L51.7 99.5c-.86-.1-1.5-.85-1.4-1.72l1-10.13c.07-.86.84-1.5 1.7-1.4z" class="cls-2"/><path d="M55.2 91.97l44.63 4.35c.65.06 1.13.64 1.06 1.3-.07.63-.65 1.1-1.3 1.04L55 94.3c-.65-.05-1.12-.63-1.06-1.27.07-.65.64-1.12 1.3-1.06zM106.1 96.93l13.3 1.3c.66.06 1.13.64 1.07 1.28-.07.66-.64 1.13-1.3 1.07l-13.3-1.3c-.65-.06-1.13-.64-1.06-1.28.07-.66.65-1.13 1.3-1.07zM104.8 110.18l13.3 1.3c.65.06 1.13.64 1.06 1.28-.06.65-.64 1.12-1.3 1.06l-13.3-1.3c-.64-.06-1.12-.64-1.06-1.28.07-.65.65-1.12 1.3-1.06z" class="cls-3"/><path d="M104.18 116.42l13.3 1.3c.66.06 1.13.63 1.07 1.28-.06.64-.64 1.1-1.3 1.05l-13.3-1.3c-.65-.06-1.12-.63-1.06-1.28.05-.64.63-1.12 1.28-1.05z" class="cls-4"/><path d="M109.17 65.76l13.3 1.3c.65.06 1.13.63 1.06 1.28-.06.64-.64 1.1-1.3 1.05l-13.3-1.3c-.64-.07-1.12-.64-1.06-1.3.07-.63.65-1.1 1.3-1.04zM108.47 72.77l13.3 1.3c.66.06 1.14.64 1.07 1.28-.06.65-.64 1.12-1.3 1.06l-13.3-1.3c-.64-.05-1.12-.63-1.05-1.27.05-.65.63-1.12 1.27-1.06zM107.78 79.78l13.3 1.3c.66.07 1.14.64 1.07 1.3-.06.63-.64 1.1-1.3 1.04l-13.3-1.3c-.64-.06-1.12-.64-1.05-1.28.06-.65.64-1.12 1.28-1.06zM56.9 74.82l44.62 4.36c.65.06 1.13.63 1.06 1.28-.06.64-.64 1.12-1.3 1.05l-44.6-4.34c-.66-.06-1.13-.64-1.07-1.28.07-.65.65-1.12 1.3-1.06zM57.6 67.8l44.6 4.36c.66.06 1.13.64 1.07 1.28-.06.65-.64 1.12-1.3 1.06l-44.6-4.35c-.66-.07-1.13-.64-1.07-1.3.06-.63.64-1.1 1.3-1.04zM58.28 60.8l44.62 4.35c.65.06 1.13.63 1.06 1.28-.06.64-.64 1.12-1.3 1.05l-44.6-4.35c-.66-.06-1.13-.64-1.07-1.28.05-.65.63-1.12 1.28-1.05z" class="cls-3"/><path d="M58.76 27.8l70.46 6.86c.86.1 1.5.85 1.4 1.7l-2 20.28c-.07.86-.84 1.5-1.7 1.4l-70.46-6.87c-.87-.08-1.5-.84-1.4-1.7l1.98-20.27c.1-.86.85-1.5 1.72-1.4z" class="cls-2"/><path d="M71.06 35.3l44.63 4.34c.63.06 1.1.64 1.05 1.28-.07.65-.65 1.12-1.3 1.06l-44.62-4.35c-.65-.07-1.12-.64-1.06-1.3.07-.63.64-1.1 1.3-1.04zM60.9 42.17l63.4 6.18c.66.06 1.14.64 1.07 1.28-.06.65-.64 1.12-1.3 1.06l-63.4-6.2c-.65-.06-1.12-.63-1.06-1.28.08-.64.65-1.12 1.3-1.05z" class="cls-3"/><path d="M106.5 28.15c2.66 5.4 5.14 10.97 7.24 16.88l-10.4 5.07 28.83 4.8 14.02-25.7-10.5 5.13c-2.38-5.8-5.57-10.67-10.7-13.42-9.56-.6-19.1-1.22-28.64-1.83 3.8.12 7.07 3.8 10.13 9.08z" class="cls-5"/></svg>