<svg xmlns="http://www.w3.org/2000/svg" width="130" height="121" preserveAspectRatio="none"><defs><style>.cls-1 { fill: #f5f8fb; } .cls-1, .cls-2, .cls-7 { stroke: #bdc3c6; } .cls-1, .cls-2 { stroke-width: 1px; } .cls-2, .cls-5, .cls-7 { fill: #fff; } .cls-3 { fill: #bdc3c6; } .cls-3, .cls-4, .cls-6 { fill-rule: evenodd; } .cls-4 { fill: #de554b; } .cls-5 { stroke: #0ac5ab; } .cls-5, .cls-7 { stroke-width: 2px; } .cls-6 { fill: #0ac5ab; }</style></defs><rect width="90" height="110" x=".5" y=".5" rx="4" ry="4" class="cls-1"/><rect width="66" height="10" x="12.5" y="27.5" rx="2" ry="2" class="cls-2"/><path d="M14 20h36c1.1 0 2 .9 2 2s-.9 2-2 2H14c-1.1 0-2-.9-2-2s.9-2 2-2z" class="cls-3"/><rect width="66" height="10" x="12.5" y="53.5" rx="2" ry="2" class="cls-2"/><path d="M14 46h36c1.1 0 2 .9 2 2s-.9 2-2 2H14c-1.1 0-2-.9-2-2s.9-2 2-2z" class="cls-4"/><rect width="66" height="10" x="12.5" y="80.5" rx="2" ry="2" class="cls-2"/><path d="M14 73h36c1.1 0 2 .9 2 2s-.9 2-2 2H14c-1.1 0-2-.9-2-2s.9-2 2-2z" class="cls-3"/><rect width="90" height="110" x="39.5" y="10.5" rx="4" ry="4" class="cls-2"/><rect width="20" height="20" x="53.5" y="26.5" rx="2" ry="2" class="cls-5"/><path d="M78 34h36c1.1 0 2 .9 2 2s-.9 2-2 2H78c-1.1 0-2-.9-2-2s.9-2 2-2z" class="cls-3"/><path d="M70.05 32.1l-.65-.65c-.27-.27-.7-.27-.97 0l-6.8 6.83-3.56-3.58c-.27-.26-.7-.26-.97 0l-.65.66c-.27.26-.27.7 0 .97l4.7 4.72c.13.13.3.2.48.2.17 0 .35-.07.48-.2l7.94-7.97c.28-.27.28-.7 0-.98z" class="cls-6"/><rect width="20" height="20" x="53.5" y="55.5" rx="2" ry="2" class="cls-7"/><path d="M78 63h36c1.1 0 2 .9 2 2s-.9 2-2 2H78c-1.1 0-2-.9-2-2s.9-2 2-2z" class="cls-3"/><rect width="20" height="20" x="53.5" y="84.5" rx="2" ry="2" class="cls-7"/><path d="M78 92h36c1.1 0 2 .9 2 2s-.9 2-2 2H78c-1.1 0-2-.9-2-2s.9-2 2-2z" class="cls-3"/></svg>