<svg xmlns="http://www.w3.org/2000/svg" width="161" height="103" preserveAspectRatio="none"><defs><style>.cls-1 { fill: #f5f8fb; } .cls-1, .cls-10, .cls-2, .cls-3, .cls-7, .cls-8 { stroke: #bdc3c6; stroke-width: 1px; } .cls-2, .cls-3, .cls-8, .cls-9 { fill: #fff; } .cls-2 { stroke-dasharray: 4,2; } .cls-4 { fill: #efc75e; } .cls-10, .cls-4, .cls-5, .cls-6, .cls-7, .cls-8 { fill-rule: evenodd; } .cls-5, .cls-7 { fill: #bdc3c6; } .cls-6 { fill: #0ac5ab; } .cls-10 { fill: #ebf1f7; }</style></defs><rect width="75" height="102" x=".5" y=".5" rx="2" ry="2" class="cls-1"/><rect width="55" height="32" x="10.5" y="11.5" rx="2" ry="2" class="cls-2"/><rect width="55" height="10" x="10.5" y="57.5" rx="2" ry="2" class="cls-3"/><path d="M12 50h36c1.1 0 2 .9 2 2s-.9 2-2 2H12c-1.1 0-2-.9-2-2s.9-2 2-2z" class="cls-4"/><rect width="55" height="10" x="10.5" y="81.5" rx="2" ry="2" class="cls-3"/><path d="M12 74h36c1.1 0 2 .9 2 2s-.9 2-2 2H12c-1.1 0-2-.9-2-2s.9-2 2-2z" class="cls-5"/><path d="M44.05 23.1l-.65-.65c-.27-.27-.7-.27-.97 0l-6.8 6.83-3.56-3.58c-.27-.26-.7-.26-.97 0l-.65.66c-.27.26-.27.7 0 .97l4.7 4.72c.13.13.3.2.48.2.17 0 .35-.07.48-.2l7.94-7.97c.28-.27.28-.7 0-.98z" class="cls-6"/><path d="M97.5 15.5h61c1.1 0 2 .9 2 2v3h-65v-3c0-1.1.9-2 2-2z" class="cls-7"/><path d="M95.5 20.5h65v40c0 1.1-.9 2-2 2h-61c-1.1 0-2-.9-2-2v-40z" class="cls-8"/><rect width="50" height="10" x="103.5" y="38.5" rx="2" ry="2" class="cls-3"/><path d="M105 31h36c1.1 0 2 .9 2 2s-.9 2-2 2h-36c-1.1 0-2-.9-2-2s.9-2 2-2z" class="cls-5"/><circle cx="99.5" cy="18.5" r="2" class="cls-9"/><circle cx="105.5" cy="18.5" r="2" class="cls-9"/><path d="M50.5 23.5h61c1.1 0 2 .9 2 2v3h-65v-3c0-1.1.9-2 2-2z" class="cls-7"/><path d="M48.5 28.5h65v40c0 1.1-.9 2-2 2h-61c-1.1 0-2-.9-2-2v-40z" class="cls-8"/><rect width="50" height="10" x="56.5" y="46.5" rx="2" ry="2" class="cls-3"/><path d="M58 39h36c1.1 0 2 .9 2 2s-.9 2-2 2H58c-1.1 0-2-.9-2-2s.9-2 2-2z" class="cls-5"/><circle cx="52.5" cy="26.5" r="2" class="cls-9"/><circle cx="58.5" cy="26.5" r="2" class="cls-9"/><path d="M61.5 37.5h61c1.1 0 2 .9 2 2v3h-65v-3c0-1.1.9-2 2-2z" class="cls-7"/><path d="M59.5 42.5h65v40c0 1.1-.9 2-2 2h-61c-1.1 0-2-.9-2-2v-40z" class="cls-10"/><rect width="50" height="10" x="67.5" y="60.5" rx="2" ry="2" class="cls-3"/><path d="M69 53h36c1.1 0 2 .9 2 2s-.9 2-2 2H69c-1.1 0-2-.9-2-2s.9-2 2-2z" class="cls-6"/><circle cx="63.5" cy="40.5" r="2" class="cls-9"/><circle cx="69.5" cy="40.5" r="2" class="cls-9"/></svg>