<svg xmlns="http://www.w3.org/2000/svg" width="101" height="104.5" viewBox="-98 160.7 101 104.5" enable-background="new -98 160.7 101 104.5" preserveAspectRatio="none"><style type="text/css">.st0{fill:#F5F8FB;} .st1{fill:#BDC3C6;} .st2{fill:#FFFFFF;} .st3{fill:#0AC5AB;}</style><circle cx="-47.5" cy="211.2" r="50" class="st0"/><path d="M-47.5 261.7c-27.8 0-50.5-22.6-50.5-50.5 0-27.8 22.6-50.5 50.5-50.5S3 183.4 3 211.2c0 27.9-22.7 50.5-50.5 50.5zm0-100c-27.3 0-49.5 22.2-49.5 49.5s22.2 49.5 49.5 49.5S2 238.5 2 211.2s-22.2-49.5-49.5-49.5z" class="st1"/><circle cx="-47.5" cy="211.2" r="33" class="st2"/><path d="M-47.5 244.7c-18.5 0-33.5-15-33.5-33.5s15-33.5 33.5-33.5 33.5 15 33.5 33.5-15.1 33.5-33.5 33.5zm0-66c-17.9 0-32.5 14.6-32.5 32.5s14.6 32.5 32.5 32.5S-15 229.1-15 211.2s-14.6-32.5-32.5-32.5z" class="st1"/><path d="M-11.5 168.1l7.1 7.1-21.9 21.9-7.1-7.1 21.9-21.9z" class="st2"/><path d="M-26.3 197.8l-7.8-7.8 22.6-22.6 7.8 7.8-22.6 22.6zm-6.4-7.8l6.4 6.4 21.2-21.2-6.4-6.4-21.2 21.2z" class="st1"/><path d="M-68.7 225.4l7.1 7.1-21.9 21.9-7.1-7.1 21.9-21.9z" class="st2"/><path d="M-83.6 255.1l-7.8-7.8 22.6-22.6 7.8 7.8-22.6 22.6zm-6.4-7.8l6.4 6.4 21.2-21.2-6.4-6.4-21.2 21.2z" class="st1"/><path d="M-25.6 226.1L-3.7 248l-7.1 7.1-21.9-21.9 7.1-7.1z" class="st2"/><path d="M-10.8 255.8l-22.6-22.6 7.8-7.8L-3 248l-7.8 7.8zM-32 233.2l21.2 21.2 6.4-6.4-21.2-21.2-6.4 6.4z" class="st1"/><path d="M-84.3 167.4l21.9 21.9-7.1 7.1-21.9-21.9 7.1-7.1z" class="st2"/><path d="M-69.5 197.1l-22.6-22.6 7.8-7.8 22.6 22.6-7.8 7.8zm-21.2-22.6l21.2 21.2 6.4-6.4-21.2-21.2-6.4 6.4z" class="st1"/><path d="M-26.5 245.2h16c1.1 0 2 .9 2 2v16c0 1.1-.9 2-2 2h-16c-1.1 0-2-.9-2-2v-16c0-1.1.9-2 2-2z" class="st3"/><path d="M-14 256.7h-3v3c0 1.1-.9 2-2 2s-2-.9-2-2v-3h-3c-1.1 0-2-.9-2-2s.9-2 2-2h3v-3c0-1.1.9-2 2-2s2 .9 2 2v3h3c1.1 0 2 .9 2 2s-.9 2-2 2z" class="st2"/></svg>