<svg xmlns="http://www.w3.org/2000/svg" width="1141" height="494" preserveAspectRatio="none"><defs><style>.cls-1, .cls-2, .cls-4, .cls-7 { fill: #fff; } .cls-1, .cls-13, .cls-15, .cls-17, .cls-2, .cls-4, .cls-5 { stroke: #bdc3c6; } .cls-1, .cls-13, .cls-17, .cls-4, .cls-5 { stroke-width: 1px; } .cls-2 { stroke-width: 2px; } .cls-12, .cls-3 { fill: #bcc2c5; } .cls-11, .cls-14, .cls-19, .cls-3, .cls-4, .cls-5, .cls-6 { fill-rule: evenodd; } .cls-17, .cls-5 { fill: #f5f8fb; } .cls-6 { fill: #565656; } .cls-14, .cls-8 { fill: #efc75e; } .cls-11, .cls-9 { fill: #bdc3c6; } .cls-10 { fill: #16b0c5; } .cls-13 { fill: #ebf1f7; } .cls-15 { stroke-width: 4px; fill: none; } .cls-16 { fill: #de554b; } .cls-18 { fill: #0ac5ab; } .cls-19 { fill: #d7dcde; }</style></defs><path d="M.5 460.5h1140v33H.5z" class="cls-1"/><circle cx="968.5" cy="54.5" r="49" class="cls-2"/><circle cx="968.845" cy="54.845" r="40.125" class="cls-1"/><path d="M967.5 24c.28 0 .5.22.5.5v28c0 .28-.22.5-.5.5s-.5-.22-.5-.5v-28c0-.28.22-.5.5-.5zM967.5 53h31c.28 0 .5.22.5.5s-.22.5-.5.5h-31c-.28 0-.5-.22-.5-.5s.22-.5.5-.5z" class="cls-3"/><path d="M537.5 380.5h66v81h-66z" class="cls-1"/><path d="M295.5 331.5h550v46c0 2.2-1.8 4-4 4h-542c-2.2 0-4-1.8-4-4v-46zM299.5.5h542c2.2 0 4 1.8 4 4v328h-550V4.5c0-2.2 1.8-4 4-4z" class="cls-4"/><path d="M310.5 16.5h520v300h-520z" class="cls-1"/><path d="M341.5 50.5h282v230c0 1.1-.9 2-2 2h-278c-1.1 0-2-.9-2-2v-230z" class="cls-5"/><path d="M343 36h278c1.1 0 2 .9 2 2v15H341V38c0-1.1.9-2 2-2z" class="cls-6"/><ellipse cx="352" cy="44.28" rx="3.312" ry="3.31" class="cls-7"/><ellipse cx="361.938" cy="44.28" rx="3.313" ry="3.31" class="cls-7"/><ellipse cx="371.875" cy="44.28" rx="3.313" ry="3.31" class="cls-7"/><rect width="30" height="30" x="378.5" y="87.5" rx="2" ry="2" class="cls-8"/><rect width="48" height="3" x="414.5" y="91.5" rx="1" ry="1" class="cls-8"/><rect width="81" height="3" x="414.5" y="100.5" rx="1" ry="1" class="cls-9"/><rect width="81" height="3" x="414.5" y="109.5" rx="1" ry="1" class="cls-9"/><rect width="30" height="30" x="378.5" y="130.5" rx="2" ry="2" class="cls-9"/><rect width="48" height="3" x="414.5" y="134.5" rx="1" ry="1" class="cls-9"/><rect width="81" height="3" x="414.5" y="143.5" rx="1" ry="1" class="cls-9"/><rect width="81" height="3" x="414.5" y="152.5" rx="1" ry="1" class="cls-9"/><rect width="30" height="30" x="378.5" y="173.5" rx="2" ry="2" class="cls-9"/><rect width="48" height="3" x="414.5" y="177.5" rx="1" ry="1" class="cls-9"/><rect width="81" height="3" x="414.5" y="186.5" rx="1" ry="1" class="cls-9"/><rect width="81" height="3" x="414.5" y="195.5" rx="1" ry="1" class="cls-9"/><rect width="30" height="30" x="378.5" y="216.5" rx="2" ry="2" class="cls-9"/><rect width="48" height="3" x="414.5" y="220.5" rx="1" ry="1" class="cls-9"/><rect width="81" height="3" x="414.5" y="229.5" rx="1" ry="1" class="cls-9"/><rect width="81" height="3" x="414.5" y="238.5" rx="1" ry="1" class="cls-9"/><path d="M514.5 90.5h280v164c0 1.1-.9 2-2 2h-276c-1.1 0-2-.9-2-2v-164z" class="cls-4"/><path d="M516 75h276c1.1 0 2 .9 2 2v15H514V77c0-1.1.9-2 2-2z" class="cls-6"/><circle cx="524" cy="84" r="3.5" class="cls-7"/><circle cx="534" cy="84" r="3.5" class="cls-7"/><circle cx="544" cy="84" r="3.5" class="cls-7"/><path d="M654.5 161.5h54v29h-54z" class="cls-8"/><path d="M550.5 191.5h50v29h-50z" class="cls-10"/><path d="M550 133v-1h209v1H550zM550 162v-1h209v1H550zM550 191v-1h209v1H550zM550 220v-1h209v1H550z" class="cls-11"/><path d="M600 133h1v86h-1v-86zM653 133h1v86h-1v-86zM708 133h1v86h-1v-86zM758 133h1v86h-1v-86zM550 133h1v86h-1v-86z" class="cls-3"/><rect width="30" height="3" x="561.5" y="122.5" rx="1" ry="1" class="cls-12"/><rect width="30" height="3" x="612.5" y="122.5" rx="1" ry="1" class="cls-12"/><rect width="30" height="3" x="666.5" y="122.5" rx="1" ry="1" class="cls-12"/><rect width="30" height="3" x="719.5" y="122.5" rx="1" ry="1" class="cls-12"/><rect width="50" height="186" x="877.5" y="275.5" rx="4" ry="4" class="cls-1"/><path d="M878.5 323.5h48v15h-48z" class="cls-10"/><path d="M878 323v-1h48v1h-48zM878 339v-1h48v1h-48z" class="cls-11"/><circle cx="902.5" cy="429.5" r="12" class="cls-1"/><rect width="50" height="186" x="926.5" y="275.5" rx="4" ry="4" class="cls-13"/><path d="M927.5 323.5h48v15h-48z" class="cls-7"/><path d="M927 323v-1h48v1h-48zM927 339v-1h48v1h-48z" class="cls-11"/><circle cx="951.5" cy="429.5" r="12" class="cls-1"/><path d="M968.97 276.52l41.72-4.82c2.18-.25 4.17 1.32 4.42 3.52l20.43 176.82c.25 2.2-1.32 4.18-3.52 4.44l-41.72 4.8c-2.18.27-4.17-1.3-4.42-3.5l-20.43-176.82c-.25-2.2 1.32-4.18 3.52-4.44z" class="cls-4"/><path d="M971 324.05l47.68-5.5 1.72 14.9-47.68 5.5-1.73-14.9z" class="cls-14"/><path d="M971 324.04l-.1-.98 47.67-5.5.1.98-47.67 5.5zM972.84 339.95l-.12-1 47.68-5.5.12 1-47.68 5.5z" class="cls-11"/><circle cx="1007.5" cy="427.105" r="12" class="cls-1"/><circle cx="790.5" cy="437.5" r="13" class="cls-15"/><rect width="50" height="50" x="740.5" y="411.5" rx="2" ry="2" class="cls-1"/><path d="M146.04 161.16l4.4 4.96-102.7 91.16-4.4-4.96 102.7-91.16zM40.68 255.65l6.4-1.7 49.7 188.98-6.4 1.7-49.7-188.98z" class="cls-4"/><circle cx="48" cy="258" r="13.5" class="cls-1"/><path d="M209.6 234.7c-11.2 6.6-25.52 2.7-32-8.73-.25-.46-.47-.94-.7-1.42l40.42-23.8c.3.44.6.88.85 1.34 6.47 11.4 2.63 26.02-8.57 32.6zM127.2 147.52l40.1-26.5L202 173.6l-40.1 26.5-34.7-52.56zM253.46 187.25c.67 1.16 1.27 2.33 1.85 3.5l-102.48 59.27c-.73-1.1-1.44-2.2-2.1-3.36-16.4-28.4-6.67-64.75 21.7-81.15 28.38-16.4 64.66-6.66 81.04 21.75zM82.5 431.5h16c6.63 0 12 5.37 12 12v13h-40v-13c0-6.63 5.37-12 12-12z" class="cls-4"/><path d="M50.5 455.5h83v6h-83z" class="cls-1"/><path d="M144.5 280.5h270c3.3 0 6 2.7 6 6v162h-282v-162c0-3.3 2.7-6 6-6zM148.5 294.5h261c1.1 0 2 .9 2 2v144h-265v-144c0-1.1.9-2 2-2z" class="cls-4"/><circle cx="280.766" cy="288.28" r="3.328" class="cls-16"/><path d="M121.5 446.5h315v9c0 3.3-2.7 6-6 6h-303c-3.3 0-6-2.7-6-6v-9z" class="cls-4"/><rect width="132" height="106" x="159.5" y="316.5" rx="4" ry="4" class="cls-17"/><path d="M269.06 427.85c-.14-.82-.3-1.64-.44-2.46-1.74-9.36-4.57-24.22-15.4-32.26.8-5.23 1.2-13.37 1.2-25.47 0-19.32-12.68-34.96-28.32-34.96-10.66 0-17.44 7.48-17.44 7.48-6.6 6.4-10.88 16.32-10.88 27.53 0 12.07.43 20.22 1.2 25.43-10.88 7.96-13.66 22.94-15.4 32.3-.15.8-.3 1.63-.44 2.45-.74 4.32 2.2 8.42 6.58 9.15.45.07.9.1 1.35.1h28.1l41.96-.02c.45 0 .9-.03 1.35-.1 4.38-.74 7.32-4.83 6.58-9.15zM226.1 409.7l-14.92-7.5 7.74-12.07c2.1 1.05 4.87 1.66 7.18 1.66 2.32 0 5.04-.63 7.15-1.7l7.72 12.1-14.86 7.5zm0-23.13c-14.2 0-20.33-19-19.1-24.94 15.6-13.42 29.45-12.5 29.45-12.5s2.48 7.62 8.86 16.8c-1.1 9.05-10.4 20.63-19.2 20.63z" class="cls-4"/><rect width="94" height="88" x="304.5" y="316.5" rx="4" ry="4" class="cls-1"/><rect width="94" height="10" x="304.5" y="412.5" rx="3" ry="3" class="cls-1"/><rect width="22" height="10" x="376.5" y="412.5" rx="3" ry="3" class="cls-18"/><path d="M314 324h11c.55 0 1 .45 1 1s-.45 1-1 1h-11c-.55 0-1-.45-1-1s.45-1 1-1z" class="cls-3"/><path d="M334 324h28c.55 0 1 .45 1 1s-.45 1-1 1h-28c-.55 0-1-.45-1-1s.45-1 1-1z" class="cls-19"/><path d="M314 330h11c.55 0 1 .45 1 1s-.45 1-1 1h-11c-.55 0-1-.45-1-1s.45-1 1-1z" class="cls-3"/><path d="M334 330h44c.55 0 1 .45 1 1s-.45 1-1 1h-44c-.55 0-1-.45-1-1s.45-1 1-1z" class="cls-14"/><path d="M314 336h11c.55 0 1 .45 1 1s-.45 1-1 1h-11c-.55 0-1-.45-1-1s.45-1 1-1z" class="cls-3"/><path d="M334 336h18c.55 0 1 .45 1 1s-.45 1-1 1h-18c-.55 0-1-.45-1-1s.45-1 1-1z" class="cls-19"/></svg>