<svg xmlns="http://www.w3.org/2000/svg" width="141.5" height="120.2" viewBox="378 43.2 141.5 120.2" enable-background="new 378 43.2 141.5 120.2" preserveAspectRatio="none"><style type="text/css">.st0{fill:#F5F8FB;} .st1{fill:#BDC3C6;} .st2{fill:#FFFFFF;} .st3{fill:#0AC5AB;}</style><path d="M428.1 130.7l38.6 28.9V81l.1-.1-38.7-29z" class="st0"/><path d="M467.2 80.6l.4-.3-39.5-29.6v.6zM428.1 131.3v.2l-.3.2 38.9 29.2v-.7zM466.8 80.9l.4-.3-39.1-29.3v.6zM428.1 130.7v.6l38.6 28.9v-.6z" class="st1"/><path d="M388.6 160.2l38.4-29.1V52.3l-38.4 29.2zM427.1 131V52.3h-.1v78.8z" class="st2"/><path d="M388.1 161.2v-80L427 51.7v-.6L387.6 81v81.2l40.2-30.5-.4-.3zM428 51.8v78.8l.1.1V51.9zM427.5 51.3v-.5l.6.5v-.6l-.3-.2-.8.6v.6zM428.1 131.3l-.5-.4v.3l-.2.2.4.3.3-.2zM428 130.6V51.8l.1.1v-.6l-.6-.5v.5l.1-.1v79.7l.5.4v-.6zM427 131.1l-38.4 29.1V81.5L427 52.3v-.6l-38.9 29.5v80l39.3-29.8-.4-.3zM427.5 51.3l-.5.4v.6h.1V131l-.1.1.4.3.2-.2v-.3l-.1-.1zM427.5 51.3v79.5l.1.1V51.2z" class="st1"/><path d="M506.4 52.2L468 81.3V160l38.4-29zM467.7 81.5v78.7l.3-.2V81.3z" class="st2"/><path d="M507.4 50.2l-39.8 30.1.4.3 38.9-29.4v80L468 160.7v.6l39.4-29.8zM466.7 159.6l.3.2V81.1l-.2-.2-.1.1zM467.5 80.8v.2l.5-.4-.4-.3-.4.3zM467.2 161.2v-.6l-.5-.4v.7l.9.7.4-.3v-.6zM467.5 81v-.2l-.3-.2-.4.3.2.2v78.7l-.3-.2v.6l.5.4V81.2zM506.4 52.2V131L468 160v.7l38.9-29.5v-80L468 80.6v.7zM467.5 160.8l-.3-.2v.6l.8-.5v-.7l-.3.2V81.5l.3-.2v-.7l-.5.4zM467.5 81l-.3.2v79.4l.3.2zM410 156.7c-.6 0-1-.4-1-1v-98c0-.6.4-1 1-1s1 .4 1 1v98c0 .6-.4 1-1 1zM490 156.7c-.6 0-1-.4-1-1v-53c0-.6.4-1 1-1s1 .4 1 1v53c0 .6-.4 1-1 1zM379.6 143.5l-1.2-1.6 6.4-4.8 1.2 1.6-6.4 4.8zM468 137l-3.3-2.5 1.2-1.6 2.1 1.6 3.1-2.3 1.2 1.6-4.3 3.2zm-78.8-.6l-1.2-1.6 6.4-4.8 1.2 1.6-6.4 4.8zm72.3-4.4l-6.3-4.9 1.2-1.6 6.3 4.9-1.2 1.6zm14-.6l-1.2-1.6 6.4-4.8 1.2 1.6-6.4 4.8zm-76.6-2.2l-1.2-1.6 6.4-4.8 1.2 1.6-6.4 4.8zm53.1-4.5l-6.3-4.9 1.2-1.6 6.3 4.9-1.2 1.6zm33.1-.4l-1.2-1.6 6.4-4.8 1.2 1.6-6.4 4.8zm-76.6-2.2l-1.2-1.6 6.4-4.8 1.2 1.6-6.4 4.8zm34-4.8l-6.3-4.9 1.2-1.6 6.3 4.9-1.2 1.6zm52.3-.2l-1.2-1.6 6.4-4.8 1.2 1.6-6.4 4.8zm-76.6-2.1l-1.2-1.6 6.4-4.8 1.2 1.6-6.4 4.8zm14.8-5l-4-3.1-1.2.9-1.2-1.6 2.4-1.8 5.2 4-1.2 1.6zm71.4 0l-1.2-1.6 6.4-4.8 1.2 1.6-6.4 4.8zm9.7-7.2l-1.2-1.6 4.5-3.3 1.2 1.6-4.5 3.3z" class="st1"/><circle cx="489.8" cy="103.2" r="6" class="st3"/><path d="M509 59.6c-.2-.8-.6-1.6-.9-2.4-3.7-9.1-11.8-12.3-18.4-12.3-8.8 0-18.4 6-19.7 18.3v2.5c0 .1 0 1 .1 1.5.7 5.9 5.3 12.1 8.7 18 3.7 6.3 7.5 12.5 11.2 18.7 2.3-4 4.6-8.1 6.9-12.1.6-1.2 1.3-2.3 2-3.4.4-.7 1.2-1.5 1.6-2.1 3.7-6.8 9.6-13.7 9.6-20.5V63c-.1-.7-1-3.3-1.1-3.4zm-19.2 12.6c-2.6 0-5.4-1.3-6.8-4.9-.2-.6-.2-1.7-.2-1.8v-1.6c0-4.6 3.9-6.7 7.2-6.7 4.1 0 7.3 3.4 7.3 7.6.1 4-3.3 7.4-7.5 7.4z" class="st0"/><path d="M490 104.8l-2.1-3.4c-3.2-5.2-6.5-10.6-9.6-16-.7-1.2-1.4-2.4-2.2-3.6-2.9-4.8-6-9.8-6.6-14.5-.1-.5-.1-1.5-.1-1.6v-2.5c1.4-12.9 11.4-18.8 20.2-18.8 6.6 0 15 3.3 18.9 12.6.1.2.2.4.2.5.3.6.6 1.2.7 1.9 1 2.8 1 3.4 1 3.6v2.8c0 5.1-3.2 10.2-6.3 15.1-1.1 1.8-2.3 3.7-3.3 5.6-.2.4-.5.8-.8 1.1-.3.3-.6.7-.7 1-.3.5-.5.9-.8 1.4-.4.7-.8 1.3-1.2 2-1.2 2.2-2.5 4.3-3.7 6.5-1.1 1.8-2.1 3.7-3.2 5.5l-.4.8zm-.3-59.4c-8.4 0-17.9 5.6-19.2 17.9v2.5c0 .1 0 1 .1 1.5.6 4.6 3.5 9.4 6.4 14.1.8 1.2 1.5 2.4 2.2 3.6 3.1 5.4 6.4 10.8 9.6 16l1.2 1.9c.9-1.6 1.8-3.2 2.7-4.8 1.3-2.2 2.5-4.4 3.7-6.5.4-.7.8-1.4 1.2-2 .3-.5.5-.9.8-1.4.2-.4.5-.8.8-1.1.3-.4.6-.7.7-1 1-1.9 2.2-3.8 3.4-5.6 3-4.8 6.1-9.8 6.1-14.6V63c0-.1-.1-.8-.9-3.2v-.1c-.2-.6-.4-1.2-.7-1.8-.1-.2-.2-.4-.2-.6-3.6-8.8-11.6-11.9-17.9-11.9zm.1 27.3c-1.6 0-5.4-.5-7.3-5.3-.2-.5-.2-1.4-.2-2v-1.6c0-4.7 3.9-7.2 7.7-7.2 4.4 0 7.8 3.5 7.8 8.1.1 4.4-3.5 8-8 8zm.3-15.1c-3.3 0-6.7 2.1-6.7 6.2v1.6c0 .8.1 1.4.2 1.7 1.6 4.2 5 4.6 6.3 4.6 3.9 0 7-3.2 7-7.1 0-3.9-3-7-6.8-7z" class="st1"/></svg>