<svg xmlns="http://www.w3.org/2000/svg" width="114" height="118" preserveAspectRatio="none"><defs><style>.cls-1, .cls-8 { fill: #bdc3c6; } .cls-1, .cls-2, .cls-3 { stroke: #bdc3c6; } .cls-1, .cls-2, .cls-3, .cls-8 { stroke-width: 1px; } .cls-1, .cls-2, .cls-3, .cls-6, .cls-8 { fill-rule: evenodd; } .cls-2 { fill: #f5f8fb; } .cls-3, .cls-4, .cls-6, .cls-7 { fill: #fff; } .cls-5 { fill: #0ac5ab; } .cls-7 { opacity: 0.5; } .cls-8 { stroke: #fff; }</style></defs><path d="M6.5 5.5h61c1.1 0 2 .9 2 2v3h-65v-3c0-1.1.9-2 2-2z" class="cls-1"/><path d="M4.5 10.5h65v81c0 1.1-.9 2-2 2h-61c-1.1 0-2-.9-2-2v-81z" class="cls-2"/><path d="M71.7 100c-.1-.63-.22-1.26-.34-1.9-1.35-7.25-3.57-18.78-12.03-25 .62-4.07.94-10.38.94-19.77 0-15-9.9-27.12-22.12-27.12-8.33 0-13.63 5.8-13.63 5.8-5.16 4.97-8.5 12.67-8.5 21.36 0 9.36.34 15.67.95 19.72-8.5 6.17-10.68 17.8-12.04 25.05-.12.63-.23 1.26-.34 1.9-.6 3.35 1.7 6.53 5.12 7.1.36.06.7.08 1.06.08H65.5c.36 0 .72-.04 1.07-.1 3.42-.57 5.72-3.74 5.14-7.1zM38.16 85.94L26.5 80.1l6.04-9.35c1.64.82 3.8 1.28 5.6 1.28 1.82 0 3.95-.47 5.6-1.3l6.03 9.38-11.62 5.83zm0-17.95c-11.1 0-15.9-14.73-14.93-19.33 12.2-10.4 23-9.7 23-9.7s1.95 5.9 6.93 13.03c-.87 7.02-8.12 16-15 16z" class="cls-3"/><circle cx="8" cy="8.5" r="2" class="cls-4"/><circle cx="14" cy="8.5" r="2" class="cls-4"/><path d="M27.5.5h61c1.1 0 2 .9 2 2v3h-65v-3c0-1.1.9-2 2-2z" class="cls-1"/><path d="M25.5 5.5h65v81c0 1.1-.9 2-2 2h-61c-1.1 0-2-.9-2-2v-81z" class="cls-2"/><path d="M92.4 94.86c-.1-.63-.2-1.27-.33-1.9-1.36-7.25-3.57-18.78-12.04-25.02.63-4.05.95-10.37.95-19.75 0-15-9.9-27.13-22.13-27.13-8.33 0-13.62 5.8-13.62 5.8-5.16 4.96-8.5 12.65-8.5 21.35 0 9.36.33 15.67.94 19.7C29.17 74.13 27 85.73 25.64 93c-.12.64-.24 1.27-.35 1.9-.6 3.36 1.7 6.53 5.13 7.1.36.06.7.1 1.06.1h21.95v-.02h32.77c.35 0 .7-.04 1.06-.1 3.4-.57 5.7-3.75 5.13-7.1zM58.87 80.8L47.2 74.95l6.04-9.35c1.64.83 3.8 1.3 5.6 1.3 1.83 0 3.95-.48 5.6-1.3l6.03 9.36-11.6 5.83zm0-17.96c-11.1 0-15.9-14.73-14.94-19.34 12.2-10.4 23.02-9.7 23.02-9.7s1.94 5.9 6.92 13.03c-.88 7.02-8.13 16-15 16z" class="cls-3"/><circle cx="29" cy="3.5" r="2" class="cls-4"/><circle cx="35" cy="3.5" r="2" class="cls-4"/><path d="M14.5 16.5h61c1.1 0 2 .9 2 2v3h-65v-3c0-1.1.9-2 2-2z" class="cls-1"/><path d="M12.5 21.5h65v80c0 1.1-.9 2-2 2h-61c-1.1 0-2-.9-2-2v-80z" class="cls-2"/><path d="M79.47 110.3c-.1-.64-.22-1.28-.34-1.9-1.36-7.27-3.57-18.8-12.04-25.03.62-4.06.94-10.37.94-19.76 0-14.97-9.9-27.1-22.13-27.1-8.32 0-13.6 5.8-13.6 5.8-5.17 4.96-8.5 12.65-8.5 21.34 0 9.36.32 15.68.93 19.72-8.5 6.17-10.68 17.8-12.04 25.05-.12.65-.24 1.28-.35 1.9-.58 3.37 1.72 6.54 5.14 7.1.34.07.7.1 1.05.1H40.5l32.78-.02c.35 0 .7-.03 1.05-.1 3.42-.56 5.72-3.74 5.14-7.1zM45.92 96.2L34.25 90.4l6.05-9.37c1.64.82 3.8 1.3 5.6 1.3 1.83 0 3.95-.48 5.6-1.3l6.03 9.36-11.6 5.82zm0-17.95c-11.1 0-15.9-14.73-14.94-19.34 12.2-10.4 23.02-9.7 23.02-9.7s1.93 5.9 6.92 13.03c-.88 7.02-8.13 16-15 16z" class="cls-3"/><circle cx="16" cy="19.5" r="2" class="cls-4"/><circle cx="22" cy="19.5" r="2" class="cls-4"/><rect width="20" height="20" y="91.5" rx="2" ry="2" class="cls-5"/><path d="M10 104.04l3.1 1.96-.83-3.7L15 99.8l-3.6-.3L10 96l-1.4 3.5-3.6.3 2.73 2.5-.82 3.7 3.1-1.96z" class="cls-6"/><circle cx="71" cy="61.5" r="17" class="cls-7"/><path d="M112.36 95.67l-16.4-17.43c-.8-.86-1.9-1.3-3.1-1.2-1.14.07-2.23.6-3.08 1.5l-.38.42-4.5-4.77c2.8-3.38 4.5-7.8 4.5-12.62 0-10.52-8.06-19.08-17.96-19.08S53.5 51.06 53.5 61.58c0 10.52 8.05 19.08 17.94 19.08 4.45 0 8.52-1.72 11.66-4.58l4.5 4.8-.4.4c-1.78 1.9-1.9 4.85-.28 6.58 0 0 16.45 17.5 16.5 17.52.74.75 1.7 1.12 2.7 1.12 1.2 0 2.42-.5 3.37-1.52l2.57-2.74c.84-.9 1.35-2.05 1.42-3.26.07-1.28-.33-2.45-1.14-3.3zm-40.92-17.7c-8.5 0-15.4-7.36-15.4-16.4 0-9.02 6.9-16.37 15.4-16.37s15.4 7.35 15.4 16.38-6.9 16.38-15.4 16.38zm30.9 22.47L88.7 85.94c.02 0 .02 0 .02 0-.64-.66-.5-1.9.3-2.75l2.56-2.74c.4-.44.92-.7 1.44-.73.46-.03.87.1 1.15.42l13.63 14.48-5.46 5.8zm8.62-1.64c-.04.56-.28 1.1-.7 1.53l-2.56 2.74c-.8.85-1.96 1-2.6.3l-.96-1.02 5.45-5.8.96 1.03c.3.3.43.73.4 1.22z" class="cls-8"/></svg>