<svg xmlns="http://www.w3.org/2000/svg" width="459" height="266.5" preserveAspectRatio="none"><style type="text/css">.st0{fill:none;} .st1{fill:#FFFFFF;} .st2{fill:#BDC3C6;} .st3{fill:#F5F8FB;} .st4{fill:#565656;} .st5{fill:#EFC75E;} .st6{fill:#16B0C5;} .st7{fill:#BCC2C5;}</style><path d="M84 249.8c-.2.3-.4.5-.7.7h1.4c-.3-.2-.5-.4-.7-.7z" class="st0"/><path d="M101.5 251.5H1v14h457v-14H216z" class="st1"/><path d="M244 250.5v1h214v14H1v-14h19v-1H0v16h459v-16zM54 251.5h12.5c-1.1 0-2-.4-2.8-1H54v1zM101.5 251.5H216v-1H104.3c-.8.6-1.7 1-2.8 1zM84.7 250.5h-1.4c-.8.6-1.7 1-2.8 1h7c-1.1 0-2-.4-2.8-1z" class="st2"/><path d="M217 221.5h26v29h-26z" class="st1"/><path d="M216 251.5h28v-30h-1v29h-26v-29h-1v29z" class="st2"/><path d="M120 217c0 1.9 1.6 3.5 3.5 3.5h211c1.9 0 3.5-1.6 3.5-3.5v-15.5H120V217z" class="st1"/><path d="M217 221.5h117.5c2.5 0 4.5-2 4.5-4.5v-15.5h-1V217c0 1.9-1.6 3.5-3.5 3.5h-211c-1.9 0-3.5-1.6-3.5-3.5v-15.5h-1V217c0 2.5 2 4.5 4.5 4.5H217z" class="st2"/><path d="M120 200.5h218V71c0-1.9-1.6-3.5-3.5-3.5h-211c-1.9 0-3.5 1.6-3.5 3.5v129.5zm4-126h210v121H124v-121z" class="st1"/><path d="M120 201.5h219V71c0-2.5-2-4.5-4.5-4.5h-211c-2.5 0-4.5 2-4.5 4.5v130.5h1zm3.5-134h211c1.9 0 3.5 1.6 3.5 3.5v129.5H120V71c0-1.9 1.6-3.5 3.5-3.5z" class="st2"/><path d="M125 194.5h208v-119H125v119zm13-106h.5V85c0-1.1.9-2 2-2h109c1.1 0 2 .9 2 2v3.5h.5V99h66.5c1.1 0 2 .9 2 2v3.5h.5V173c0 1.4-1.1 2.5-2.5 2.5H252v1.5c0 1.4-1.1 2.5-2.5 2.5h-109c-1.4 0-2.5-1.1-2.5-2.5V88.5z" class="st1"/><path d="M334 74.5H124v121h210v-121zm-1 120H125v-119h208v119z" class="st2"/><path d="M207 173v-68.5h.5V101c0-1.1.9-2 2-2H251v-9H139v87c0 .8.7 1.5 1.5 1.5h109c.8 0 1.5-.7 1.5-1.5v-1.5h-41.5c-1.4 0-2.5-1.1-2.5-2.5zm-39-69h20c.3 0 .5.2.5.5s-.2.5-.5.5h-20c-.3 0-.5-.2-.5-.5s.2-.5.5-.5zm-2.5 52c0 1.1-.9 2-2 2h-7c-1.1 0-2-.9-2-2v-7c0-1.1.9-2 2-2h7c1.1 0 2 .9 2 2v7zm0-15c0 1.1-.9 2-2 2h-7c-1.1 0-2-.9-2-2v-7c0-1.1.9-2 2-2h7c1.1 0 2 .9 2 2v7zm0-15c0 1.1-.9 2-2 2h-7c-1.1 0-2-.9-2-2v-7c0-1.1.9-2 2-2h7c1.1 0 2 .9 2 2v7zm0-15c0 1.1-.9 2-2 2h-7c-1.1 0-2-.9-2-2v-7c0-1.1.9-2 2-2h7c1.1 0 2 .9 2 2v7zm34.5 45h-32c-.3 0-.5-.2-.5-.5s.2-.5.5-.5h32c.3 0 .5.2.5.5s-.2.5-.5.5zm0-3h-32c-.3 0-.5-.2-.5-.5s.2-.5.5-.5h32c.3 0 .5.2.5.5s-.2.5-.5.5zm-32.5-3.5c0-.3.2-.5.5-.5h20c.3 0 .5.2.5.5s-.2.5-.5.5h-20c-.3 0-.5-.2-.5-.5zM200 141h-32c-.3 0-.5-.2-.5-.5s.2-.5.5-.5h32c.3 0 .5.2.5.5s-.2.5-.5.5zm0-3h-32c-.3 0-.5-.2-.5-.5s.2-.5.5-.5h32c.3 0 .5.2.5.5s-.2.5-.5.5zm-32.5-3.5c0-.3.2-.5.5-.5h20c.3 0 .5.2.5.5s-.2.5-.5.5h-20c-.3 0-.5-.2-.5-.5zM200 126h-32c-.3 0-.5-.2-.5-.5s.2-.5.5-.5h32c.3 0 .5.2.5.5s-.2.5-.5.5zm0-3h-32c-.3 0-.5-.2-.5-.5s.2-.5.5-.5h32c.3 0 .5.2.5.5s-.2.5-.5.5zm-32.5-3.5c0-.3.2-.5.5-.5h20c.3 0 .5.2.5.5s-.2.5-.5.5h-20c-.3 0-.5-.2-.5-.5zM200 111h-32c-.3 0-.5-.2-.5-.5s.2-.5.5-.5h32c.3 0 .5.2.5.5s-.2.5-.5.5zm0-3h-32c-.3 0-.5-.2-.5-.5s.2-.5.5-.5h32c.3 0 .5.2.5.5s-.2.5-.5.5z" class="st3"/><path d="M140.5 179.5h109c1.4 0 2.5-1.1 2.5-2.5v-1.5h-1v1.5c0 .8-.7 1.5-1.5 1.5h-109c-.8 0-1.5-.7-1.5-1.5V90h-.5v-1.5h-.5V177c0 1.4 1.1 2.5 2.5 2.5zM251.5 90h-.5v9h1V88.5h-.5v.5z" class="st2"/><path d="M138.5 90h113v-5c0-1.1-.9-2-2-2h-109c-1.1 0-2 .9-2 2v5zm14.5-5c.8 0 1.5.7 1.5 1.5s-.7 1.5-1.5 1.5-1.5-.7-1.5-1.5.7-1.5 1.5-1.5zm-5 0c.8 0 1.5.7 1.5 1.5s-.7 1.5-1.5 1.5-1.5-.7-1.5-1.5.7-1.5 1.5-1.5zm-5 0c.8 0 1.5.7 1.5 1.5s-.7 1.5-1.5 1.5-1.5-.7-1.5-1.5.7-1.5 1.5-1.5z" class="st4"/><circle cx="143" cy="86.5" r="1.5" class="st1"/><circle cx="148" cy="86.5" r="1.5" class="st1"/><circle cx="153" cy="86.5" r="1.5" class="st1"/><path d="M163.5 102h-7c-1.1 0-2 .9-2 2v7c0 1.1.9 2 2 2h7c1.1 0 2-.9 2-2v-7c0-1.1-.9-2-2-2zM168 105h20c.3 0 .5-.2.5-.5s-.2-.5-.5-.5h-20c-.3 0-.5.2-.5.5s.2.5.5.5z" class="st5"/><path d="M200 107h-32c-.3 0-.5.2-.5.5s.2.5.5.5h32c.3 0 .5-.2.5-.5s-.2-.5-.5-.5zM200 110h-32c-.3 0-.5.2-.5.5s.2.5.5.5h32c.3 0 .5-.2.5-.5s-.2-.5-.5-.5zM163.5 117h-7c-1.1 0-2 .9-2 2v7c0 1.1.9 2 2 2h7c1.1 0 2-.9 2-2v-7c0-1.1-.9-2-2-2zM168 120h20c.3 0 .5-.2.5-.5s-.2-.5-.5-.5h-20c-.3 0-.5.2-.5.5s.2.5.5.5zM200 122h-32c-.3 0-.5.2-.5.5s.2.5.5.5h32c.3 0 .5-.2.5-.5s-.2-.5-.5-.5zM200 125h-32c-.3 0-.5.2-.5.5s.2.5.5.5h32c.3 0 .5-.2.5-.5s-.2-.5-.5-.5zM163.5 132h-7c-1.1 0-2 .9-2 2v7c0 1.1.9 2 2 2h7c1.1 0 2-.9 2-2v-7c0-1.1-.9-2-2-2zM168 135h20c.3 0 .5-.2.5-.5s-.2-.5-.5-.5h-20c-.3 0-.5.2-.5.5s.2.5.5.5zM200 137h-32c-.3 0-.5.2-.5.5s.2.5.5.5h32c.3 0 .5-.2.5-.5s-.2-.5-.5-.5zM200 140h-32c-.3 0-.5.2-.5.5s.2.5.5.5h32c.3 0 .5-.2.5-.5s-.2-.5-.5-.5zM163.5 147h-7c-1.1 0-2 .9-2 2v7c0 1.1.9 2 2 2h7c1.1 0 2-.9 2-2v-7c0-1.1-.9-2-2-2zM168 150h20c.3 0 .5-.2.5-.5s-.2-.5-.5-.5h-20c-.3 0-.5.2-.5.5s.2.5.5.5zM200 152h-32c-.3 0-.5.2-.5.5s.2.5.5.5h32c.3 0 .5-.2.5-.5s-.2-.5-.5-.5zM200 155h-32c-.3 0-.5.2-.5.5s.2.5.5.5h32c.3 0 .5-.2.5-.5s-.2-.5-.5-.5z" class="st2"/><path d="M209.5 174.5h109c.8 0 1.5-.7 1.5-1.5v-67H208v67c0 .8.7 1.5 1.5 1.5z" class="st1"/><path d="M320.5 106h-.5v67c0 .8-.7 1.5-1.5 1.5h-109c-.8 0-1.5-.7-1.5-1.5v-67h-.5v-1.5h-.5V173c0 1.4 1.1 2.5 2.5 2.5h109c1.4 0 2.5-1.1 2.5-2.5v-68.5h-.5v1.5z" class="st2"/><path d="M251 99h-41.5c-1.1 0-2 .9-2 2v5h113v-5c0-1.1-.9-2-2-2H251zm-29 2c.8 0 1.5.7 1.5 1.5s-.7 1.5-1.5 1.5-1.5-.7-1.5-1.5.7-1.5 1.5-1.5zm-5 0c.8 0 1.5.7 1.5 1.5s-.7 1.5-1.5 1.5-1.5-.7-1.5-1.5.7-1.5 1.5-1.5zm-5 0c.8 0 1.5.7 1.5 1.5s-.7 1.5-1.5 1.5-1.5-.7-1.5-1.5.7-1.5 1.5-1.5z" class="st4"/><circle cx="212" cy="102.5" r="1.5" class="st1"/><circle cx="217" cy="102.5" r="1.5" class="st1"/><circle cx="222" cy="102.5" r="1.5" class="st1"/><path d="M83 203H63v44c0 1.9 1.6 3.5 3.5 3.5h14c1.2 0 2.3-.6 2.9-1.6-.3-.6-.4-1.2-.4-1.9v-44zm-9.5 41.5c-3 0-5.5-2.5-5.5-5.5s2.5-5.5 5.5-5.5S79 236 79 239s-2.5 5.5-5.5 5.5zM83 181c0-.7.2-1.3.4-1.9-.6-1-1.7-1.6-2.9-1.6h-14c-1.9 0-3.5 1.6-3.5 3.5v14h20v-14z" class="st1"/><path d="M66.5 251.5h14c1.1 0 2-.4 2.8-1 .3-.2.5-.4.7-.7-.2-.3-.4-.6-.6-.9-.6 1-1.7 1.6-2.9 1.6h-14c-1.9 0-3.5-1.6-3.5-3.5v-66c0-1.9 1.6-3.5 3.5-3.5h14c1.2 0 2.3.6 2.9 1.6.2-.3.3-.6.6-.9-.8-1-2.1-1.7-3.5-1.7h-14c-2.5 0-4.5 2-4.5 4.5v66c0 1.4.7 2.7 1.7 3.5.8.6 1.7 1 2.8 1z" class="st2"/><path d="M83 202v-6H63v6z" class="st6"/><path d="M83 195H63v1h20zM83 202H63v1h20z" class="st2"/><path d="M73.5 234.5c-2.5 0-4.5 2-4.5 4.5s2 4.5 4.5 4.5 4.5-2 4.5-4.5-2-4.5-4.5-4.5z" class="st1"/><path d="M73.5 233.5c-3 0-5.5 2.5-5.5 5.5s2.5 5.5 5.5 5.5S79 242 79 239s-2.5-5.5-5.5-5.5zm0 10c-2.5 0-4.5-2-4.5-4.5s2-4.5 4.5-4.5 4.5 2 4.5 4.5-2 4.5-4.5 4.5z" class="st2"/><path d="M84.5 203H84v44c0 1.9 1.6 3.5 3.5 3.5h14c1.9 0 3.5-1.6 3.5-3.5v-44H84.5zm10 30.5c3 0 5.5 2.5 5.5 5.5s-2.5 5.5-5.5 5.5S89 242 89 239s2.5-5.5 5.5-5.5zM84.5 196H84h21zM105 195v-14c0-1.9-1.6-3.5-3.5-3.5h-14c-1.9 0-3.5 1.6-3.5 3.5v14h21z" class="st1"/><path d="M83.4 179.1c-.3.6-.4 1.2-.4 1.9v66c0 .7.2 1.3.4 1.9.2.3.3.6.6.9.2.3.4.5.7.7.8.6 1.7 1 2.8 1h14c1.1 0 2-.4 2.8-1 1-.8 1.7-2.1 1.7-3.5v-66c0-2.5-2-4.5-4.5-4.5h-14c-1.4 0-2.7.7-3.5 1.7-.2.3-.4.6-.6.9zm22.1 16.9h-.5v6h.5v1h-.5v44c0 1.9-1.6 3.5-3.5 3.5h-14c-1.9 0-3.5-1.6-3.5-3.5v-66c0-1.9 1.6-3.5 3.5-3.5h14c1.9 0 3.5 1.6 3.5 3.5v14h.5v1z" class="st2"/><path d="M84 196v6h21v-6z" class="st5"/><path d="M84.5 195H84v1h21.5v-1h-.5zM84.5 202H84v1h21.5v-1h-.5z" class="st2"/><path d="M94.5 243.5c2.5 0 4.5-2 4.5-4.5s-2-4.5-4.5-4.5-4.5 2-4.5 4.5 2 4.5 4.5 4.5z" class="st1"/><path d="M94.5 244.5c3 0 5.5-2.5 5.5-5.5s-2.5-5.5-5.5-5.5S89 236 89 239s2.5 5.5 5.5 5.5zm0-10c2.5 0 4.5 2 4.5 4.5s-2 4.5-4.5 4.5-4.5-2-4.5-4.5 2-4.5 4.5-4.5z" class="st2"/><path d="M42.5 58c15.4 0 28-12.6 28-28S57.9 2 42.5 2s-28 12.6-28 28 12.6 28 28 28zm0-50.5C54.9 7.5 65 17.6 65 30S54.9 52.5 42.5 52.5 20 42.4 20 30 30.1 7.5 42.5 7.5z" class="st1"/><path d="M42.5 60c16.5 0 30-13.5 30-30S59 0 42.5 0s-30 13.5-30 30 13.5 30 30 30zm0-58c15.4 0 28 12.6 28 28s-12.6 28-28 28-28-12.6-28-28 12.6-28 28-28z" class="st2"/><path d="M42.5 51.5C54.4 51.5 64 41.9 64 30S54.4 8.5 42.5 8.5 21 18.1 21 30s9.6 21.5 21.5 21.5zm-1-37c0-.3.2-.5.5-.5s.5.2.5.5V30H58c.3 0 .5.2.5.5s-.2.5-.5.5H42c-.3 0-.5-.2-.5-.5v-16z" class="st1"/><path d="M42.5 52.5C54.9 52.5 65 42.4 65 30S54.9 7.5 42.5 7.5 20 17.6 20 30s10.1 22.5 22.5 22.5zm0-44C54.4 8.5 64 18.1 64 30s-9.6 21.5-21.5 21.5S21 41.9 21 30 30.6 8.5 42.5 8.5z" class="st2"/><path d="M42 30h.5V14.5c0-.3-.2-.5-.5-.5s-.5.2-.5.5v16c0-.3.2-.5.5-.5zM42 31h16c.3 0 .5-.2.5-.5s-.2-.5-.5-.5H42c-.3 0-.5.2-.5.5s.2.5.5.5z" class="st7"/><path d="M81.9 161.5c1.4 0 2.9-.4 4.1-1.1 3.3-2 4.7-6 3.6-9.5-1.4.8-2.8 1.7-4.3 2.5-3.7 2.2-6.8 4-9.3 5.5 1.5 1.6 3.6 2.6 5.9 2.6z" class="st1"/><path d="M89.6 150.8c1.2 3.5-.2 7.6-3.6 9.5-1.2.7-2.7 1.1-4.1 1.1-2.3 0-4.4-1-5.9-2.6-.3.2-.6.3-.9.5 1.7 1.9 4.2 3.1 6.8 3.1 1.6 0 3.2-.4 4.6-1.3 3.8-2.3 5.4-6.9 4-10.9-.3.3-.6.5-.9.6z" class="st2"/><path d="M57.4 135l-34 30.2c.5.3 1 .6 1.4 1l33.6-29.7-1-1.5z" class="st1"/><path d="M58.4 136.4l-33.6 29.7c.2.2.5.5.7.7l33.4-29.6-.5-.8zM23.4 165.2l34-30.2-.6-.8-34.5 30.6c.4.1.8.2 1.1.4z" class="st2"/><path d="M20.5 177.5c-.1 0-.1 0-.2 0l15.8 60.1c.4-.1.9-.1 1.3-.1.1 0 .3 0 .4 0L22 177.3c-.5.1-1 .2-1.5.2z" class="st1"/><path d="M22 177.3l15.9 60.2c.4 0 .7.1 1.1.1L23 177c-.4.1-.7.2-1 .3zM36.2 237.6l-15.8-60.1c-.4 0-.7 0-1.1-.1l15.9 60.4c.3-.1.6-.1 1-.2z" class="st2"/><path d="M20.5 176.5c3 0 5.5-2.5 5.5-5.5s-2.5-5.5-5.5-5.5S15 168 15 171s2.5 5.5 5.5 5.5z" class="st1"/><path d="M20.3 177.5c.1 0 .1 0 .2 0 .5 0 1-.1 1.5-.2.3-.1.6-.2 1-.3 2.4-1 4.1-3.3 4.1-6 0-1.6-.6-3-1.5-4.1-.2-.3-.5-.5-.7-.7-.4-.4-.9-.7-1.4-1-.3-.2-.7-.3-1-.4-.6-.2-1.2-.3-1.9-.3-3.6 0-6.5 2.9-6.5 6.5 0 3.2 2.3 5.8 5.3 6.4.2 0 .6.1.9.1zm.2-12c3 0 5.5 2.5 5.5 5.5s-2.5 5.5-5.5 5.5S15 174 15 171s2.5-5.5 5.5-5.5z" class="st2"/><path d="M70.2 134.4c2.5-1.4 5.2-2.4 7.9-2.9l-9.8-14.8-15.2 10 9.6 14.6c2-2.8 4.5-5.2 7.5-6.9z" class="st1"/><path d="M57.4 135l.9 1.4.6.8 3.3 5c.2-.3.4-.6.6-.9l-9.6-14.6 15.2-10 9.8 14.8c.4-.1.7-.1 1.1-.2l-10.6-16-16.9 11.2 5.1 7.7.5.8z" class="st2"/><path d="M84.9 152.5c11.5-6.8 15.2-9 16.4-9.7-4.1-6.6-11.4-10.7-19.2-10.7-4 0-7.9 1.1-11.4 3.1-5.2 3-8.9 7.9-10.4 13.7-1.5 5.7-.7 11.6 2.2 16.6 2.2-1.1 13.3-7.7 22.4-13z" class="st1"/><path d="M78.2 131.5c-2.8.5-5.5 1.4-7.9 2.9-3 1.8-5.5 4.1-7.4 6.9-.2.3-.4.6-.6.9-1.2 2-2.2 4.2-2.8 6.5-1.6 6.1-.7 12.4 2.5 17.8l.1.2h.3c.2 0 .3 0 12.8-7.4.3-.2.6-.3.9-.5 2.6-1.5 5.7-3.4 9.3-5.5 1.4-.8 2.9-1.7 4.3-2.5.3-.2.6-.3.9-.5 5.8-3.5 10.9-6.4 11.6-6.8h.8l-.4-.8c-4.2-7.1-12-11.6-20.3-11.6-1 0-1.9.1-2.9.2-.5.1-.9.1-1.2.2zM60.4 149c1.5-5.8 5.2-10.7 10.4-13.7 3.5-2 7.4-3.1 11.4-3.1 7.8 0 15.1 4.1 19.2 10.7-1.2.7-4.9 2.8-16.4 9.7-9.1 5.4-20.2 11.9-22.4 13.2-2.9-5.3-3.7-11.1-2.2-16.8z" class="st2"/><path d="M37.5 238.5c-4.2 0-7.5 3.3-7.5 7.5v.5h15v-.5c0-4.2-3.3-7.5-7.5-7.5z" class="st1"/><path d="M30 246.5v-.5c0-4.1 3.3-7.5 7.5-7.5 4.1 0 7.5 3.3 7.5 7.5v.5h1v-.5c0-4.2-3-7.7-7.1-8.3-.3-.1-.7-.1-1.1-.1-.1 0-.3 0-.4 0-.4 0-.9 0-1.3.1-.3.1-.7.1-1 .2-3.6 1-6.2 4.3-6.2 8.1v.5H30z" class="st2"/><path d="M53 247.5H21v3h32z" class="st1"/><path d="M20 251.5h34v-5H20v5zm1-4h32v3H21v-3z" class="st2"/></svg>