<svg xmlns="http://www.w3.org/2000/svg" width="121" height="131" preserveAspectRatio="none"><style type="text/css">.st0{fill:#FFFFFF;} .st1{fill:#0AC5AB;} .st2{fill:#BDC3C6;}</style><path d="M46.5 113.5h16c.6 0 1-.4 1-1V111h-18v1.5c0 .6.4 1 1 1z" class="st0"/><path d="M32.5 15.5h-16c-1.7 0-3 1.3-3 3v16c0 1.7 1.3 3 3 3h16c1.7 0 3-1.3 3-3v-16c0-1.7-1.3-3-3-3zm1 19c0 .6-.4 1-1 1h-16c-.6 0-1-.4-1-1v-16c0-.6.4-1 1-1h16c.6 0 1 .4 1 1v16zM31.6 22.6l-.7-.7c-.3-.3-.7-.3-1 0l-6.8 6.8-3.6-3.6c-.3-.3-.7-.3-1 0l-.7.7c-.3.3-.3.7 0 1l4.7 4.7c.1.1.3.2.5.2s.4-.1.5-.2l7.9-8c.4-.2.4-.6.2-.9z" class="st1"/><path d="M116.5 21H91v23.5h14.5c1.1 0 2 .9 2 2s-.9 2-2 2H91v25h14.5c1.1 0 2 .9 2 2s-.9 2-2 2H91v25h14.5c1.1 0 2 .9 2 2s-.9 2-2 2H91c0 2.5-2 4.5-4.5 4.5h-21v1.5c0 1.7-1.3 3-3 3h-16c-1.7 0-3-1.3-3-3V111H31v15.5c0 1.9 1.6 3.5 3.5 3.5h82c1.9 0 3.5-1.6 3.5-3.5v-102c0-1.9-1.6-3.5-3.5-3.5zM90 106.5V4.5C90 2.6 88.4 1 86.5 1h-82C2.6 1 1 2.6 1 4.5v102c0 1.9 1.6 3.5 3.5 3.5h82c1.9 0 3.5-1.6 3.5-3.5zm-54.5-14c0 1.7-1.3 3-3 3h-16c-1.7 0-3-1.3-3-3v-16c0-1.7 1.3-3 3-3h16c1.7 0 3 1.3 3 3v16zm0-29c0 1.7-1.3 3-3 3h-16c-1.7 0-3-1.3-3-3v-16c0-1.7 1.3-3 3-3h16c1.7 0 3 1.3 3 3v16zm0-29c0 1.7-1.3 3-3 3h-16c-1.7 0-3-1.3-3-3v-16c0-1.7 1.3-3 3-3h16c1.7 0 3 1.3 3 3v16zm40 52h-36c-1.1 0-2-.9-2-2s.9-2 2-2h36c1.1 0 2 .9 2 2s-.9 2-2 2zm0-29h-36c-1.1 0-2-.9-2-2s.9-2 2-2h36c1.1 0 2 .9 2 2s-.9 2-2 2zm0-29h-36c-1.1 0-2-.9-2-2s.9-2 2-2h36c1.1 0 2 .9 2 2s-.9 2-2 2zM32.5 17.5h-16c-.6 0-1 .4-1 1v16c0 .6.4 1 1 1h16c.6 0 1-.4 1-1v-16c0-.6-.4-1-1-1zm-1 6.1l-7.9 8c-.1.1-.3.2-.5.2s-.4-.1-.5-.2l-4.7-4.7c-.3-.3-.3-.7 0-1l.7-.7c.3-.3.7-.3 1 0l3.6 3.6L30 22c.3-.3.7-.3 1 0l.7.7c.1.2.1.6-.2.9zM32.5 46.5h-16c-.6 0-1 .4-1 1v16c0 .6.4 1 1 1h16c.6 0 1-.4 1-1v-16c0-.6-.4-1-1-1zM32.5 75.5h-16c-.6 0-1 .4-1 1v16c0 .6.4 1 1 1h16c.6 0 1-.4 1-1v-16c0-.6-.4-1-1-1z" class="st0"/><path d="M116.5 20H91V4.5C91 2 89 0 86.5 0h-82C2 0 0 2 0 4.5v102c0 2.5 2 4.5 4.5 4.5H30v15.5c0 2.5 2 4.5 4.5 4.5h82c2.5 0 4.5-2 4.5-4.5v-102c0-2.5-2-4.5-4.5-4.5zm-112 90c-1.9 0-3.5-1.6-3.5-3.5V4.5C1 2.6 2.6 1 4.5 1h82C88.4 1 90 2.6 90 4.5v102c0 1.9-1.6 3.5-3.5 3.5h-82zm59 1v1.5c0 .6-.4 1-1 1h-16c-.6 0-1-.4-1-1V111h18zm56.5 15.5c0 1.9-1.6 3.5-3.5 3.5h-82c-1.9 0-3.5-1.6-3.5-3.5V111h12.5v1.5c0 1.7 1.3 3 3 3h16c1.7 0 3-1.3 3-3V111h21c2.5 0 4.5-2 4.5-4.5h14.5c1.1 0 2-.9 2-2s-.9-2-2-2H91v-25h14.5c1.1 0 2-.9 2-2s-.9-2-2-2H91v-25h14.5c1.1 0 2-.9 2-2s-.9-2-2-2H91V21h25.5c1.9 0 3.5 1.6 3.5 3.5v102zM75.5 24.5h-36c-1.1 0-2 .9-2 2s.9 2 2 2h36c1.1 0 2-.9 2-2s-.9-2-2-2zM32.5 44.5h-16c-1.7 0-3 1.3-3 3v16c0 1.7 1.3 3 3 3h16c1.7 0 3-1.3 3-3v-16c0-1.7-1.3-3-3-3zm1 19c0 .6-.4 1-1 1h-16c-.6 0-1-.4-1-1v-16c0-.6.4-1 1-1h16c.6 0 1 .4 1 1v16zM75.5 53.5h-36c-1.1 0-2 .9-2 2s.9 2 2 2h36c1.1 0 2-.9 2-2s-.9-2-2-2zM32.5 73.5h-16c-1.7 0-3 1.3-3 3v16c0 1.7 1.3 3 3 3h16c1.7 0 3-1.3 3-3v-16c0-1.7-1.3-3-3-3zm1 19c0 .6-.4 1-1 1h-16c-.6 0-1-.4-1-1v-16c0-.6.4-1 1-1h16c.6 0 1 .4 1 1v16zM75.5 82.5h-36c-1.1 0-2 .9-2 2s.9 2 2 2h36c1.1 0 2-.9 2-2s-.9-2-2-2z" class="st2"/></svg>