<svg xmlns="http://www.w3.org/2000/svg" width="151" height="120" preserveAspectRatio="none"><defs><style>.cls-1, .cls-2 { fill: #fff; } .cls-1, .cls-2, .cls-3 { stroke: #bdc3c6; stroke-width: 1px; } .cls-1 { fill-rule: evenodd; } .cls-3 { fill: #f5f8fb; } .cls-4 { fill: #bcc2c5; } .cls-5 { fill: #0ac5ab; } .cls-6 { fill: #efc75e; }</style></defs><path d="M148.5 119.5H2.5c-1.1 0-2-.9-2-2v-86c0-1.1.9-2 2-2h62v22c0 1.1.9 2 2 2h18c1.1 0 2-.9 2-2v-22h62c1.1 0 2 .9 2 2v86c0 1.1-.9 2-2 2z" class="cls-1"/><rect width="16" height="50" x="67.5" y=".5" rx="2" ry="2" class="cls-2"/><circle cx="75.5" cy="9.5" r="4" class="cls-2"/><rect width="50" height="64" x="7.5" y="42.5" rx="4" ry="4" class="cls-3"/><rect width="20" height="3" x="63.5" y="64.5" rx="1" ry="1" class="cls-4"/><path d="M57.5 101.1v1.4c0 2.2-1.8 4-4 4h-42c-1.2 0-2.28-.55-3.02-1.4 1.16-5.43 3.26-12.2 8.65-16.15-.47-3.15-.73-8.06-.73-15.34 0-6.75 2.58-12.73 6.57-16.6 0 0 4.1-4.5 10.53-4.5 9.44 0 17.1 9.43 17.1 21.1 0 7.3-.25 12.2-.73 15.36 4.1 3.04 6.3 7.7 7.63 12.14zm-24-2.15l8.98-4.53-4.66-7.3c-1.28.65-2.92 1.02-4.32 1.02-1.4 0-3.07-.36-4.33-1l-4.68 7.28 9 4.53zm6.25-36.54s-8.36-.55-17.8 7.55C21.24 73.53 24.93 85 33.5 85c5.32 0 10.92-7 11.6-12.46C41.23 67 39.74 62.4 39.74 62.4z" class="cls-1"/><rect width="50" height="3" x="63.5" y="70.5" rx="1" ry="1" class="cls-5"/><rect width="20" height="3" x="63.5" y="82.5" rx="1" ry="1" class="cls-4"/><rect width="70" height="3" x="63.5" y="88.5" rx="1" ry="1" class="cls-6"/><rect width="70" height="3" x="63.5" y="94.5" rx="1" ry="1" class="cls-6"/></svg>