<svg xmlns="http://www.w3.org/2000/svg" width="106" height="121" preserveAspectRatio="none"><defs><style>.cls-1, .cls-2 { fill: #fff; } .cls-1, .cls-2, .cls-3 { stroke: #bdc3c6; stroke-width: 1px; } .cls-1 { fill-rule: evenodd; } .cls-3 { fill: #f5f8fb; } .cls-4 { fill: #bdc3c6; } .cls-5 { fill: #efc75e; } .cls-6 { fill: #0ac5ab; }</style></defs><path d="M70.5 120.5v-110h-60v110H.5V.5h80v120h-10z" class="cls-1"/><path d="M9.5 9.5h62v111h-62z" class="cls-2"/><path d="M47.5 20.5h14v90h-14z" class="cls-3"/><rect width="5" height="10" x="7.5" y="19.5" rx="2" ry="2" class="cls-2"/><rect width="5" height="10" x="7.5" y="97.5" rx="2" ry="2" class="cls-2"/><circle cx="66.5" cy="63.5" r="2" class="cls-4"/><path d="M86.5 42.5h19v21h-19z" class="cls-2"/><path d="M89.5 45.5h13v3h-13zM89.5 50.5h3v2h-3z" class="cls-4"/><path d="M94.5 50.5h3v2h-3z" class="cls-5"/><path d="M99.5 50.5h3v2h-3zM89.5 54.5h3v2h-3zM94.5 54.5h3v2h-3zM99.5 54.5h3v2h-3zM89.5 58.5h3v2h-3zM94.5 58.5h3v2h-3z" class="cls-4"/><path d="M99.5 58.5h3v2h-3z" class="cls-6"/></svg>