<svg xmlns="http://www.w3.org/2000/svg" width="304" height="213" viewBox="-379 394 304 213" enable-background="new -379 394 304 213" preserveAspectRatio="none"><path fill="#5A6368" d="M-349.5 513c-.3.4-.5.9-.5 1.4v23.1h10c3-2.8 6.2-5.8 8.6-7.9-5.8-5.3-16.9-15.7-17.9-16.4-.1-.1-.2-.1-.2-.2zm32 18.6v-4c-.8.7-1.5 1.4-2.2 2 .7.6 1.4 1.2 2.2 2z"/><path fill="#656E73" d="M-349.5 513s.1.1.2.1c1 .7 12.1 11.1 17.9 16.4 1.9 1.7 3.2 2.9 3.5 3.1 1.1.7 3.7.7 4.8 0 .4-.2 1.7-1.4 3.5-3.1.7-.6 1.4-1.3 2.2-2v-15.4h-30.3c-.8.1-1.4.4-1.8.9z"/><path fill="#7A8185" d="M-317.5 531.6c-.8-.7-1.5-1.4-2.2-2-1.8 1.6-3.2 2.8-3.5 3.1-1.1.7-3.7.7-4.8 0-.3-.2-1.6-1.4-3.5-3.1-2.4 2.1-5.5 5.1-8.6 7.9 1.1 0 2 .9 2 2v8.5h20.5v-16.4h.1zm-32.5 5.9v-23.1c0-.5.2-1 .5-1.4.4-.5 1.1-.9 1.8-.9h30.2v-1h-30.2c-1.8 0-3.3 1.5-3.3 3.3v23.1h1z"/><path fill="#0AC5AB" d="M-338 539.5c0-1.1-.9-2-2-2h-16c-1.1 0-2 .9-2 2v16c0 1.1.9 2 2 2h16c1.1 0 2-.9 2-2v-16zm-6.9 13l-3.1-2-3.1 2 .8-3.7-2.7-2.5 3.6-.3 1.4-3.5 1.4 3.5 3.6.3-2.7 2.5.8 3.7z"/><path fill="#fff" d="M-343 546.3l-3.6-.3-1.4-3.5-1.4 3.5-3.6.3 2.7 2.5-.8 3.7 3.1-2 3.1 2-.8-3.7 2.7-2.5z"/><path fill="#5A6368" d="M-136.5 555.7c1.8-1.7 3.6-3.3 5.1-4.7-1.5-1.4-3.2-3-5.1-4.7v9.4zm58.7-34.4c-1.3.8-21.6 19.9-32.3 29.7 5.4 5 13.3 12.3 20 18.5h4.6c1.1 0 2 .9 2 2v4.1c3.1 2.8 5.3 4.8 5.9 5.2.1.1.2.2.3.2.5-.7.8-1.6.8-2.5v-55c0-1-.3-1.8-.8-2.6-.1.2-.3.3-.5.4z"/><path fill="#656E73" d="M-131.4 551c3.4 3.1 5.8 5.2 6.3 5.5 2 1.2 6.7 1.2 8.6 0 .7-.4 3.1-2.6 6.4-5.6 10.8-9.8 31-28.8 32.3-29.7.2-.1.3-.2.5-.4-.8-1.2-2.2-1.9-3.7-1.9h-55.5v27.3c1.8 1.8 3.6 3.4 5.1 4.8z"/><path fill="#7A8185" d="M-81 518h-55.5v1H-81c1.5 0 2.9.8 3.7 1.9.5.7.8 1.6.8 2.6v55c0 .9-.3 1.8-.8 2.5-.1-.1-.2-.2-.3-.2-.6-.4-2.8-2.3-5.9-5.2v8.4h2.4c3 0 5.5-2.5 5.5-5.5v-55c.1-3-2.4-5.5-5.4-5.5zm-22.4 53.5c0-1.1.9-2 2-2H-90c-6.7-6.2-14.6-13.6-20-18.5-3.3 3-5.7 5.1-6.4 5.6-2 1.2-6.7 1.2-8.6 0-.5-.3-2.9-2.5-6.3-5.5-1.5 1.4-3.2 3-5.1 4.7V584h33.1l-.1-12.5z"/><path fill="#0AC5AB" d="M-83.4 575.6v-4.1c0-1.1-.9-2-2-2h-16c-1.1 0-2 .9-2 2v16c0 1.1.9 2 2 2h16c1.1 0 2-.9 2-2v-11.9zm-6.9 8.9l-3.1-2-3.1 2 .8-3.7-2.7-2.5 3.6-.3 1.4-3.5 1.4 3.5 3.6.3-2.7 2.5.8 3.7z"/><path fill="#fff" d="M-91.2 580.8l2.8-2.5-3.6-.3-1.4-3.5-1.4 3.5-3.6.3 2.7 2.5-.8 3.7 3.1-2 3.1 2-.9-3.7z"/><path fill="#222" d="M-158.5 477.5v11.2c7.8-5.5 13.6-9.7 15.4-11.2h-15.4zm-137 0H-311c1.9 1.5 7.7 5.7 15.5 11.2v-11.2zm0-21.4l-20.5 20.4h20.5v-20.4zm137 20.4h20.5l-20.5-20.4v20.4zm21 125.1s0-.1 0 0V477.5c0 8.4 0 108.5 0 124.1z"/><path fill="#7A8185" d="M-136.5 555.7v-79.1l-22-21.9v-56.2c0-2.5-2-4.5-4.5-4.5h-128c-2.5 0-4.5 2-4.5 4.5v56.2l-21.9 21.8-.1.1v124.9c0 3 2.5 5.5 5.5 5.5h170c3 0 5.5-2.5 5.5-5.5v-45.8zm-22-79.2v-20.4l20.5 20.4h-20.5zM-291 395h128c1.9 0 3.5 1.6 3.5 3.5v8.5h-135v-8.5c0-1.9 1.6-3.5 3.5-3.5zm-25 81.5l20.5-20.4v20.4H-316zm175.3 130c-8.3 0-165.4.1-171.1 0-1.9 0-6.7-2.2-4.7-4.6 0-14.8 0-121 0-124.9v.5h21v11.2c.3.2.7.5 1 .7V408h135v81.4c.3-.2.7-.5 1-.7v-11.2h21v124.1c2.1 2.2-3.1 4.9-3.2 4.9z"/><path fill="#2C2C2C" d="M-235.5 531.3c4-2.4 13.4-2.4 17.3 0 11.8-8.8 40.2-28.8 58.7-41.9V408h-135v81.4c18.6 13.2 47.2 33.3 58.8 42 .1 0 .1-.1.2-.1zm-9.2-45.3v-.5h-2v.5h-4v-.5h-2v.5h-4v-.5h-2v.5h-4v-.5h-2v.5h-4v-.5h-2v.5h-4v-.5h-.3c-.6 0-1.1-.3-1.5-.7l-.4.3c-.4-.5-.6-1-.6-1.6v-2.6h.5v-2h-.5v-4h.5v-2h-.5v-4h.5v-2h-.5v-4h.5v-2h-.5v-4h.5v-2h-.5v-4h.5v-2h-.5v-4h.5v-2h-.5v-4h.5v-1.4c0-.2 0-.4.1-.6l-.5-.1c.3-1.1 1.3-1.8 2.4-1.8h4v.5h2v-.5h4v.5h2v-.5h4v.5h2v-.5h4v.5h2v-.5h4v.5h2v-.5h4v.5h2v-.5h4v.5h2v-.5h4v.5h2v-.5h4v.5h2v-.5h4v.5h2v-.5h4v.5h2v-.5h4v.5h2v-.5h4v.5h2v-.5h4v.5h2v-.5h4v.5h2v-.5h4v.5h2v-.5c1.4 0 2.5 1.1 2.5 2.5v.9h-.5v2h.5v4h-.5v2h.5v4h-.5v2h.5v4h-.5v2h.5v4h-.5v2h.5v4h-.5v2h.5v4h-.5v2h.5v4h-.5v2h.5v1.1c0 1.2-.9 2.3-2.1 2.5l-.1-.5c-.1 0-.2 0-.3 0h-1.7v.5h-4v-.5h-2v.5h-4v-.5h-2v.5h-4v-.5h-2v.5h-4v-.5h-2v.5h-4v-.5h-2v.5h-4v-.5h-2v.5h-4v-.5h-2v.5h-4v-.5h-2v.5h-4v-.5h-2v.5h-4v-.5h-2v.5h-4z"/><path fill="#5A6368" d="M-294.5 405v2h135v-8.5c0-1.9-1.6-3.5-3.5-3.5h-128c-1.9 0-3.5 1.6-3.5 3.5v6.5zm21-6.5c1.4 0 2.5 1.1 2.5 2.5s-1.1 2.5-2.5 2.5-2.5-1.1-2.5-2.5 1.1-2.5 2.5-2.5zm-7 0c1.4 0 2.5 1.1 2.5 2.5s-1.1 2.5-2.5 2.5-2.5-1.1-2.5-2.5 1.1-2.5 2.5-2.5zm-7 0c1.4 0 2.5 1.1 2.5 2.5s-1.1 2.5-2.5 2.5-2.5-1.1-2.5-2.5 1.1-2.5 2.5-2.5z"/><circle cx="-287.5" cy="401" r="2.5" fill="#DE554B"/><circle cx="-280.5" cy="401" r="2.5" fill="#EFC75E"/><circle cx="-273.5" cy="401" r="2.5" fill="#0CB9A1"/><path fill="#5A6368" d="M-315.4 601c3.5-2.2 72.9-65.1 79.8-69.6-11.7-8.7-40.2-28.8-58.8-42-.3-.2-.7-.5-1-.7-7.8-5.5-13.7-9.7-15.6-11.2h-5.6v-.5c0 3.9 0 110.1 0 124.9.3-.3.7-.6 1.2-.9z"/><path fill="#272727" d="M-240.7 485v.5h2v-.5h4v.5h2v-.5h4v.5h2v-.5h4v.5h2v-.5h4v.5h2v-.5h4v.5h2v-.5h4v.5h2v-.5h4v.5h2v-.5h4v.5h2v-.5h4v.5h2v-.5h4v.5h1.7c.1 0 .2 0 .3 0l-.1-.5c.7-.1 1.3-.7 1.3-1.5v-1.1h.5v-2h-.5v-4h.5v-2h-.5v-4h.5v-2h-.5v-4h.5v-2h-.5v-4h.5v-2h-.5v-4h.5v-2h-.5v-4h.5v-2h-.5v-4h.5v-2h-.5v-.9c0-.8-.7-1.5-1.5-1.5v-.5h-2v.5h-4v-.5h-2v.5h-4v-.5h-2v.5h-4v-.5h-2v.5h-4v-.5h-2v.5h-4v-.5h-2v.5h-4v-.5h-2v.5h-4v-.5h-2v.5h-4v-.5h-2v.5h-4v-.5h-2v.5h-4v-.5h-2v.5h-4v-.5h-2v.5h-4v-.5h-2v.5h-4v-.5h-2v.5h-4v-.5h-2v.5h-4v-.5h-2v.5h-4c-.7 0-1.3.4-1.4 1.1l-.5-.1c-.1.1-.1.3-.1.5v1.4h.5v4h-.5v2h.5v4h-.5v2h.5v4h-.5v2h.5v4h-.5v2h.5v4h-.5v2h.5v4h-.5v2h.5v4h-.5v2h.5v2.6c0 .4.1.7.4 1l-.4.3c.4.4.9.7 1.5.7h.3v-.5h4v.5h2v-.5h4v.5h2v-.5h4v.5h2v-.5h4v.5h2v-.5h4v.5h2v-.5h4zm-.9-29.5l1.4-1.4c.6-.6 1.6-.6 2.2 0l7.9 7.9 15.1-15c.6-.6 1.6-.6 2.2 0l1.4 1.4c.6.6.6 1.6 0 2.1L-229 468c-.6.6-1.5.6-2.1 0l-10.4-10.4c-.6-.5-.6-1.5-.1-2.1z"/><path fill="#BDC3C6" d="M-202.7 485v1h4v-1h-4zm-62.3-49v-1h-4v1h4zm-11.4 1.1c.2-.6.8-1.1 1.4-1.1h4v-1h-4c-1.1 0-2.1.7-2.4 1.8l.5.1.5.2zm23.4-1.1v-1h-4v1h4zm-23.5 14.9h-1v4h1v-4zm0-6h-1v4h1v-4zm37.8 40.1v1h4v-1h-4zm-20.3-49v-1h-4v1h4zm36 0v-1h-4v1h4zm-6 0v-1h-4v1h4zm-18 0v-1h-4v1h4zm12 0v-1h-4v1h4zm-6 0v-1h-4v1h4zm-35.5 38.9h-1v4h1v-4zm13.8 10.1v1h4v-1h-4zm6 0v1h4v-1h-4zm-12 0v1h4v-1h-4zm28 0h-4v1h4v-1zm-10 0v1h4v-1h-4zm-25.8-1.5v-2.6h-1v2.6c0 .6.2 1.2.6 1.6l.4-.3.4-.3c-.3-.3-.4-.6-.4-1zm1.8 1.5v1h4v-1h-4zm-1.8-22.1h-1v4h1v-4zm0 6h-1v4h1v-4zM-217 436v-1h-4v1h4zm-59.5 20.9h-1v4h1v-4zm0-18h-1v4h1v-4zm85.8 46.1v1h4v-1h-4zm6 0v1h4v-1h-4zm7.2-4.6h1v-4h-1v4zm-19.2 4.6v1h4v-1h-4zm19.2-1.5c0 .7-.6 1.4-1.3 1.5l.1.5.1.5c1.2-.2 2.1-1.2 2.1-2.5v-1.1h-1v1.1zm-43.2 1.5v1h4v-1h-4zm9.7-49v-1h-4v1h4zm-21.7 49v1h4v-1h-4zm6 0v1h4v-1h-4zm12 0v1h4v-1h-4zm37.2-10.6h1v-4h-1v4zm-31.2 10.6v1h4v-1h-4zm21.7-49v-1h-4v1h4zm-6 0v-1h-4v1h4zm-12 0v-1h-4v1h4zm24 0v-1h-4v1h4zm-18 0v-1h-4v1h4zm21.5 32.4h1v-4h-1v4zM-179 436c.8 0 1.5.7 1.5 1.5v.9h1v-.9c0-1.4-1.1-2.5-2.5-2.5v1zm1.5 26.4h1v-4h-1v4zm0-6h1v-4h-1v4zm0-12h1v-4h-1v4zm0 6h1v-4h-1v4z"/><path fill="#0AC5AB" d="M-231.2 468c.6.6 1.5.6 2.1 0l17.6-17.5c.6-.6.6-1.5 0-2.1l-1.4-1.4c-.6-.6-1.6-.6-2.2 0l-15.1 15-7.9-7.9c-.6-.6-1.6-.6-2.2 0l-1.4 1.4c-.6.6-.6 1.6 0 2.1l10.5 10.4z"/><path fill="#5A6368" d="M-218.2 531.3c4.4 2.7 75.2 66.6 80.1 69.8.2.2.4.3.6.5 0-15.6 0-115.7 0-124.1h-5.6c-1.8 1.5-7.7 5.6-15.4 11.2-.3.2-.7.5-1 .7-18.5 13.1-46.9 33.1-58.7 41.9z"/><path fill="#7A8185" d="M-137.5 601.6c-.2-.2-.4-.4-.6-.5-4.9-3.2-75.7-67.1-80.1-69.8-4-2.4-13.4-2.4-17.3 0l-.1.1c-6.8 4.5-76.3 67.4-79.8 69.6-.5.3-.8.6-1.1.9-2 2.4 2.8 4.6 4.7 4.6 5.7.1 162.8 0 171.1 0 .1 0 5.3-2.7 3.2-4.9z"/></svg>