<svg xmlns="http://www.w3.org/2000/svg" width="199" height="103" preserveAspectRatio="none"><defs><style>.cls-1 { fill: #fff; stroke: #bdc3c6; stroke-width: 1px; } .cls-2 { fill: #f5f8fb; } .cls-3 { fill: #e4e5e6; } .cls-3, .cls-4, .cls-6, .cls-7 { fill-rule: evenodd; } .cls-4 { fill: #efc75e; } .cls-5, .cls-6 { fill: #16b0c5; } .cls-7 { fill: #bdc3c6; }</style></defs><rect width="140" height="90" x=".5" y="6.5" rx="2" ry="2" class="cls-1"/><path d="M15.5 37.5h110v14h-110z" class="cls-2"/><path d="M15 82v-1h110v1H15zm0-16h110v1H15v-1zm0-15h110v1H15v-1zm0-15h110v1H15v-1zm0-15h110v1H15v-1z" class="cls-3"/><path d="M112 82c-1.1 0-2-.9-2-2V24c0-1.1.9-2 2-2s2 .9 2 2v56c0 1.1-.9 2-2 2zm-14 0c-1.1 0-2-.9-2-2v-6c0-1.1.9-2 2-2s2 .9 2 2v6c0 1.1-.9 2-2 2zm-14 0c-1.1 0-2-.9-2-2V48c0-1.1.9-2 2-2s2 .9 2 2v32c0 1.1-.9 2-2 2zm-14 0c-1.1 0-2-.9-2-2V58c0-1.1.9-2 2-2s2 .9 2 2v22c0 1.1-.9 2-2 2zm-14 0c-1.1 0-2-.9-2-2V64c0-1.1.9-2 2-2s2 .9 2 2v16c0 1.1-.9 2-2 2zm-14 0c-1.1 0-2-.9-2-2V34c0-1.1.9-2 2-2s2 .9 2 2v46c0 1.1-.9 2-2 2zm-14 0c-1.1 0-2-.9-2-2V44c0-1.1.9-2 2-2s2 .9 2 2v36c0 1.1-.9 2-2 2z" class="cls-4"/><rect width="140" height="90" x="54.5" y=".5" rx="2" ry="2" class="cls-1"/><path d="M176 75V15h1v60h-1zm-21-60h1v60h-1V15zm-21 0h1v60h-1V15zm-21 0h1v60h-1V15zm-21 0h1v60h-1V15zm-21 0h1v60h-1V15z" class="cls-3"/><path d="M135.5 15.5h20v60h-20z" class="cls-2"/><circle cx="72" cy="66" r="2.5" class="cls-5"/><circle cx="93" cy="48" r="2.5" class="cls-5"/><circle cx="114" cy="66" r="2.5" class="cls-5"/><circle cx="135" cy="29" r="2.5" class="cls-5"/><circle cx="156" cy="50" r="2.5" class="cls-5"/><circle cx="177" cy="36" r="2.5" class="cls-5"/><path d="M71.32 65.4l-.64-.8 22-18 .64.8-22 18zM92.67 47.38l.66-.76 21 18-.66.76-21-18zM114.44 65.25l-.88-.5 21-37 .88.5-21 37zM134.64 28.34l.72-.68 21 22-.72.7-21-22.02zM156.28 49.42l-.56-.84 21-14 .56.84-21 14z" class="cls-6"/><rect width="10" height="60" x="188.5" y="42.5" rx="2" ry="2" class="cls-1"/><path d="M197 46v1h-2v-1h2zM197 51v1h-4v-1h4zM197 56v1h-2v-1h2zM197 61v1h-2v-1h2zM197 66v1h-4v-1h4zM197 71v1h-2v-1h2zM197 76v1h-2v-1h2zM197 81v1h-4v-1h4zM197 86v1h-2v-1h2zM197 91v1h-2v-1h2zM197 96v1h-4v-1h4z" class="cls-7"/></svg>