<svg xmlns="http://www.w3.org/2000/svg" width="27" height="26.41" preserveAspectRatio="none"><defs><style>.cls-1 { fill: #7a8185; fill-rule: evenodd; } .cls-2 { fill: #16b0c5; }</style></defs><path d="M18 3c0 .15.03.28.04.43-3.98-1.25-8.27.9-9.7 4.93l-2.43 6.86c-.06.2-.17.34-.34.4l-3 1.46L9.3 19.6l6.05 2.26 6.76 2.5-1.38-3.1c-.1-.18-.1-.36-.04-.55l2.43-6.85c.6-1.64.6-3.36.17-4.92.24.03.48.07.73.07.26 0 .5-.04.75-.07.4 1.73.33 3.6-.32 5.4l-2.32 6.6 1.98 4.35c.1.18.14.4.07.63-.14.42-.57.6-.93.46l-7.8-2.9c-.93 1.63-2.93 2.4-4.7 1.74-1.8-.66-2.84-2.56-2.52-4.45L.48 17.82c-.6-.22-.64-1.08-.07-1.34l4.3-2.04 2.32-6.6C8.7 3.2 13.52.68 18.12 1.9c-.07.37-.12.73-.12 1.1zm-6.76 20.83c1.04.37 2.22 0 2.86-.9l-4.5-1.66c-.07 1.1.57 2.15 1.64 2.56z" class="cls-1"/><circle cx="23" cy="4" r="4" class="cls-2"/></svg>