<svg xmlns="http://www.w3.org/2000/svg" width="29" height="22" preserveAspectRatio="none"><defs><style>.cls-1 { fill: #7a8185; } .cls-1, .cls-2 { fill-rule: evenodd; } .cls-2 { fill: #16b0c5; }</style></defs><path d="M23.2 4.42c-.15.2.24 1.94-.2.58-1.2-1.7-3.98-3-6-3-.13 0 .13 0 0 0-.17 0 .14.1 0 0-1.23-.93-3-2-4.56-2C9.64 0 7.16 2.56 6 5c-.1.22.24-.03 0 0-3.08.43-6 2.53-6 5.7 0 3.5 2.84 6.33 6.33 6.33L11 17v-2H6c-2.12 0-4-1.9-4-4s2.22-4.1 4.33-4.1c.1 0 .22 0 .32 0 .6.05 1.17-.34 1.3-.93C8.5 3.92 9.9 2 12 2c1.2 0 2.8.95 3.66 1.8.3.3.72.4 1.13.33.25-.06.5-.08.78-.08 1.48 0 2.8.83 3.45 2.16.23.48.73.76 1.25.7.13 0 .26 0 .38 0 2.12 0 4.34 1 4.34 3.1s-1.88 5-4 5h-5v2l4.66.03c3.5 0 6.34-3.55 6.34-7.03 0-3.3-2.56-5.3-5.8-5.58z" class="cls-1"/><path d="M10.53 12.8c.68.06 1.47.2 1.47.2v8c0 .58.3 1 .9 1h2.9c.6 0 1.2-.42 1.2-1v-8h1c.27 0 .57.04.68-.2.12-.24.07-.52-.1-.73L15.43 8.4c-.27-.3-.66-.48-1.08-.48-.4 0-.8.18-1.07.5l-3.15 3.65c-.18.2-.22.5-.1.73.08.17.1-.4.5 0z" class="cls-2"/></svg>