<svg xmlns="http://www.w3.org/2000/svg" width="26" height="27.06" preserveAspectRatio="none"><defs><style>.cls-1 { fill: #7a8185; } .cls-1, .cls-2 { fill-rule: evenodd; } .cls-2 { fill: #16b0c5; }</style></defs><path d="M20.4 3.3c-.23-.16-.47-.23-.7-.24-.42 0-.82.2-1.06.55-.4.58-.26 1.37.3 1.77C21.8 7.33 24 10.57 24 14c0 5.8-5.22 11-11 11S2 19.8 2 14c0-3.44 2.2-6.66 5.05-8.64.57-.4.7-1.18.3-1.76-.24-.36-.65-.55-1.06-.54-.24 0-.48.08-.7.23C2.1 5.72 0 9.73 0 14c0 7.2 5.83 13.06 13 13.06S26 21.2 26 14c0-4.26-2.1-8.27-5.6-10.7z" class="cls-1"/><path d="M13 0c.55 0 1 .45 1 1v11c0 .55-.45 1-1 1s-1-.45-1-1V1c0-.55.45-1 1-1z" class="cls-2"/></svg>