<svg xmlns="http://www.w3.org/2000/svg" width="30" height="16" preserveAspectRatio="none"><defs><style>.cls-1 { fill: #82888c; } .cls-1, .cls-2 { fill-rule: evenodd; } .cls-2 { fill: #16b0c5; }</style></defs><path d="M4.95 16c-.4 0-.83-.05-1.23-.15-1.22-.3-2.24-1.05-2.87-2.1l-.22-.34C-.67 11.28.1 8.54 2.36 7.3l9.72-5.32c2.25-1.23 5.15-.5 6.45 1.64l.2.35c1.32 2.14.54 4.88-1.7 6.12l-.88.46c-.42.23-.96.1-1.2-.3s-.1-.92.32-1.15l.86-.46c.7-.38 1.18-.98 1.38-1.7.2-.73.1-1.48-.3-2.13l-.2-.35c-.82-1.33-2.63-1.8-4.04-1.02l-9.72 5.3c-1.4.8-1.9 2.5-1.08 3.84l.22.36c.4.65 1.03 1.1 1.8 1.3.75.2 1.55.1 2.24-.28l2.17-1.18c.4-.23.95-.1 1.2.3.24.4.1.9-.33 1.14L7.3 15.4c-.73.4-1.54.6-2.35.6z" class="cls-1"/><path d="M15.57 14.63c-1.63 0-3.22-.8-4.1-2.24l-.2-.36c-1.32-2.14-.54-4.88 1.7-6.12l.87-.47c.43-.23.96-.1 1.2.3.25.4.1.92-.3 1.15l-.87.47c-.7.37-1.18.98-1.38 1.7m0 0c-.22.72-.1 1.48.28 2.13l.22.35c.8 1.34 2.63 1.8 4.04 1.03l9.71-5.32c1.42-.77 1.9-2.5 1.1-3.83l-.23-.35c-.4-.65-1.03-1.1-1.8-1.3-.76-.2-1.55-.1-2.24.27l-2.17 1.2c-.4.22-.95.08-1.2-.3-.24-.42-.1-.93.33-1.16L22.7.6c1.1-.6 2.36-.75 3.58-.44 1.22.3 2.24 1.05 2.87 2.08l.22.36c.63 1.03.8 2.24.47 3.4-.33 1.15-1.1 2.1-2.2 2.7l-9.72 5.33c-.74.4-1.55.6-2.35.6" class="cls-2"/></svg>