<svg xmlns="http://www.w3.org/2000/svg" width="32" height="21" preserveAspectRatio="none"><defs><style>.cls-1 { fill: #7a8185; fill-rule: evenodd; } .cls-2 { fill: #16b0c5; }</style></defs><path d="M30.5 21h-29C.67 21 0 20.83 0 20s.67-1 1.5-1h10c0 .55.45 1 1 1h7c.55 0 1-.45 1-1h10c.83 0 1.5.17 1.5 1s-.67 1-1.5 1zm-2-3h-25c-1.65 0-3-1.35-3-3V3c0-1.65 1.35-3 3-3h10v2h-10c-.55 0-1 .45-1 1v12c0 .55.45 1 1 1h25c.55 0 1-.45 1-1V3c0-.55-.45-1-1-1h-9V0h9c1.65 0 3 .35 3 2v13c0 1.65-1.35 3-3 3zm-9-16h-6 6zm-6-2h6-6z" class="cls-1"/><circle cx="16.5" cy="1" r="1" class="cls-2"/></svg>