<svg xmlns="http://www.w3.org/2000/svg" width="28" height="28" preserveAspectRatio="none"><defs><style>.cls-1 { fill: #7a8185; } .cls-1, .cls-2 { fill-rule: evenodd; } .cls-2 { fill: #5dc8d7; }</style></defs><path d="M2.3 14H0C0 6.26 6.3 0 14 0v2.3C7.57 2.3 2.3 7.53 2.3 14zm22.41-9.03l2.53-2.5L25.6.84 14.76 11.62c-.24-.07-.5-.12-.75-.12-1.37 0-2.48 1.1-2.48 2.5 0 1.37 1.1 2.48 2.5 2.48 1.37 0 2.48-1.1 2.48-2.5 0-.25-.05-.5-.12-.72l2.7-2.7c.7 1 1.07 2.2 1.07 3.43 0 3.38-2.76 6.13-6.14 6.13-1.74 0-3.4-.75-4.57-2.06l1.13-1.13-4.8-1.13 1.13 4.8.9-.9c1.6 1.73 3.84 2.73 6.2 2.73 4.66 0 8.45-3.8 8.45-8.44 0-1.87-.6-3.63-1.7-5.08l2.32-2.32M7.87 14c0-3.4 2.75-6.14 6.14-6.14v-2.3c-4.64 0-8.43 3.78-8.43 8.43h2.3z" class="cls-1"/><path d="M6.9 20.6l.9-.9M23.07 6.6c1.7 2.08 2.64 4.66 2.64 7.4 0 6.44-5.24 11.7-11.7 11.7-3.22 0-6.3-1.36-8.5-3.7l1.03-1.03-4.8-1.13 1.13 4.8 1-1.02C6.52 26.4 10.17 28 14.02 28c7.73 0 14-6.3 14-14 0-3.36-1.15-6.5-3.3-9.03" class="cls-2"/></svg>