<svg xmlns="http://www.w3.org/2000/svg" width="32" height="30" preserveAspectRatio="none"><defs><style>.cls-1 { fill: #7a8185; } .cls-1, .cls-2 { fill-rule: evenodd; } .cls-2 { fill: #16b0c5; }</style></defs><path d="M31 22c-4.42 0-6.58 0-11 0-1.18 0-1.02-1 0-1 4.17 0 6.83 0 11 0 0-2.3 0-4.7 0-7 0-2.63 0-5.37 0-8H1c0 .82 0 2.18 0 3 0 4.1 0 7.9 0 12 2.63 0 3.37 0 6 0 1.17 0 1.33 1 0 1-2.88 0-3.12 0-6 0-.4 0-1-.2-1-.6 0-2.54 0-5.1 0-7.63C0 9.42 0 5.07 0 .73 0 .33.36 0 .76 0c.9 0 1.8 0 2.7 0 5.58 0 11.14 0 16.7 0 3.7 0 7.4 0 11.1 0 .4 0 .75.33.75.73 0 2.54 0 5.08 0 7.63 0 4.35 0 8.7 0 13.04 0 .4-.6.6-1 .6zM16 4c4.15 0 8.85 0 13 0 .96 0 .96-2 0-2-4.15 0-8.85 0-13 0-.96 0-.96 2 0 2zM4 4c1 0 1 0 2 0 .48 0 .48-2 0-2-1 0-1 0-2 0-.48 0-.48 2 0 2z" class="cls-1"/><path d="M22.54 16.24c1.57-1.58.24-3.2 2.34-5.6.95-1.1-3.9-.76-6.3 1.64-1 1.02-.72 2.5.37 3.6 1.1 1.1 2.57 1.38 3.6.36zM5.06 29.94c.8.8 9.77-6.5 12.44-9.18 1.32-1.33 1.77-2.04 2.17-2.57.18-.24-.06-.3-.16-.37-.52-.27-.88-.52-1.36-1-.47-.47-.72-.84-1-1.36-.05-.1-.12-.34-.35-.17-.54.4-1.25.85-2.58 2.18-2.66 2.67-9.97 11.65-9.16 12.46z" class="cls-2"/></svg>