<svg xmlns="http://www.w3.org/2000/svg" width="31" height="30" preserveAspectRatio="none"><defs><style>.cls-1, .cls-4 { fill: #7a8185; } .cls-1, .cls-2 { fill-rule: evenodd; } .cls-2, .cls-3 { fill: #16b0c5; } .cls-5 { fill: #fff; stroke: #7a8185; stroke-width: 2px; }</style></defs><path d="M14.2 11.62l1.6-1.24 11 14-1.6 1.24-11-14zM13 12.92l2 .16-1 12-2-.16 1-12zM7.17 3.56l1.66-1.12 8 12-1.66 1.12-8-12z" class="cls-1"/><path d="M28.32 2.27l1.36 1.46-13 12-1.36-1.46 13-12zM3.56 20.83l-1.12-1.66 15-10 1.1 1.66-14.98 10z" class="cls-2"/><circle cx="28.5" cy="3.5" r="2.5" class="cls-3"/><circle cx="7.5" cy="2.5" r="2.5" class="cls-4"/><circle cx="2.5" cy="20.5" r="2.5" class="cls-3"/><circle cx="12.5" cy="27.5" r="2.5" class="cls-4"/><circle cx="26.5" cy="24.5" r="2.5" class="cls-4"/><circle cx="15.5" cy="14.5" r="6.5" class="cls-5"/></svg>