<svg xmlns="http://www.w3.org/2000/svg" viewBox="0 0 22 23" enable-background="new 0 0 22 23" preserveAspectRatio="none"><style type="text/css">.st0{fill:#13B0C5;} .st1{fill:#82888C;}</style><path d="M.6 19.3c-.8.8-.8 2.2 0 3 .4.5.9.7 1.4.7.5 0 1.1-.2 1.5-.6l6.8-7.1-2.9-3-6.8 7zM17.5 6.2l2.9-1.6L22 1.5 20.6 0l-3 1.6L16 4.7l-3.6 3.8 1.5 1.5 3.6-3.8z" class="st0"/><path d="M18.1 14.4h-.3c-.5 0-1 .1-1.4.3L8 5.8c.2-.5.3-1 .3-1.5V4c-.2-2.2-2-4-4.2-4-.6 0-1.2.2-1.8.4L5 3.3c.1.2.2.3.3.5.2.5.1 1.1-.3 1.5-.3.3-.6.4-1 .4-.2 0-.3 0-.5-.1 0 0-.2-.1-.4-.3L.4 2.5C.1 3 0 3.6 0 4.3c0 2.3 1.7 4.1 3.9 4.3h.3c.5 0 1-.1 1.4-.3l8.5 8.8c-.2.5-.3 1-.3 1.5v.3c.1 2.2 1.9 4 4.1 4 .6 0 1.2-.2 1.8-.4L17 19.6c-.1-.2-.2-.3-.3-.5-.2-.5-.1-1.1.3-1.5.3-.3.6-.4 1-.4.2 0 .3 0 .5.1s.3.2.5.3l2.7 2.9c.3-.6.4-1.2.4-1.8-.1-2.3-1.8-4.2-4-4.3z" class="st1"/></svg>