<svg xmlns="http://www.w3.org/2000/svg" width="21" height="22" preserveAspectRatio="none"><defs><style>.cls-1 { fill: #82888c; } .cls-1, .cls-2 { fill-rule: evenodd; } .cls-2 { fill: #16b0c5; }</style></defs><path d="M17 0H5L0 4.47V22h9v-1H2V6h5V1h8v5h2V0z" class="cls-1"/><path d="M20.3 13.65h-.26v-1.27c0-2.37-1.74-4.34-3.92-4.38-.06 0-.18 0-.24 0-2.18.04-3.92 2.02-3.92 4.38v1.27h-.25c-.38 0-.7.44-.7.97v6.4c0 .54.32.98.7.98h8.6c.38 0 .7-.44.7-.97v-6.4c0-.54-.32-.98-.7-.98zm-3.5 4.17v1.93c0 .23-.17.4-.38.4h-.85c-.2 0-.37-.17-.37-.4v-1.93c-.2-.2-.32-.5-.32-.83 0-.62.44-1.15 1-1.18.06 0 .18 0 .24 0 .56.03 1 .56 1 1.17 0 .3-.12.6-.32.82zM18 14h-4v-2c0-1.4.7-2.2 2-2.2s2 .8 2 2.2v2z" class="cls-2"/></svg>