<svg xmlns="http://www.w3.org/2000/svg" width="31" height="24" preserveAspectRatio="none"><defs><style>.cls-1 { fill: #7a8185; stroke: #7a8185; stroke-width: 1px; } .cls-1, .cls-2 { fill-rule: evenodd; } .cls-2 { fill: #16b0c5; }</style></defs><path d="M26.9 22.7c3.4-.36 4-1.12 4.08-1.4l.02-.07v-.07c0-.08-.1-3.35-.36-4.1-.24-.75-.56-1.2-1.08-1.58-.23-.16-.94-.45-2.07-.9-1-.4-2.1-.84-2.47-1.07-.25-.15-.47-.6-.5-.93 0-.07 0-.22 0-.27 0 0 0 0 .02-.03.05-.05.13-.15.15-.18.48-.56 1.05-1.55 1.3-2.54.1-.37.84-3.63-.6-5.7-.6-.9-1.55-1.42-2.77-1.54V2.3h-.78v.02c-.5.05-.96.17-1.36.35.07.22.14.44.2.66.43-.2.92-.3 1.5-.33h.09c1.16.04 2.04.47 2.6 1.27 1 1.47.77 3.9.47 5.1-.22.88-.74 1.78-1.14 2.24 0 .02-.12.15-.16.2l-.03.03c-.06.1-.1.2-.14.28-.04.18 0 .52 0 .54.03.5.34 1.2.8 1.47.43.27 1.52.7 2.56 1.13.83.33 1.76.7 1.94.84.34.24.6.54.83 1.22.17.5.27 3.2.3 3.77-.16.15-.9.65-3.47.94.02.3.04.55.05.7zm-21.76-.5c-2.58-.3-3.3-.78-3.48-.94.04-.57.14-3.27.3-3.78.24-.68.5-.97.84-1.22.18-.13 1.1-.5 1.94-.83 1.04-.42 2.13-.86 2.55-1.12.46-.28.77-.96.8-1.47 0 0 .04-.35 0-.52-.03-.1-.08-.18-.14-.27L7.93 12c-.04-.05-.15-.18-.16-.2-.4-.46-.92-1.36-1.14-2.23-.3-1.2-.53-3.63.48-5.1.56-.8 1.44-1.23 2.6-1.27h.11c.58.02 1.07.13 1.5.33.06-.22.13-.45.2-.66-.4-.2-.85-.3-1.35-.35V2.5h-.78v.02c-1.22.1-2.16.63-2.78 1.53-1.44 2.07-.7 5.34-.6 5.7.25 1 .82 1.98 1.3 2.54.02 0 .1.1.15.16 0 .02.02.04.02.04 0 .05 0 .2 0 .27-.03.3-.25.78-.5.93-.38.23-1.48.68-2.46 1.07-1.12.46-1.83.75-2.06.9-.52.38-.84.84-1.08 1.58C1.1 18 1 21.28 1 21.35v.07l.02.07c.1.27.67 1.03 4.07 1.4 0-.15.02-.4.04-.7z" class="cls-1"/><path d="M12.96 11c.2.23.33.4.38.57.22.66-.42 2.1-.96 2.44-.53.33-1.9.88-3.2 1.4-1.05.43-2.23.9-2.46 1.06-.45.33-.8.7-1.08 1.6-.25.73-.38 4-.4 4.45.2.2 1.76 1.5 10.29 1.5 8.3 0 10-1.24 10.28-1.52-.02-.5-.14-3.7-.38-4.43-.3-.88-.64-1.26-1.1-1.6-.2-.15-1.4-.62-2.44-1.04-1.3-.52-2.68-1.07-3.2-1.4-.62-.37-1-1.83-1-2.32 0-.15.07-.28.4-.68.52-.6 1.2-1.75 1.47-2.86.38-1.53.68-4.62-.62-6.5C18.23.6 17.1.06 15.6 0h-.14c-1.5.06-2.63.6-3.34 1.64-1.3 1.88-1 4.97-.62 6.5.28 1.1.95 2.26 1.45 2.85h.02z" class="cls-2"/></svg>