<svg xmlns="http://www.w3.org/2000/svg" width="33.5" height="33.5" preserveAspectRatio="none"><defs><style>.cls-1 { fill: #7a8185; } .cls-1, .cls-3 { fill-rule: evenodd; } .cls-2 { fill: #fff; stroke: #16b0c5; stroke-width: 1px; } .cls-3 { fill: #16b0c5; }</style></defs><path d="M26.73 28H1.4S0 28 0 26.66V2h5l.1 2H2v22h24V4h-3V2h5v24.66C28 28 26.73 28 26.73 28zM21 6c-.7 0-1-.26-1-1V1c0-.74.3-1 1-1s1 .26 1 1v4c0 .74-.3 1-1 1zM9 2h10v2H9V2zm10.65 11.8c-.1-.24-.23-.5 0 0zm.7 3.7c0 1.42-.17 2.6-.55 3.5-.54 1.34-1.42 2-2.65 2-1.1 0-1.93-.54-2.47-1.63-.46-.9-.68-2.1-.68-3.64 0-1.18.13-2.2.4-3.03.5-1.58 1.43-2.37 2.76-2.37 1.2 0 2.05.56 2.6 1.66.4.85.6 2.02.6 3.5zm-1.64-2.73c-.25-.74-.74-1.1-1.48-1.1-.67 0-1.17.34-1.48 1.04-.3.7-.47 1.73-.47 3.1 0 1 .1 1.83.3 2.45.3.94.83 1.4 1.57 1.4.6.02 1.07-.27 1.42-.85.35-.58.53-1.66.53-3.23 0-1.14-.14-2.07-.4-2.8zm-8.27-2.44h1.02V23H10.2v-7.97H7.64v-.9c.94-.1 1.6-.23 1.97-.42.37-.18.64-.64.83-1.37zM3 8h22v1H3V8zm4-2c-.53 0-1-.45-1-1V1c0-.56.47-1 1-1 0 0 1 .04 1 1v4c0 .82-1 1-1 1z" class="cls-1"/><circle cx="26.5" cy="26.5" r="6.5" class="cls-2"/><path d="M26.5 23c.28 0 .5.22.5.5v3c0 .28-.22.5-.5.5s-.5-.22-.5-.5v-3c0-.28.22-.5.5-.5zM26.5 26h3c.28 0 .5.22.5.5s-.22.5-.5.5h-3c-.28 0-.5-.22-.5-.5s.22-.5.5-.5z" class="cls-3"/></svg>