<svg xmlns="http://www.w3.org/2000/svg" viewBox="0 0 23 24" enable-background="new 0 0 23 24" preserveAspectRatio="none"><style type="text/css">.st0{fill:#82888C;} .st1{fill:#13B0C5;}</style><path d="M22 9l-9 4v10l9-4.3V8.6m.3-1.3c.3 0 .7.3.7.7v11c0 .3-.2.6-.4.7L13 23.9c-.1 0-.2.1-.3.1-.4 0-.7-.3-.7-.7V12.4c0-.3.2-.6.4-.7L22 7.4c.1-.1.2-.1.3-.1zM11.4 1.2L2.3 5.4l9.2 4.2 9.1-4.2-9.2-4.2m0-1.2c.1 0 .2 0 .3.1l10 4.6c.6.3.6 1.1 0 1.4l-10 4.7c-.1 0-.2.1-.3.1-.1 0-.2 0-.3-.1l-10-4.6C.5 5.8.5 5 1.1 4.7l10-4.7c.1 0 .2 0 .3 0z" class="st0"/><path d="M0 19V8.1c0-.5.5-.9 1-.7l9.5 4.2c.3.1.4.4.4.7v10.9c0 .5-.5.9-1 .7L.4 19.7c-.2-.1-.4-.4-.4-.7z" class="st1"/></svg>