<svg xmlns="http://www.w3.org/2000/svg" width="23.125" height="30" preserveAspectRatio="none"><defs><style>.cls-1 { fill: #82888c; } .cls-1, .cls-2 { fill-rule: evenodd; } .cls-2 { fill: #16b0c5; }</style></defs><path d="M14 23H2V2h16v12h2V1c0-.42-.6-1-1-1H.74C.34 0 0 .34 0 .75V26c0 .42.6 1 1 1h13v-4zm-4 3c-.45 0-1-.54-1-1 0-.46.55-1 1-1 .45 0 1 .54 1 1 0 .46-.55 1-1 1z" class="cls-1"/><path d="M23 15h-8c.04.03 0 .77 0 1v13c0 .23.77 1 1 1h6c.23 0 1-.77 1-1V15c0-.23.23 0 0 0zm-4.14 14.23c-.25 0-.45-.2-.45-.46s.2-.46.46-.46c.25 0 .45.2.45.47 0 .25-.2.46-.44.46zM22 28h-6V16h6v12z" class="cls-2"/></svg>