<svg xmlns="http://www.w3.org/2000/svg" width="26" height="26" preserveAspectRatio="none"><defs><style>.cls-1 { fill: #82888c; } .cls-1, .cls-2 { fill-rule: evenodd; } .cls-2 { fill: #16b0c5; }</style></defs><path d="M11.07 23.9c-.94-.16-1.84-.45-2.7-.85-.2-.1-.4-.2-.6-.32-.37-.2-.7-.4-1.05-.65-4.92-3.5-6.1-10.36-2.64-15.3.76-1.1 1.67-2 2.68-2.7.02 0 .03-.02.04-.02 3.58-2.5 8.44-2.66 12.25-.1l-.82 1.18c-.23.34-.1.58.3.54l3.56-.32c.38-.04.62-.38.5-.77l-.94-3.47c-.1-.38-.38-.43-.6-.1l-.82 1.2C17.44.32 14.1-.38 10.78.2c-.33.05-.66.13-1 .2 0 0-.02.02-.04.02-2.86.74-5.36 2.43-7.14 4.83-.02 0-.03.03-.05.05-.05.08-.1.16-.17.25-.1.13-.2.27-.28.4 0 .02-.02.04-.03.06C.6 8.3-.1 10.97 0 13.67c0 0 0 .02 0 .03.03.26.05.52.07.8 0 0 0 .02 0 .04.04.26.08.53.12.8.46 2.7 1.73 5.14 3.63 7.04.02 0 .02.02.02.02.5.5 1.07.97 1.66 1.4 1.58 1.1 3.32 1.84 5.2 2.18.57.1 1.1-.28 1.2-.85.1-.57-.27-1.12-.83-1.22z" class="cls-1"/><path d="M24.93 14.42c-.22 0-.42-.08-.58-.2-.28-.2-.45-.52-.44-.88 0-.22 0-.45 0-.67-.02-.58.43-1.07 1-1.1.58-.02 1.07.44 1.1 1.02 0 .25 0 .52 0 .8-.02.57-.5 1.03-1.07 1.02zm-.25-4.1c-.33.1-.67.04-.94-.14-.17-.13-.3-.3-.38-.53-.07-.2-.15-.43-.23-.63-.22-.54.04-1.15.58-1.37.55-.22 1.15.05 1.37.6.1.23.2.48.27.74.18.54-.12 1.13-.66 1.32zm-1.3 10.64c-.15.2-.3.42-.48.63-.36.4-.96.47-1.4.16-.03 0-.05-.03-.08-.06-.44-.37-.5-1.04-.12-1.48.15-.17.3-.34.42-.52.35-.47 1-.56 1.46-.2.47.34.56 1 .2 1.46zM20.2 24c-.23.16-.45.3-.68.43-.36.2-.8.18-1.13-.05-.12-.08-.22-.2-.3-.33-.3-.5-.1-1.15.4-1.44.18-.1.37-.22.55-.34.48-.32 1.13-.2 1.45.3.32.48.2 1.13-.3 1.45zm-4.05 1.8c-.25.07-.5.12-.77.17-.3.06-.57-.02-.8-.17-.2-.16-.37-.4-.42-.67-.1-.57.27-1.12.84-1.23.2-.04.43-.1.65-.14.56-.14 1.12.2 1.26.77.13.56-.2 1.13-.77 1.27zM23.2 17c.07-.2.14-.42.2-.63.18-.55.77-.86 1.32-.7.55.2.86.78.7 1.33-.1.25-.18.5-.27.75-.2.55-.8.82-1.35.6-.1-.02-.16-.06-.23-.1-.4-.28-.55-.8-.38-1.25z" class="cls-2"/><path d="M13 6c.55 0 1 .45 1 1v7c0 .55-.45 1-1 1s-1-.45-1-1V7c0-.55.45-1 1-1zM13 13h7c.55 0 1 .45 1 1s-.45 1-1 1h-7c-.55 0-1-.45-1-1s.45-1 1-1z" class="cls-1"/></svg>