<svg xmlns="http://www.w3.org/2000/svg" width="1936.886" height="673.024" preserveAspectRatio="none" viewBox="0 0 1744 606"><defs><style>.cls-1 { fill: #2e2e2e; stroke-width: 2px; } .cls-1, .cls-3 { stroke: #16b0c5; } .cls-2 { fill: #16b0c5; } .cls-3, .cls-5, .cls-7 { stroke-width: 1px; } .cls-3, .cls-4, .cls-5, .cls-7 { fill: none; } .cls-4 { stroke: #474747; stroke-width: 8px; } .cls-5 { stroke: #0ac5ab; } .cls-6 { fill: #0ac5ab; } .cls-7 { stroke: #efc75e; } .cls-8 { fill: #efc75e; } .cls-10, .cls-9 { fill: #545454; } .cls-10 { fill-rule: evenodd; }</style></defs><circle cx="1529.5" cy="192.5" r="8.5" class="cls-1"/><circle cx="1681.5" cy="100.5" r="8.5" class="cls-1"/><circle cx="1708.5" cy="458.5" r="8.5" class="cls-1"/><circle cx="1208.5" cy="528.5" r="8.5" class="cls-1"/><circle cx="1233.5" cy="155.5" r="8.5" class="cls-1"/><circle cx="240.5" cy="22.5" r="8.5" class="cls-1"/><circle cx="30.5" cy="426.5" r="8.5" class="cls-1"/><circle cx="321.5" cy="206.5" r="8.5" class="cls-1"/><circle cx="1110.5" cy="374.5" r="8.5" class="cls-1"/><circle cx="1517" cy="377" r="5" class="cls-2"/><circle cx="1739" cy="215" r="5" class="cls-2"/><circle cx="1668" cy="5" r="5" class="cls-2"/><circle cx="1553" cy="151" r="5" class="cls-2"/><circle cx="1248" cy="13" r="5" class="cls-2"/><circle cx="897" cy="156" r="5" class="cls-2"/><circle cx="545" cy="509" r="5" class="cls-2"/><circle cx="352" cy="298" r="5" class="cls-2"/><circle cx="335" cy="47" r="5" class="cls-2"/><circle cx="142" cy="220" r="10" class="cls-3"/><circle cx="142" cy="220" r="15" class="cls-4"/><circle cx="142" cy="220" r="5" class="cls-2"/><circle cx="1100" cy="33" r="10" class="cls-5"/><circle cx="1100" cy="33" r="15" class="cls-4"/><circle cx="1100" cy="33" r="5" class="cls-6"/><circle cx="1473" cy="441" r="10" class="cls-7"/><circle cx="1473" cy="441" r="15" class="cls-4"/><circle cx="1473" cy="441" r="5" class="cls-8"/><circle cx="117" cy="464" r="5" class="cls-2"/><circle cx="379.297" cy="426.015" r="1.609" class="cls-9"/><circle cx="392.172" cy="337.8" r="1.609" class="cls-9"/><path d="M343.26 350.98c.9 0 1.6.72 1.6 1.6 0 .9-.7 1.62-1.6 1.62-.9 0-1.6-.72-1.6-1.6 0-.9.7-1.62 1.6-1.62z" class="cls-10"/><circle cx="392.172" cy="384.14" r="1.609" class="cls-9"/><path d="M431.4 367.08c.9 0 1.62.72 1.62 1.6 0 .9-.72 1.62-1.6 1.62-.9 0-1.62-.72-1.62-1.6 0-.9.72-1.62 1.6-1.62z" class="cls-10"/><circle cx="428.203" cy="418.92" r="1.609" class="cls-9"/><path d="M382.5 490.08c.9 0 1.62.72 1.62 1.6 0 .9-.72 1.62-1.6 1.62-.9 0-1.62-.72-1.62-1.6 0-.9.72-1.62 1.6-1.62z" class="cls-10"/><circle cx="428.203" cy="444.67" r="1.609" class="cls-9"/><path d="M411.46 293.03c.9 0 1.6.72 1.6 1.6 0 .9-.7 1.62-1.6 1.62-.88 0-1.6-.73-1.6-1.6 0-.9.7-1.62 1.6-1.62z" class="cls-10"/><circle cx="327.172" cy="317.83" r="1.609" class="cls-9"/><circle cx="327.172" cy="227.67" r="1.609" class="cls-9"/><circle cx="381.235" cy="212.2" r="1.609" class="cls-9"/><circle cx="349.703" cy="138.8" r="1.609" class="cls-9"/><path d="M408.25 99.84c.88 0 1.6.72 1.6 1.6 0 .9-.72 1.62-1.6 1.62-.9 0-1.6-.73-1.6-1.6 0-.9.7-1.62 1.6-1.62z" class="cls-10"/><circle cx="336.828" cy="75.685" r="1.609" class="cls-9"/><path d="M295 157.8c.9 0 1.6.7 1.6 1.6 0 .9-.7 1.6-1.6 1.6-.88 0-1.6-.7-1.6-1.6 0-.9.72-1.6 1.6-1.6zM395.38 173.25c.9 0 1.6.72 1.6 1.6 0 .9-.7 1.62-1.6 1.62-.9 0-1.6-.72-1.6-1.6 0-.9.7-1.62 1.6-1.62z" class="cls-10"/><circle cx="479.671" cy="82.77" r="1.609" class="cls-9"/><circle cx="443.64" cy="30.61" r="1.61" class="cls-9"/><circle cx="525.36" cy="152.95" r="1.61" class="cls-9"/><path d="M471.94 213.82c.9 0 1.6.72 1.6 1.6 0 .9-.7 1.62-1.6 1.62-.88 0-1.6-.72-1.6-1.6 0-.9.72-1.62 1.6-1.62z" class="cls-10"/><circle cx="434.64" cy="239.27" r="1.61" class="cls-9"/><path d="M505.4 293.03c.9 0 1.6.72 1.6 1.6 0 .9-.7 1.62-1.6 1.62-.9 0-1.6-.73-1.6-1.6 0-.9.7-1.62 1.6-1.62zM456.5 324.58c.9 0 1.6.72 1.6 1.6 0 .9-.7 1.62-1.6 1.62-.9 0-1.6-.72-1.6-1.6 0-.9.7-1.62 1.6-1.62z" class="cls-10"/><circle cx="493.171" cy="373.845" r="1.609" class="cls-9"/><path d="M474.52 431.48c.9 0 1.6.72 1.6 1.6 0 .9-.7 1.62-1.6 1.62-.9 0-1.6-.72-1.6-1.6 0-.9.7-1.62 1.6-1.62z" class="cls-10"/><circle cx="434.64" cy="503.285" r="1.61" class="cls-9"/><circle cx="376.078" cy="527.11" r="1.609" class="cls-9"/><path d="M327.18 486.86c.88 0 1.6.72 1.6 1.6 0 .9-.72 1.62-1.6 1.62-.9 0-1.6-.72-1.6-1.6 0-.9.7-1.62 1.6-1.62z" class="cls-10"/><circle cx="291.797" cy="469.14" r="1.609" class="cls-9"/><path d="M270.56 444.36c.88 0 1.6.72 1.6 1.6 0 .9-.72 1.62-1.6 1.62-.9 0-1.6-.72-1.6-1.6 0-.9.7-1.62 1.6-1.62zM288.57 324.58c.9 0 1.6.72 1.6 1.6 0 .9-.7 1.62-1.6 1.62-.9 0-1.6-.72-1.6-1.6 0-.9.7-1.62 1.6-1.62z" class="cls-10"/><circle cx="298.235" cy="268.89" r="1.609" class="cls-9"/><path d="M274.42 224.12c.88 0 1.6.72 1.6 1.6 0 .9-.72 1.62-1.6 1.62-.9 0-1.6-.72-1.6-1.6 0-.9.7-1.62 1.6-1.62zM312.38 195.14c.9 0 1.6.72 1.6 1.6 0 .9-.7 1.62-1.6 1.62-.9 0-1.6-.72-1.6-1.6 0-.9.7-1.62 1.6-1.62zM345.2 186.77c.88 0 1.6.72 1.6 1.6 0 .9-.72 1.62-1.6 1.62-.9 0-1.62-.73-1.62-1.62 0-.9.72-1.6 1.6-1.6z" class="cls-10"/><circle cx="309.172" cy="118.83" r="1.609" class="cls-9"/><path d="M283.42 84.38c.9 0 1.6.72 1.6 1.6 0 .9-.7 1.62-1.6 1.62-.88 0-1.6-.72-1.6-1.6 0-.9.72-1.62 1.6-1.62z" class="cls-10"/><circle cx="275.703" cy="38.985" r="1.609" class="cls-9"/><ellipse cx="330.39" cy="48.64" rx="1.609" ry="1.61" class="cls-9"/><circle cx="301.453" cy="517.45" r="1.609" class="cls-9"/><path d="M305.94 564.78c.9 0 1.6.72 1.6 1.6 0 .9-.7 1.62-1.6 1.62-.88 0-1.6-.72-1.6-1.6 0-.9.72-1.62 1.6-1.62zM384.44 561.56c.9 0 1.6.72 1.6 1.6 0 .9-.7 1.62-1.6 1.62-.9 0-1.6-.72-1.6-1.6 0-.9.7-1.62 1.6-1.62z" class="cls-10"/><circle cx="428.203" cy="530.33" r="1.609" class="cls-9"/><circle cx="489.329" cy="454.985" r="1.609" class="cls-9"/><path d="M530.5 365.15c.88 0 1.6.72 1.6 1.6 0 .9-.72 1.62-1.6 1.62-.9 0-1.6-.72-1.6-1.6 0-.9.7-1.62 1.6-1.62zM553 289.8c.9 0 1.62.73 1.62 1.62 0 .9-.72 1.6-1.6 1.6-.9 0-1.6-.7-1.6-1.6 0-.9.7-1.6 1.6-1.6z" class="cls-10"/><circle cx="110.359" cy="426.015" r="1.609" class="cls-9"/><circle cx="123.203" cy="337.8" r="1.609" class="cls-9"/><path d="M74.3 350.98c.9 0 1.62.72 1.62 1.6 0 .9-.72 1.62-1.6 1.62-.9 0-1.6-.72-1.6-1.6 0-.9.7-1.62 1.6-1.62z" class="cls-10"/><circle cx="123.203" cy="384.14" r="1.609" class="cls-9"/><path d="M162.46 367.08c.9 0 1.6.72 1.6 1.6 0 .9-.7 1.62-1.6 1.62-.9 0-1.6-.72-1.6-1.6 0-.9.7-1.62 1.6-1.62z" class="cls-10"/><circle cx="159.234" cy="418.92" r="1.609" class="cls-9"/><path d="M113.56 490.08c.9 0 1.6.72 1.6 1.6 0 .9-.7 1.62-1.6 1.62-.9 0-1.6-.72-1.6-1.6 0-.9.7-1.62 1.6-1.62z" class="cls-10"/><circle cx="159.234" cy="444.67" r="1.609" class="cls-9"/><ellipse cx="142.516" cy="294.64" rx="1.609" ry="1.61" class="cls-9"/><circle cx="58.234" cy="317.83" r="1.609" class="cls-9"/><circle cx="58.234" cy="227.67" r="1.609" class="cls-9"/><circle cx="112.266" cy="212.2" r="1.609" class="cls-9"/><circle cx="80.734" cy="138.8" r="1.609" class="cls-9"/><ellipse cx="139.297" cy="101.45" rx="1.609" ry="1.61" class="cls-9"/><circle cx="67.891" cy="75.685" r="1.609" class="cls-9"/><path d="M26.06 157.8c.9 0 1.6.7 1.6 1.6 0 .9-.7 1.6-1.6 1.6-.9 0-1.6-.7-1.6-1.6 0-.9.7-1.6 1.6-1.6zM126.43 173.25c.9 0 1.6.72 1.6 1.6 0 .9-.7 1.62-1.6 1.62-.9 0-1.6-.72-1.6-1.6 0-.9.7-1.62 1.6-1.62z" class="cls-10"/><circle cx="210.719" cy="82.77" r="1.594" class="cls-9"/><circle cx="174.688" cy="30.61" r="1.594" class="cls-9"/><path d="M256.4 151.35c.9 0 1.6.72 1.6 1.6 0 .9-.7 1.62-1.6 1.62-.9 0-1.6-.72-1.6-1.6 0-.9.7-1.62 1.6-1.62zM203 213.82c.88 0 1.6.72 1.6 1.6 0 .9-.72 1.62-1.6 1.62-.9 0-1.6-.72-1.6-1.6 0-.9.7-1.62 1.6-1.62z" class="cls-10"/><circle cx="165.672" cy="239.27" r="1.609" class="cls-9"/><path d="M236.46 293.03c.88 0 1.6.72 1.6 1.6 0 .9-.72 1.62-1.6 1.62-.9 0-1.6-.73-1.6-1.6 0-.9.7-1.62 1.6-1.62zM187.56 324.58c.88 0 1.6.72 1.6 1.6 0 .9-.72 1.62-1.6 1.62-.9 0-1.6-.72-1.6-1.6 0-.9.7-1.62 1.6-1.62z" class="cls-10"/><circle cx="224.235" cy="373.845" r="1.609" class="cls-9"/><path d="M205.57 431.48c.9 0 1.6.72 1.6 1.6 0 .9-.7 1.62-1.6 1.62-.9 0-1.6-.72-1.6-1.6 0-.9.7-1.62 1.6-1.62z" class="cls-10"/><circle cx="165.672" cy="503.285" r="1.609" class="cls-9"/><circle cx="107.141" cy="527.11" r="1.609" class="cls-9"/><path d="M58.23 486.86c.9 0 1.6.72 1.6 1.6 0 .9-.7 1.62-1.6 1.62-.9 0-1.6-.72-1.6-1.6 0-.9.7-1.62 1.6-1.62z" class="cls-10"/><circle cx="22.828" cy="469.14" r="1.61" class="cls-9"/><circle cx="1.609" cy="445.965" r="1.609" class="cls-9"/><circle cx="19.625" cy="326.2" r="1.594" class="cls-9"/><circle cx="29.266" cy="268.89" r="1.609" class="cls-9"/><path d="M5.47 224.12c.9 0 1.6.72 1.6 1.6 0 .9-.7 1.62-1.6 1.62-.9 0-1.6-.72-1.6-1.6 0-.9.7-1.62 1.6-1.62zM43.43 195.14c.9 0 1.6.72 1.6 1.6 0 .9-.7 1.62-1.6 1.62-.9 0-1.6-.72-1.6-1.6 0-.9.7-1.62 1.6-1.62zM76.25 186.77c.88 0 1.6.72 1.6 1.6 0 .9-.72 1.62-1.6 1.62-.9 0-1.6-.73-1.6-1.62 0-.9.7-1.6 1.6-1.6z" class="cls-10"/><circle cx="40.203" cy="118.83" r="1.609" class="cls-9"/><path d="M14.48 84.38c.88 0 1.6.72 1.6 1.6 0 .9-.7 1.62-1.6 1.62-.9 0-1.6-.72-1.6-1.6 0-.9.7-1.62 1.6-1.62z" class="cls-10"/><circle cx="6.766" cy="38.985" r="1.609" class="cls-9"/><ellipse cx="61.453" cy="48.64" rx="1.609" ry="1.61" class="cls-9"/><circle cx="32.484" cy="517.45" r="1.609" class="cls-9"/><path d="M37 564.78c.88 0 1.6.72 1.6 1.6 0 .9-.72 1.62-1.6 1.62-.9 0-1.6-.72-1.6-1.6 0-.9.7-1.62 1.6-1.62zM115.5 561.56c.88 0 1.6.72 1.6 1.6 0 .9-.72 1.62-1.6 1.62-.9 0-1.62-.72-1.62-1.6 0-.9.72-1.62 1.6-1.62z" class="cls-10"/><circle cx="159.234" cy="530.33" r="1.609" class="cls-9"/><circle cx="220.36" cy="454.985" r="1.609" class="cls-9"/><path d="M261.55 365.15c.9 0 1.6.72 1.6 1.6 0 .9-.7 1.62-1.6 1.62-.9 0-1.6-.72-1.6-1.6 0-.9.7-1.62 1.6-1.62zM284.07 289.8c.9 0 1.6.73 1.6 1.62 0 .9-.7 1.6-1.6 1.6-.9 0-1.6-.7-1.6-1.6 0-.9.7-1.6 1.6-1.6z" class="cls-10"/><circle cx="656.61" cy="426.015" r="1.61" class="cls-9"/><path d="M669.47 336.17c.9 0 1.6.72 1.6 1.6 0 .9-.7 1.62-1.6 1.62-.9 0-1.6-.73-1.6-1.62 0-.9.7-1.6 1.6-1.6z" class="cls-10"/><circle cx="620.579" cy="352.58" r="1.609" class="cls-9"/><path d="M669.47 382.54c.9 0 1.6.72 1.6 1.6 0 .9-.7 1.62-1.6 1.62-.9 0-1.6-.72-1.6-1.6 0-.9.7-1.62 1.6-1.62z" class="cls-10"/><circle cx="708.735" cy="368.7" r="1.61" class="cls-9"/><path d="M705.5 417.3c.9 0 1.6.73 1.6 1.62 0 .9-.7 1.6-1.6 1.6-.88 0-1.6-.7-1.6-1.6 0-.9.72-1.6 1.6-1.6z" class="cls-10"/><circle cx="659.829" cy="491.7" r="1.609" class="cls-9"/><path d="M705.5 443.07c.9 0 1.6.72 1.6 1.6 0 .9-.7 1.62-1.6 1.62-.88 0-1.6-.73-1.6-1.62 0-.9.72-1.6 1.6-1.6z" class="cls-10"/><circle cx="688.765" cy="294.64" r="1.61" class="cls-9"/><path d="M604.5 316.2c.88 0 1.6.73 1.6 1.62 0 .9-.72 1.6-1.6 1.6-.9 0-1.62-.7-1.62-1.6 0-.9.72-1.6 1.6-1.6zM604.5 226.05c.88 0 1.6.72 1.6 1.6 0 .9-.72 1.62-1.6 1.62-.9 0-1.62-.72-1.62-1.6 0-.9.72-1.62 1.6-1.62zM658.53 210.6c.9 0 1.6.72 1.6 1.6 0 .9-.7 1.62-1.6 1.62-.88 0-1.6-.72-1.6-1.6 0-.9.72-1.62 1.6-1.62z" class="cls-10"/><circle cx="627.015" cy="138.8" r="1.61" class="cls-9"/><circle cx="685.547" cy="101.45" r="1.609" class="cls-9"/><circle cx="614.14" cy="75.685" r="1.61" class="cls-9"/><path d="M572.32 157.8c.88 0 1.6.7 1.6 1.6 0 .9-.7 1.6-1.6 1.6-.9 0-1.6-.7-1.6-1.6 0-.9.7-1.6 1.6-1.6z" class="cls-10"/><circle cx="672.703" cy="174.86" r="1.609" class="cls-9"/><circle cx="756.985" cy="82.77" r="1.61" class="cls-9"/><circle cx="720.953" cy="30.61" r="1.609" class="cls-9"/><circle cx="802.671" cy="152.95" r="1.609" class="cls-9"/><path d="M749.25 213.82c.9 0 1.6.72 1.6 1.6 0 .9-.7 1.62-1.6 1.62-.88 0-1.6-.72-1.6-1.6 0-.9.72-1.62 1.6-1.62z" class="cls-10"/><circle cx="711.938" cy="239.27" r="1.593" class="cls-9"/><circle cx="782.703" cy="294.64" r="1.609" class="cls-9"/><circle cx="733.829" cy="326.2" r="1.609" class="cls-9"/><path d="M770.5 372.23c.88 0 1.6.72 1.6 1.6 0 .9-.72 1.62-1.6 1.62-.9 0-1.62-.72-1.62-1.6 0-.9.72-1.62 1.6-1.62z" class="cls-10"/><circle cx="751.829" cy="433.08" r="1.609" class="cls-9"/><circle cx="711.938" cy="503.285" r="1.593" class="cls-9"/><ellipse cx="653.39" cy="527.11" rx="1.61" ry="1.61" class="cls-9"/><circle cx="604.485" cy="488.485" r="1.61" class="cls-9"/><circle cx="569.11" cy="469.14" r="1.61" class="cls-9"/><circle cx="547.86" cy="445.965" r="1.61" class="cls-9"/><circle cx="565.89" cy="326.2" r="1.61" class="cls-9"/><path d="M575.53 267.27c.9 0 1.6.72 1.6 1.6 0 .9-.7 1.62-1.6 1.62-.88 0-1.6-.73-1.6-1.62 0-.9.72-1.6 1.6-1.6z" class="cls-10"/><circle cx="551.735" cy="225.73" r="1.61" class="cls-9"/><circle cx="589.703" cy="196.77" r="1.609" class="cls-9"/><circle cx="622.515" cy="188.39" r="1.61" class="cls-9"/><path d="M586.47 117.22c.9 0 1.6.72 1.6 1.6 0 .9-.7 1.62-1.6 1.62-.9 0-1.6-.72-1.6-1.6 0-.9.7-1.62 1.6-1.62z" class="cls-10"/><circle cx="560.735" cy="85.985" r="1.61" class="cls-9"/><circle cx="553.015" cy="38.985" r="1.61" class="cls-9"/><circle cx="607.703" cy="48.64" r="1.609" class="cls-9"/><path d="M578.75 515.84c.9 0 1.6.72 1.6 1.6 0 .9-.7 1.62-1.6 1.62-.9 0-1.6-.72-1.6-1.6 0-.9.7-1.62 1.6-1.62zM583.25 564.78c.9 0 1.6.72 1.6 1.6 0 .9-.7 1.62-1.6 1.62-.88 0-1.6-.72-1.6-1.6 0-.9.72-1.62 1.6-1.62z" class="cls-10"/><circle cx="661.765" cy="563.17" r="1.61" class="cls-9"/><path d="M705.5 528.72c.9 0 1.6.72 1.6 1.6 0 .9-.7 1.62-1.6 1.62-.88 0-1.6-.72-1.6-1.6 0-.9.72-1.62 1.6-1.62z" class="cls-10"/><circle cx="766.64" cy="454.985" r="1.61" class="cls-9"/><circle cx="807.797" cy="366.77" r="1.609" class="cls-9"/><path d="M830.33 289.8c.88 0 1.6.73 1.6 1.62 0 .9-.72 1.6-1.6 1.6-.9 0-1.6-.7-1.6-1.6 0-.9.7-1.6 1.6-1.6z" class="cls-10"/><circle cx="933.27" cy="426.015" r="1.61" class="cls-9"/><circle cx="946.14" cy="337.8" r="1.61" class="cls-9"/><path d="M897.24 350.98c.9 0 1.6.72 1.6 1.6 0 .9-.7 1.62-1.6 1.62-.9 0-1.6-.72-1.6-1.6 0-.9.7-1.62 1.6-1.62z" class="cls-10"/><circle cx="946.14" cy="384.14" r="1.61" class="cls-9"/><path d="M985.4 367.08c.88 0 1.6.72 1.6 1.6 0 .9-.72 1.62-1.6 1.62-.9 0-1.62-.72-1.62-1.6 0-.9.72-1.62 1.6-1.62z" class="cls-10"/><circle cx="982.17" cy="418.92" r="1.61" class="cls-9"/><path d="M936.5 490.08c.88 0 1.6.72 1.6 1.6 0 .9-.72 1.62-1.6 1.62-.9 0-1.62-.72-1.62-1.6 0-.9.72-1.62 1.6-1.62z" class="cls-10"/><circle cx="982.17" cy="444.67" r="1.61" class="cls-9"/><path d="M965.44 293.03c.9 0 1.6.72 1.6 1.6 0 .9-.7 1.62-1.6 1.62-.9 0-1.6-.73-1.6-1.6 0-.9.7-1.62 1.6-1.62z" class="cls-10"/><circle cx="881.14" cy="317.83" r="1.61" class="cls-9"/><circle cx="881.14" cy="227.67" r="1.61" class="cls-9"/><circle cx="935.2" cy="212.2" r="1.61" class="cls-9"/><circle cx="903.671" cy="138.8" r="1.609" class="cls-9"/><path d="M962.23 99.84c.88 0 1.6.72 1.6 1.6 0 .9-.72 1.62-1.6 1.62-.9 0-1.6-.73-1.6-1.6 0-.9.7-1.62 1.6-1.62z" class="cls-10"/><circle cx="890.797" cy="75.685" r="1.609" class="cls-9"/><path d="M849 157.8c.87 0 1.6.7 1.6 1.6 0 .9-.73 1.6-1.62 1.6-.88 0-1.6-.7-1.6-1.6 0-.9.72-1.6 1.6-1.6z" class="cls-10"/><circle cx="949.36" cy="174.86" r="1.61" class="cls-9"/><circle cx="1033.64" cy="82.77" r="1.61" class="cls-9"/><circle cx="997.61" cy="30.61" r="1.61" class="cls-9"/><circle cx="1079.33" cy="152.95" r="1.61" class="cls-9"/><path d="M1025.92 213.82c.9 0 1.6.72 1.6 1.6 0 .9-.7 1.62-1.6 1.62-.88 0-1.6-.72-1.6-1.6 0-.9.72-1.62 1.6-1.62z" class="cls-10"/><circle cx="988.61" cy="239.27" r="1.61" class="cls-9"/><path d="M1059.38 293.03c.9 0 1.6.72 1.6 1.6 0 .9-.7 1.62-1.6 1.62-.9 0-1.6-.73-1.6-1.6 0-.9.7-1.62 1.6-1.62zM1010.48 324.58c.9 0 1.6.72 1.6 1.6 0 .9-.7 1.62-1.6 1.62-.9 0-1.6-.72-1.6-1.6 0-.9.7-1.62 1.6-1.62z" class="cls-10"/><circle cx="1047.155" cy="373.845" r="1.595" class="cls-9"/><path d="M1028.5 431.48c.88 0 1.6.72 1.6 1.6 0 .9-.7 1.62-1.6 1.62-.9 0-1.6-.72-1.6-1.6 0-.9.7-1.62 1.6-1.62z" class="cls-10"/><circle cx="988.61" cy="503.285" r="1.61" class="cls-9"/><circle cx="930.05" cy="527.11" r="1.61" class="cls-9"/><path d="M881.15 486.86c.9 0 1.6.72 1.6 1.6 0 .9-.7 1.62-1.6 1.62-.88 0-1.6-.72-1.6-1.6 0-.9.72-1.62 1.6-1.62z" class="cls-10"/><circle cx="845.765" cy="469.14" r="1.61" class="cls-9"/><path d="M824.53 444.36c.9 0 1.6.72 1.6 1.6 0 .9-.7 1.62-1.6 1.62-.88 0-1.6-.72-1.6-1.6 0-.9.72-1.62 1.6-1.62zM842.55 324.58c.9 0 1.6.72 1.6 1.6 0 .9-.7 1.62-1.6 1.62-.9 0-1.6-.72-1.6-1.6 0-.9.7-1.62 1.6-1.62z" class="cls-10"/><circle cx="852.203" cy="268.89" r="1.609" class="cls-9"/><path d="M828.4 224.12c.88 0 1.6.72 1.6 1.6 0 .9-.72 1.62-1.6 1.62-.9 0-1.6-.72-1.6-1.6 0-.9.7-1.62 1.6-1.62z" class="cls-10"/><circle cx="866.36" cy="196.77" r="1.61" class="cls-9"/><path d="M899.17 186.77c.9 0 1.6.72 1.6 1.6 0 .9-.7 1.62-1.6 1.62-.9 0-1.6-.73-1.6-1.62 0-.9.7-1.6 1.6-1.6z" class="cls-10"/><circle cx="863.14" cy="118.83" r="1.61" class="cls-9"/><path d="M837.4 84.38c.9 0 1.6.72 1.6 1.6 0 .9-.7 1.62-1.6 1.62-.88 0-1.6-.72-1.6-1.6 0-.9.72-1.62 1.6-1.62z" class="cls-10"/><circle cx="829.671" cy="38.985" r="1.609" class="cls-9"/><circle cx="884.36" cy="48.64" r="1.61" class="cls-9"/><circle cx="855.421" cy="517.45" r="1.609" class="cls-9"/><ellipse cx="859.921" cy="566.39" rx="1.609" ry="1.61" class="cls-9"/><ellipse cx="938.42" cy="563.17" rx="1.61" ry="1.61" class="cls-9"/><circle cx="982.17" cy="530.33" r="1.61" class="cls-9"/><circle cx="1043.3" cy="454.985" r="1.61" class="cls-9"/><path d="M1084.47 365.15c.9 0 1.6.72 1.6 1.6 0 .9-.7 1.62-1.6 1.62-.88 0-1.6-.72-1.6-1.6 0-.9.72-1.62 1.6-1.62zM1107 289.8c.88 0 1.6.73 1.6 1.62 0 .9-.72 1.6-1.6 1.6-.9 0-1.62-.7-1.62-1.6 0-.9.72-1.6 1.6-1.6z" class="cls-10"/><circle cx="1202.86" cy="426.015" r="1.61" class="cls-9"/><circle cx="1215.73" cy="337.8" r="1.61" class="cls-9"/><path d="M1166.83 350.98c.9 0 1.6.72 1.6 1.6 0 .9-.7 1.62-1.6 1.62-.9 0-1.6-.72-1.6-1.6 0-.9.7-1.62 1.6-1.62z" class="cls-10"/><circle cx="1215.73" cy="384.14" r="1.61" class="cls-9"/><circle cx="1254.985" cy="368.7" r="1.605" class="cls-9"/><circle cx="1251.77" cy="418.92" r="1.61" class="cls-9"/><circle cx="1206.08" cy="491.7" r="1.61" class="cls-9"/><circle cx="1251.77" cy="444.67" r="1.61" class="cls-9"/><circle cx="1235.05" cy="294.64" r="1.61" class="cls-9"/><circle cx="1150.73" cy="317.83" r="1.61" class="cls-9"/><circle cx="1150.73" cy="227.67" r="1.61" class="cls-9"/><circle cx="1204.8" cy="212.2" r="1.61" class="cls-9"/><circle cx="1173.27" cy="138.8" r="1.61" class="cls-9"/><path d="M1231.82 99.84c.88 0 1.6.72 1.6 1.6 0 .9-.72 1.62-1.6 1.62-.9 0-1.6-.73-1.6-1.6 0-.9.7-1.62 1.6-1.62zM1160.4 74.08c.88 0 1.6.72 1.6 1.6 0 .9-.7 1.62-1.6 1.62-.9 0-1.6-.72-1.6-1.6 0-.9.7-1.62 1.6-1.62z" class="cls-10"/><circle cx="1118.58" cy="159.39" r="1.61" class="cls-9"/><circle cx="1218.95" cy="174.86" r="1.61" class="cls-9"/><circle cx="1303.23" cy="82.77" r="1.61" class="cls-9"/><circle cx="1267.2" cy="30.61" r="1.61" class="cls-9"/><circle cx="1348.92" cy="152.95" r="1.61" class="cls-9"/><circle cx="1295.515" cy="215.42" r="1.605" class="cls-9"/><circle cx="1258.2" cy="239.27" r="1.61" class="cls-9"/><circle cx="1328.985" cy="294.64" r="1.605" class="cls-9"/><circle cx="1280.08" cy="326.2" r="1.61" class="cls-9"/><circle cx="1316.73" cy="373.845" r="1.61" class="cls-9"/><circle cx="1298.08" cy="433.08" r="1.61" class="cls-9"/><circle cx="1258.2" cy="503.285" r="1.61" class="cls-9"/><circle cx="1199.64" cy="527.11" r="1.61" class="cls-9"/><path d="M1150.75 486.86c.88 0 1.6.72 1.6 1.6 0 .9-.72 1.62-1.6 1.62-.9 0-1.6-.72-1.6-1.6 0-.9.7-1.62 1.6-1.62z" class="cls-10"/><circle cx="1115.36" cy="469.14" r="1.61" class="cls-9"/><circle cx="1094.125" cy="445.965" r="1.595" class="cls-9"/><circle cx="1112.14" cy="326.2" r="1.61" class="cls-9"/><circle cx="1121.8" cy="268.89" r="1.61" class="cls-9"/><circle cx="1097.985" cy="225.73" r="1.605" class="cls-9"/><circle cx="1135.95" cy="196.77" r="1.61" class="cls-9"/><path d="M1168.76 186.77c.9 0 1.6.72 1.6 1.6 0 .9-.7 1.62-1.6 1.62-.9 0-1.6-.73-1.6-1.62 0-.9.7-1.6 1.6-1.6z" class="cls-10"/><circle cx="1132.73" cy="118.83" r="1.61" class="cls-9"/><circle cx="1106.985" cy="85.985" r="1.605" class="cls-9"/><circle cx="1099.27" cy="38.985" r="1.61" class="cls-9"/><circle cx="1153.95" cy="48.64" r="1.61" class="cls-9"/><path d="M1125 515.84c.9 0 1.62.72 1.62 1.6 0 .9-.72 1.62-1.6 1.62-.9 0-1.62-.72-1.62-1.6 0-.9.72-1.62 1.6-1.62z" class="cls-10"/><circle cx="1129.515" cy="566.39" r="1.605" class="cls-9"/><circle cx="1208.015" cy="563.17" r="1.605" class="cls-9"/><circle cx="1251.77" cy="530.33" r="1.61" class="cls-9"/><circle cx="1312.89" cy="454.985" r="1.61" class="cls-9"/><circle cx="1354.08" cy="366.77" r="1.61" class="cls-9"/><circle cx="1376.58" cy="291.42" r="1.61" class="cls-9"/><circle cx="1475.67" cy="426.015" r="1.61" class="cls-9"/><path d="M1488.54 336.17c.9 0 1.6.72 1.6 1.6 0 .9-.7 1.62-1.6 1.62-.9 0-1.6-.73-1.6-1.62 0-.9.7-1.6 1.6-1.6zM1439.64 350.98c.9 0 1.6.72 1.6 1.6 0 .9-.7 1.62-1.6 1.62-.9 0-1.6-.72-1.6-1.6 0-.9.7-1.62 1.6-1.62zM1488.54 382.54c.9 0 1.6.72 1.6 1.6 0 .9-.7 1.62-1.6 1.62-.9 0-1.6-.72-1.6-1.6 0-.9.7-1.62 1.6-1.62z" class="cls-10"/><circle cx="1527.8" cy="368.7" r="1.61" class="cls-9"/><path d="M1524.57 417.3c.9 0 1.6.73 1.6 1.62 0 .9-.7 1.6-1.6 1.6-.9 0-1.6-.7-1.6-1.6 0-.9.7-1.6 1.6-1.6z" class="cls-10"/><circle cx="1478.89" cy="491.7" r="1.61" class="cls-9"/><path d="M1524.57 443.07c.9 0 1.6.72 1.6 1.6 0 .9-.7 1.62-1.6 1.62-.9 0-1.6-.73-1.6-1.62 0-.9.7-1.6 1.6-1.6z" class="cls-10"/><circle cx="1507.83" cy="294.64" r="1.61" class="cls-9"/><path d="M1423.55 316.2c.9 0 1.6.73 1.6 1.62 0 .9-.7 1.6-1.6 1.6-.88 0-1.6-.7-1.6-1.6 0-.9.7-1.6 1.6-1.6zM1423.55 226.05c.9 0 1.6.72 1.6 1.6 0 .9-.7 1.62-1.6 1.62-.88 0-1.6-.72-1.6-1.6 0-.9.7-1.62 1.6-1.62z" class="cls-10"/><circle cx="1477.61" cy="212.2" r="1.61" class="cls-9"/><circle cx="1446.08" cy="138.8" r="1.61" class="cls-9"/><path d="M1504.62 99.84c.9 0 1.6.72 1.6 1.6 0 .9-.7 1.62-1.6 1.62-.88 0-1.6-.73-1.6-1.6 0-.9.7-1.62 1.6-1.62z" class="cls-10"/><circle cx="1433.2" cy="75.685" r="1.61" class="cls-9"/><circle cx="1391.39" cy="159.39" r="1.61" class="cls-9"/><circle cx="1491.77" cy="174.86" r="1.61" class="cls-9"/><circle cx="1576.05" cy="82.77" r="1.61" class="cls-9"/><circle cx="1540.015" cy="30.61" r="1.605" class="cls-9"/><circle cx="1621.73" cy="152.95" r="1.61" class="cls-9"/><path d="M1568.32 213.82c.9 0 1.6.72 1.6 1.6 0 .9-.7 1.62-1.6 1.62-.9 0-1.6-.72-1.6-1.6 0-.9.7-1.62 1.6-1.62z" class="cls-10"/><circle cx="1531.015" cy="239.27" r="1.605" class="cls-9"/><circle cx="1601.77" cy="294.64" r="1.61" class="cls-9"/><circle cx="1552.89" cy="326.2" r="1.61" class="cls-9"/><path d="M1589.55 372.23c.9 0 1.6.72 1.6 1.6 0 .9-.7 1.62-1.6 1.62-.88 0-1.6-.72-1.6-1.6 0-.9.72-1.62 1.6-1.62z" class="cls-10"/><circle cx="1570.89" cy="433.08" r="1.61" class="cls-9"/><circle cx="1531.015" cy="503.285" r="1.605" class="cls-9"/><ellipse cx="1472.45" cy="527.11" rx="1.61" ry="1.61" class="cls-9"/><circle cx="1423.55" cy="488.485" r="1.61" class="cls-9"/><circle cx="1388.17" cy="469.14" r="1.61" class="cls-9"/><circle cx="1366.92" cy="445.965" r="1.61" class="cls-9"/><circle cx="1384.95" cy="326.2" r="1.61" class="cls-9"/><circle cx="1394.61" cy="268.89" r="1.61" class="cls-9"/><circle cx="1370.8" cy="225.73" r="1.61" class="cls-9"/><circle cx="1408.77" cy="196.77" r="1.61" class="cls-9"/><circle cx="1441.58" cy="188.39" r="1.61" class="cls-9"/><path d="M1405.54 117.22c.9 0 1.6.72 1.6 1.6 0 .9-.7 1.62-1.6 1.62-.9 0-1.6-.72-1.6-1.6 0-.9.7-1.62 1.6-1.62z" class="cls-10"/><circle cx="1379.8" cy="85.985" r="1.61" class="cls-9"/><circle cx="1372.08" cy="38.985" r="1.61" class="cls-9"/><circle cx="1426.77" cy="48.64" r="1.61" class="cls-9"/><path d="M1397.82 515.84c.88 0 1.6.72 1.6 1.6 0 .9-.72 1.62-1.6 1.62-.9 0-1.6-.72-1.6-1.6 0-.9.7-1.62 1.6-1.62zM1402.32 564.78c.9 0 1.6.72 1.6 1.6 0 .9-.7 1.62-1.6 1.62-.9 0-1.6-.72-1.6-1.6 0-.9.7-1.62 1.6-1.62z" class="cls-10"/><circle cx="1480.83" cy="563.17" r="1.61" class="cls-9"/><path d="M1524.57 528.72c.9 0 1.6.72 1.6 1.6 0 .9-.7 1.62-1.6 1.62-.9 0-1.6-.72-1.6-1.6 0-.9.7-1.62 1.6-1.62z" class="cls-10"/><circle cx="1585.7" cy="454.985" r="1.61" class="cls-9"/><circle cx="1626.86" cy="366.77" r="1.61" class="cls-9"/><circle cx="1649.39" cy="291.42" r="1.61" class="cls-9"/><circle cx="141" cy="413" r="5" class="cls-6"/><circle cx="117" cy="15" r="5" class="cls-6"/><circle cx="794" cy="66" r="5" class="cls-6"/><circle cx="1425" cy="37" r="5" class="cls-6"/><circle cx="1343" cy="488" r="5" class="cls-6"/><circle cx="910" cy="537" r="5" class="cls-6"/><circle cx="1326" cy="230" r="5" class="cls-6"/><circle cx="473" cy="20" r="5" class="cls-8"/><circle cx="212" cy="301" r="5" class="cls-8"/><circle cx="1517" cy="34" r="5" class="cls-8"/><circle cx="1432" cy="374" r="5" class="cls-8"/><circle cx="1567" cy="558" r="5" class="cls-8"/><circle cx="1068" cy="601" r="5" class="cls-8"/><circle cx="655" cy="568" r="5" class="cls-8"/><circle cx="372" cy="533" r="5" class="cls-8"/></svg>