<svg xmlns="http://www.w3.org/2000/svg" viewBox="996.5 -407 1937 837" enable-background="new 996.5 -407 1937 837" preserveAspectRatio="none"><style type="text/css">.st0{fill:#414141;} .st1{fill:#444444;} .st2{opacity:0.5;} .st3{fill:#2E2E2E;stroke:#16B0C5;stroke-width:2;} .st4{fill:#16B0C5;} .st5{fill:none;stroke:#16B0C5;} .st6{fill:none;stroke:#474747;stroke-width:8;} .st7{fill:none;stroke:#0AC5AB;} .st8{fill:#0AC5AB;} .st9{fill:none;stroke:#EFC75E;} .st10{fill:#EFC75E;} .st11{fill:#545454;}</style><path d="M2174-256v-1h147v1h-147z" class="st0"/><path d="M2320.9-256.5l.2-1 178 45-.2 1-178-45zM2497.6-210.7l.8-.6 104 155-.8.6-104-155zM2603.4-54.8l-.9-.5 24-43 .9.5-24 43zM2591-214.5v1l-94 3v-1l94-3zM2497.6-211.2l.9.5-99 192-.9-.5 99-192z" class="st1"/><g class="st2"><circle cx="2602.5" cy="-56.5" r="8.5" class="st3"/><circle cx="2754.5" cy="-148.5" r="8.5" class="st3"/><circle cx="2781.5" cy="209.5" r="8.5" class="st3"/><circle cx="2281.5" cy="279.5" r="8.5" class="st3"/><circle cx="2306.5" cy="-93.5" r="8.5" class="st3"/><circle cx="1313.5" cy="-256.5" r="8.5" class="st3"/><circle cx="1103.5" cy="177.5" r="8.5" class="st3"/><circle cx="1394.5" cy="-42.5" r="8.5" class="st3"/><circle cx="2183.5" cy="125.5" r="8.5" class="st3"/><circle cx="2590" cy="128" r="5" class="st4"/><circle cx="2812" cy="-34" r="5" class="st4"/><circle cx="2741" cy="-244" r="5" class="st4"/><circle cx="2626" cy="-98" r="5" class="st4"/><circle cx="2321" cy="-256" r="5" class="st4"/><circle cx="1970" cy="-93" r="5" class="st4"/><circle cx="1618" cy="260" r="5" class="st4"/><circle cx="1425" cy="49" r="5" class="st4"/><circle cx="1408" cy="-202" r="5" class="st4"/><circle cx="1215" cy="-29" r="10" class="st5"/><circle cx="1215" cy="-29" r="15" class="st6"/><circle cx="1215" cy="-29" r="5" class="st4"/><circle cx="2173" cy="-256" r="10" class="st7"/><circle cx="2173" cy="-256" r="15" class="st6"/><circle cx="2173" cy="-256" r="5" class="st8"/><circle cx="2546" cy="192" r="10" class="st9"/><circle cx="2546" cy="192" r="15" class="st6"/><circle cx="2546" cy="192" r="5" class="st10"/><circle cx="1190" cy="215" r="5" class="st4"/><circle cx="1257.5" cy="209.5" r="2.5" class="st11"/><circle cx="1277.5" cy="72.5" r="2.5" class="st11"/><circle cx="1201.5" cy="95.5" r="2.5" class="st11"/><circle cx="1277.5" cy="144.5" r="2.5" class="st11"/><circle cx="1338.5" cy="120.5" r="2.5" class="st11"/><circle cx="1333.5" cy="198.5" r="2.5" class="st11"/><circle cx="1262.5" cy="311.5" r="2.5" class="st11"/><circle cx="1333.5" cy="238.5" r="2.5" class="st11"/><circle cx="1307.5" cy="5.5" r="2.5" class="st11"/><circle cx="1176.5" cy="41.5" r="2.5" class="st11"/><circle cx="1176.5" cy="-98.5" r="2.5" class="st11"/><circle cx="1260.5" cy="-122.5" r="2.5" class="st11"/><circle cx="1211.5" cy="-236.5" r="2.5" class="st11"/><circle cx="1302.5" cy="-294.5" r="2.5" class="st11"/><circle cx="1191.5" cy="-334.5" r="2.5" class="st11"/><circle cx="1126.5" cy="-204.5" r="2.5" class="st11"/><circle cx="1282.5" cy="-180.5" r="2.5" class="st11"/><circle cx="1413.5" cy="-323.5" r="2.5" class="st11"/><circle cx="1357.5" cy="-404.5" r="2.5" class="st11"/><circle cx="1484.5" cy="-214.5" r="2.5" class="st11"/><circle cx="1401.5" cy="-117.5" r="2.5" class="st11"/><circle cx="1343.5" cy="-80.5" r="2.5" class="st11"/><circle cx="1453.5" cy="5.5" r="2.5" class="st11"/><circle cx="1377.5" cy="54.5" r="2.5" class="st11"/><circle cx="1434.5" cy="128.5" r="2.5" class="st11"/><circle cx="1405.5" cy="220.5" r="2.5" class="st11"/><circle cx="1343.5" cy="329.5" r="2.5" class="st11"/><circle cx="1252.5" cy="366.5" r="2.5" class="st11"/><circle cx="1176.5" cy="306.5" r="2.5" class="st11"/><circle cx="1121.5" cy="276.5" r="2.5" class="st11"/><circle cx="1088.5" cy="240.5" r="2.5" class="st11"/><circle cx="1116.5" cy="54.5" r="2.5" class="st11"/><circle cx="1131.5" cy="-34.5" r="2.5" class="st11"/><circle cx="1094.5" cy="-101.5" r="2.5" class="st11"/><circle cx="1153.5" cy="-146.5" r="2.5" class="st11"/><circle cx="1204.5" cy="-159.5" r="2.5" class="st11"/><circle cx="1148.5" cy="-267.5" r="2.5" class="st11"/><circle cx="1108.5" cy="-318.5" r="2.5" class="st11"/><circle cx="1096.5" cy="-391.5" r="2.5" class="st11"/><circle cx="1181.5" cy="-376.5" r="2.5" class="st11"/><circle cx="1136.5" cy="351.5" r="2.5" class="st11"/><circle cx="1143.5" cy="427.5" r="2.5" class="st11"/><circle cx="1265.5" cy="422.5" r="2.5" class="st11"/><circle cx="1333.5" cy="371.5" r="2.5" class="st11"/><circle cx="1428.5" cy="254.5" r="2.5" class="st11"/><circle cx="1492.5" cy="117.5" r="2.5" class="st11"/><circle cx="1527.5" cy=".5" r="2.5" class="st11"/><circle cx="839.5" cy="209.5" r="2.5" class="st11"/><circle cx="859.5" cy="72.5" r="2.5" class="st11"/><circle cx="783.5" cy="95.5" r="2.5" class="st11"/><circle cx="859.5" cy="144.5" r="2.5" class="st11"/><circle cx="920.5" cy="120.5" r="2.5" class="st11"/><circle cx="915.5" cy="198.5" r="2.5" class="st11"/><circle cx="844.5" cy="311.5" r="2.5" class="st11"/><circle cx="915.5" cy="238.5" r="2.5" class="st11"/><circle cx="889.5" cy="5.5" r="2.5" class="st11"/><circle cx="758.5" cy="41.5" r="2.5" class="st11"/><circle cx="758.5" cy="-98.5" r="2.5" class="st11"/><circle cx="842.5" cy="-122.5" r="2.5" class="st11"/><circle cx="793.5" cy="-236.5" r="2.5" class="st11"/><circle cx="884.5" cy="-294.5" r="2.5" class="st11"/><circle cx="773.5" cy="-334.5" r="2.5" class="st11"/><circle cx="708.5" cy="-204.5" r="2.5" class="st11"/><circle cx="864.5" cy="-180.5" r="2.5" class="st11"/><circle cx="995.5" cy="-323.5" r="2.5" class="st11"/><circle cx="939.5" cy="-404.5" r="2.5" class="st11"/><circle cx="1066.5" cy="-214.5" r="2.5" class="st11"/><circle cx="983.5" cy="-117.5" r="2.5" class="st11"/><circle cx="925.5" cy="-80.5" r="2.5" class="st11"/><circle cx="1035.5" cy="5.5" r="2.5" class="st11"/><circle cx="959.5" cy="54.5" r="2.5" class="st11"/><circle cx="1016.5" cy="128.5" r="2.5" class="st11"/><circle cx="987.5" cy="220.5" r="2.5" class="st11"/><circle cx="925.5" cy="329.5" r="2.5" class="st11"/><circle cx="834.5" cy="366.5" r="2.5" class="st11"/><circle cx="758.5" cy="306.5" r="2.5" class="st11"/><circle cx="703.5" cy="276.5" r="2.5" class="st11"/><circle cx="670.5" cy="240.5" r="2.5" class="st11"/><circle cx="698.5" cy="54.5" r="2.5" class="st11"/><circle cx="713.5" cy="-34.5" r="2.5" class="st11"/><circle cx="676.5" cy="-101.5" r="2.5" class="st11"/><circle cx="735.5" cy="-146.5" r="2.5" class="st11"/><circle cx="786.5" cy="-159.5" r="2.5" class="st11"/><circle cx="730.5" cy="-267.5" r="2.5" class="st11"/><circle cx="690.5" cy="-318.5" r="2.5" class="st11"/><circle cx="678.5" cy="-391.5" r="2.5" class="st11"/><circle cx="763.5" cy="-376.5" r="2.5" class="st11"/><circle cx="718.5" cy="351.5" r="2.5" class="st11"/><circle cx="725.5" cy="427.5" r="2.5" class="st11"/><circle cx="847.5" cy="422.5" r="2.5" class="st11"/><circle cx="915.5" cy="371.5" r="2.5" class="st11"/><circle cx="1010.5" cy="254.5" r="2.5" class="st11"/><circle cx="1074.5" cy="117.5" r="2.5" class="st11"/><circle cx="1109.5" cy=".5" r="2.5" class="st11"/><circle cx="1688.5" cy="209.5" r="2.5" class="st11"/><circle cx="1708.5" cy="72.5" r="2.5" class="st11"/><circle cx="1632.5" cy="95.5" r="2.5" class="st11"/><circle cx="1708.5" cy="144.5" r="2.5" class="st11"/><circle cx="1769.5" cy="120.5" r="2.5" class="st11"/><circle cx="1764.5" cy="198.5" r="2.5" class="st11"/><circle cx="1693.5" cy="311.5" r="2.5" class="st11"/><circle cx="1764.5" cy="238.5" r="2.5" class="st11"/><circle cx="1738.5" cy="5.5" r="2.5" class="st11"/><circle cx="1607.5" cy="41.5" r="2.5" class="st11"/><circle cx="1607.5" cy="-98.5" r="2.5" class="st11"/><circle cx="1691.5" cy="-122.5" r="2.5" class="st11"/><circle cx="1642.5" cy="-236.5" r="2.5" class="st11"/><circle cx="1733.5" cy="-294.5" r="2.5" class="st11"/><circle cx="1622.5" cy="-334.5" r="2.5" class="st11"/><circle cx="1557.5" cy="-204.5" r="2.5" class="st11"/><circle cx="1713.5" cy="-180.5" r="2.5" class="st11"/><circle cx="1844.5" cy="-323.5" r="2.5" class="st11"/><circle cx="1788.5" cy="-404.5" r="2.5" class="st11"/><circle cx="1915.5" cy="-214.5" r="2.5" class="st11"/><circle cx="1832.5" cy="-117.5" r="2.5" class="st11"/><circle cx="1774.5" cy="-80.5" r="2.5" class="st11"/><circle cx="1884.5" cy="5.5" r="2.5" class="st11"/><circle cx="1808.5" cy="54.5" r="2.5" class="st11"/><circle cx="1865.5" cy="128.5" r="2.5" class="st11"/><circle cx="1836.5" cy="220.5" r="2.5" class="st11"/><circle cx="1774.5" cy="329.5" r="2.5" class="st11"/><circle cx="1683.5" cy="366.5" r="2.5" class="st11"/><circle cx="1607.5" cy="306.5" r="2.5" class="st11"/><circle cx="1552.5" cy="276.5" r="2.5" class="st11"/><circle cx="1519.5" cy="240.5" r="2.5" class="st11"/><circle cx="1547.5" cy="54.5" r="2.5" class="st11"/><circle cx="1562.5" cy="-34.5" r="2.5" class="st11"/><circle cx="1525.5" cy="-101.5" r="2.5" class="st11"/><circle cx="1584.5" cy="-146.5" r="2.5" class="st11"/><circle cx="1635.5" cy="-159.5" r="2.5" class="st11"/><circle cx="1579.5" cy="-267.5" r="2.5" class="st11"/><circle cx="1539.5" cy="-318.5" r="2.5" class="st11"/><circle cx="1527.5" cy="-391.5" r="2.5" class="st11"/><circle cx="1612.5" cy="-376.5" r="2.5" class="st11"/><circle cx="1567.5" cy="351.5" r="2.5" class="st11"/><circle cx="1574.5" cy="427.5" r="2.5" class="st11"/><circle cx="1696.5" cy="422.5" r="2.5" class="st11"/><circle cx="1764.5" cy="371.5" r="2.5" class="st11"/><circle cx="1859.5" cy="254.5" r="2.5" class="st11"/><circle cx="1923.5" cy="117.5" r="2.5" class="st11"/><circle cx="1958.5" cy=".5" r="2.5" class="st11"/><circle cx="2118.5" cy="209.5" r="2.5" class="st11"/><circle cx="2138.5" cy="72.5" r="2.5" class="st11"/><circle cx="2062.5" cy="95.5" r="2.5" class="st11"/><circle cx="2138.5" cy="144.5" r="2.5" class="st11"/><circle cx="2199.5" cy="120.5" r="2.5" class="st11"/><circle cx="2194.5" cy="198.5" r="2.5" class="st11"/><circle cx="2123.5" cy="311.5" r="2.5" class="st11"/><circle cx="2194.5" cy="238.5" r="2.5" class="st11"/><circle cx="2168.5" cy="5.5" r="2.5" class="st11"/><circle cx="2037.5" cy="41.5" r="2.5" class="st11"/><circle cx="2037.5" cy="-98.5" r="2.5" class="st11"/><circle cx="2121.5" cy="-122.5" r="2.5" class="st11"/><circle cx="2072.5" cy="-236.5" r="2.5" class="st11"/><circle cx="2163.5" cy="-294.5" r="2.5" class="st11"/><circle cx="2052.5" cy="-334.5" r="2.5" class="st11"/><circle cx="1987.5" cy="-204.5" r="2.5" class="st11"/><circle cx="2143.5" cy="-180.5" r="2.5" class="st11"/><circle cx="2274.5" cy="-323.5" r="2.5" class="st11"/><circle cx="2218.5" cy="-404.5" r="2.5" class="st11"/><circle cx="2345.5" cy="-214.5" r="2.5" class="st11"/><circle cx="2262.5" cy="-117.5" r="2.5" class="st11"/><circle cx="2204.5" cy="-80.5" r="2.5" class="st11"/><circle cx="2314.5" cy="5.5" r="2.5" class="st11"/><circle cx="2238.5" cy="54.5" r="2.5" class="st11"/><circle cx="2295.5" cy="128.5" r="2.5" class="st11"/><circle cx="2266.5" cy="220.5" r="2.5" class="st11"/><circle cx="2204.5" cy="329.5" r="2.5" class="st11"/><circle cx="2113.5" cy="366.5" r="2.5" class="st11"/><circle cx="2037.5" cy="306.5" r="2.5" class="st11"/><circle cx="1982.5" cy="276.5" r="2.5" class="st11"/><circle cx="1949.5" cy="240.5" r="2.5" class="st11"/><circle cx="1977.5" cy="54.5" r="2.5" class="st11"/><circle cx="1992.5" cy="-34.5" r="2.5" class="st11"/><circle cx="1955.5" cy="-101.5" r="2.5" class="st11"/><circle cx="2014.5" cy="-146.5" r="2.5" class="st11"/><circle cx="2065.5" cy="-159.5" r="2.5" class="st11"/><circle cx="2009.5" cy="-267.5" r="2.5" class="st11"/><circle cx="1969.5" cy="-318.5" r="2.5" class="st11"/><circle cx="1957.5" cy="-391.5" r="2.5" class="st11"/><circle cx="2042.5" cy="-376.5" r="2.5" class="st11"/><circle cx="1997.5" cy="351.5" r="2.5" class="st11"/><circle cx="2004.5" cy="427.5" r="2.5" class="st11"/><circle cx="2126.5" cy="422.5" r="2.5" class="st11"/><circle cx="2194.5" cy="371.5" r="2.5" class="st11"/><circle cx="2289.5" cy="254.5" r="2.5" class="st11"/><circle cx="2353.5" cy="117.5" r="2.5" class="st11"/><circle cx="2388.5" cy=".5" r="2.5" class="st11"/><circle cx="2537.5" cy="209.5" r="2.5" class="st11"/><circle cx="2557.5" cy="72.5" r="2.5" class="st11"/><circle cx="2481.5" cy="95.5" r="2.5" class="st11"/><circle cx="2557.5" cy="144.5" r="2.5" class="st11"/><circle cx="2618.5" cy="120.5" r="2.5" class="st11"/><circle cx="2613.5" cy="198.5" r="2.5" class="st11"/><circle cx="2542.5" cy="311.5" r="2.5" class="st11"/><circle cx="2613.5" cy="238.5" r="2.5" class="st11"/><circle cx="2587.5" cy="5.5" r="2.5" class="st11"/><circle cx="2456.5" cy="41.5" r="2.5" class="st11"/><circle cx="2456.5" cy="-98.5" r="2.5" class="st11"/><circle cx="2540.5" cy="-122.5" r="2.5" class="st11"/><circle cx="2491.5" cy="-236.5" r="2.5" class="st11"/><circle cx="2582.5" cy="-294.5" r="2.5" class="st11"/><circle cx="2471.5" cy="-334.5" r="2.5" class="st11"/><circle cx="2406.5" cy="-204.5" r="2.5" class="st11"/><circle cx="2562.5" cy="-180.5" r="2.5" class="st11"/><circle cx="2693.5" cy="-323.5" r="2.5" class="st11"/><circle cx="2637.5" cy="-404.5" r="2.5" class="st11"/><circle cx="2764.5" cy="-214.5" r="2.5" class="st11"/><circle cx="2681.5" cy="-117.5" r="2.5" class="st11"/><circle cx="2623.5" cy="-80.5" r="2.5" class="st11"/><circle cx="2733.5" cy="5.5" r="2.5" class="st11"/><circle cx="2657.5" cy="54.5" r="2.5" class="st11"/><circle cx="2714.5" cy="128.5" r="2.5" class="st11"/><circle cx="2685.5" cy="220.5" r="2.5" class="st11"/><circle cx="2623.5" cy="329.5" r="2.5" class="st11"/><circle cx="2532.5" cy="366.5" r="2.5" class="st11"/><circle cx="2456.5" cy="306.5" r="2.5" class="st11"/><circle cx="2401.5" cy="276.5" r="2.5" class="st11"/><circle cx="2368.5" cy="240.5" r="2.5" class="st11"/><circle cx="2396.5" cy="54.5" r="2.5" class="st11"/><circle cx="2411.5" cy="-34.5" r="2.5" class="st11"/><circle cx="2374.5" cy="-101.5" r="2.5" class="st11"/><circle cx="2433.5" cy="-146.5" r="2.5" class="st11"/><circle cx="2484.5" cy="-159.5" r="2.5" class="st11"/><circle cx="2428.5" cy="-267.5" r="2.5" class="st11"/><circle cx="2388.5" cy="-318.5" r="2.5" class="st11"/><circle cx="2376.5" cy="-391.5" r="2.5" class="st11"/><circle cx="2461.5" cy="-376.5" r="2.5" class="st11"/><circle cx="2416.5" cy="351.5" r="2.5" class="st11"/><circle cx="2423.5" cy="427.5" r="2.5" class="st11"/><circle cx="2545.5" cy="422.5" r="2.5" class="st11"/><circle cx="2613.5" cy="371.5" r="2.5" class="st11"/><circle cx="2708.5" cy="254.5" r="2.5" class="st11"/><circle cx="2772.5" cy="117.5" r="2.5" class="st11"/><circle cx="2807.5" cy=".5" r="2.5" class="st11"/><circle cx="2961.5" cy="209.5" r="2.5" class="st11"/><circle cx="2981.5" cy="72.5" r="2.5" class="st11"/><circle cx="2905.5" cy="95.5" r="2.5" class="st11"/><circle cx="2981.5" cy="144.5" r="2.5" class="st11"/><circle cx="3042.5" cy="120.5" r="2.5" class="st11"/><circle cx="3037.5" cy="198.5" r="2.5" class="st11"/><circle cx="2966.5" cy="311.5" r="2.5" class="st11"/><circle cx="3037.5" cy="238.5" r="2.5" class="st11"/><circle cx="3011.5" cy="5.5" r="2.5" class="st11"/><circle cx="2880.5" cy="41.5" r="2.5" class="st11"/><circle cx="2880.5" cy="-98.5" r="2.5" class="st11"/><circle cx="2964.5" cy="-122.5" r="2.5" class="st11"/><circle cx="2915.5" cy="-236.5" r="2.5" class="st11"/><circle cx="3006.5" cy="-294.5" r="2.5" class="st11"/><circle cx="2895.5" cy="-334.5" r="2.5" class="st11"/><circle cx="2830.5" cy="-204.5" r="2.5" class="st11"/><circle cx="2986.5" cy="-180.5" r="2.5" class="st11"/><circle cx="3117.5" cy="-323.5" r="2.5" class="st11"/><circle cx="3061.5" cy="-404.5" r="2.5" class="st11"/><circle cx="3188.5" cy="-214.5" r="2.5" class="st11"/><circle cx="3105.5" cy="-117.5" r="2.5" class="st11"/><circle cx="3047.5" cy="-80.5" r="2.5" class="st11"/><circle cx="3157.5" cy="5.5" r="2.5" class="st11"/><circle cx="3081.5" cy="54.5" r="2.5" class="st11"/><circle cx="3138.5" cy="128.5" r="2.5" class="st11"/><circle cx="3109.5" cy="220.5" r="2.5" class="st11"/><circle cx="3047.5" cy="329.5" r="2.5" class="st11"/><circle cx="2956.5" cy="366.5" r="2.5" class="st11"/><circle cx="2880.5" cy="306.5" r="2.5" class="st11"/><circle cx="2825.5" cy="276.5" r="2.5" class="st11"/><circle cx="2792.5" cy="240.5" r="2.5" class="st11"/><circle cx="2820.5" cy="54.5" r="2.5" class="st11"/><circle cx="2835.5" cy="-34.5" r="2.5" class="st11"/><circle cx="2798.5" cy="-101.5" r="2.5" class="st11"/><circle cx="2857.5" cy="-146.5" r="2.5" class="st11"/><circle cx="2908.5" cy="-159.5" r="2.5" class="st11"/><circle cx="2852.5" cy="-267.5" r="2.5" class="st11"/><circle cx="2812.5" cy="-318.5" r="2.5" class="st11"/><circle cx="2800.5" cy="-391.5" r="2.5" class="st11"/><circle cx="2885.5" cy="-376.5" r="2.5" class="st11"/><circle cx="2840.5" cy="351.5" r="2.5" class="st11"/><circle cx="2847.5" cy="427.5" r="2.5" class="st11"/><circle cx="2969.5" cy="422.5" r="2.5" class="st11"/><circle cx="3037.5" cy="371.5" r="2.5" class="st11"/><circle cx="3132.5" cy="254.5" r="2.5" class="st11"/><circle cx="3196.5" cy="117.5" r="2.5" class="st11"/><circle cx="3231.5" cy=".5" r="2.5" class="st11"/><circle cx="1214" cy="164" r="5" class="st8"/><circle cx="1190" cy="-234" r="5" class="st8"/><circle cx="1867" cy="-183" r="5" class="st8"/><circle cx="2498" cy="-212" r="5" class="st8"/><circle cx="2416" cy="239" r="5" class="st8"/><circle cx="1983" cy="288" r="5" class="st8"/><circle cx="2399" cy="-19" r="5" class="st8"/><circle cx="1546" cy="-229" r="5" class="st10"/><circle cx="1285" cy="52" r="5" class="st10"/><circle cx="2590" cy="-215" r="5" class="st10"/><circle cx="2505" cy="125" r="5" class="st10"/><circle cx="2640" cy="309" r="5" class="st10"/><circle cx="2141" cy="352" r="5" class="st10"/><circle cx="1728" cy="319" r="5" class="st10"/><circle cx="1445" cy="284" r="5" class="st10"/></g></svg>