<svg xmlns="http://www.w3.org/2000/svg" width="1976" height="574" preserveAspectRatio="none"><defs><style>.cls-1 { fill: #fff; stroke: #16b0c5; stroke-width: 2px; } .cls-2 { fill: #16b0c5; } .cls-3 { opacity: 0.1; } .cls-4 { fill: #545454; } .cls-5 { fill: #efc75e; }</style></defs><circle cx="1625.5" cy="87.5" r="8.5" class="cls-1"/><circle cx="1777.5" cy="-4.5" r="8.5" class="cls-1"/><circle cx="1804.5" cy="353.5" r="8.5" class="cls-1"/><circle cx="797.5" cy="133.5" r="8.5" class="cls-1"/><circle cx="1298.5" cy="149.5" r="8.5" class="cls-1"/><circle cx="336.5" cy="-112.5" r="8.5" class="cls-1"/><circle cx="126.5" cy="321.5" r="8.5" class="cls-1"/><circle cx="417.5" cy="101.5" r="8.5" class="cls-1"/><circle cx="1206.5" cy="269.5" r="8.5" class="cls-1"/><circle cx="1613" cy="272" r="5" class="cls-2"/><circle cx="1835" cy="110" r="5" class="cls-2"/><circle cx="1764" cy="-100" r="5" class="cls-2"/><circle cx="1649" cy="46" r="5" class="cls-2"/><circle cx="1344" cy="-112" r="5" class="cls-2"/><circle cx="929" cy="-63" r="5" class="cls-2"/><circle cx="641" cy="404" r="5" class="cls-2"/><circle cx="448" cy="193" r="5" class="cls-2"/><circle cx="431" cy="-58" r="5" class="cls-2"/><circle cx="213" cy="359" r="5" class="cls-2"/><g class="cls-3"><circle cx="280.5" cy="353.5" r="2.5" class="cls-4"/><circle cx="300.5" cy="216.5" r="2.5" class="cls-4"/><circle cx="224.5" cy="239.5" r="2.5" class="cls-4"/><circle cx="300.5" cy="288.5" r="2.5" class="cls-4"/><circle cx="361.5" cy="264.5" r="2.5" class="cls-4"/><circle cx="356.5" cy="342.5" r="2.5" class="cls-4"/><circle cx="285.5" cy="455.5" r="2.5" class="cls-4"/><circle cx="356.5" cy="382.5" r="2.5" class="cls-4"/><circle cx="330.5" cy="149.5" r="2.5" class="cls-4"/><circle cx="199.5" cy="185.5" r="2.5" class="cls-4"/><circle cx="199.5" cy="45.5" r="2.5" class="cls-4"/><circle cx="283.5" cy="21.5" r="2.5" class="cls-4"/><circle cx="234.5" cy="-92.5" r="2.5" class="cls-4"/><circle cx="325.5" cy="-150.5" r="2.5" class="cls-4"/><circle cx="214.5" cy="-190.5" r="2.5" class="cls-4"/><circle cx="149.5" cy="-60.5" r="2.5" class="cls-4"/><circle cx="305.5" cy="-36.5" r="2.5" class="cls-4"/><circle cx="436.5" cy="-179.5" r="2.5" class="cls-4"/><circle cx="380.5" cy="-260.5" r="2.5" class="cls-4"/><circle cx="507.5" cy="-70.5" r="2.5" class="cls-4"/><circle cx="424.5" cy="26.5" r="2.5" class="cls-4"/><circle cx="366.5" cy="63.5" r="2.5" class="cls-4"/><circle cx="476.5" cy="149.5" r="2.5" class="cls-4"/><circle cx="400.5" cy="198.5" r="2.5" class="cls-4"/><circle cx="457.5" cy="272.5" r="2.5" class="cls-4"/><circle cx="428.5" cy="364.5" r="2.5" class="cls-4"/><circle cx="366.5" cy="473.5" r="2.5" class="cls-4"/><circle cx="275.5" cy="510.5" r="2.5" class="cls-4"/><circle cx="199.5" cy="450.5" r="2.5" class="cls-4"/><circle cx="144.5" cy="420.5" r="2.5" class="cls-4"/><circle cx="111.5" cy="384.5" r="2.5" class="cls-4"/><circle cx="139.5" cy="198.5" r="2.5" class="cls-4"/><circle cx="154.5" cy="109.5" r="2.5" class="cls-4"/><circle cx="117.5" cy="42.5" r="2.5" class="cls-4"/><circle cx="176.5" cy="-2.5" r="2.5" class="cls-4"/><circle cx="227.5" cy="-15.5" r="2.5" class="cls-4"/><circle cx="171.5" cy="-123.5" r="2.5" class="cls-4"/><circle cx="131.5" cy="-174.5" r="2.5" class="cls-4"/><circle cx="119.5" cy="-247.5" r="2.5" class="cls-4"/><circle cx="204.5" cy="-232.5" r="2.5" class="cls-4"/><circle cx="159.5" cy="495.5" r="2.5" class="cls-4"/><circle cx="166.5" cy="571.5" r="2.5" class="cls-4"/><circle cx="288.5" cy="566.5" r="2.5" class="cls-4"/><circle cx="356.5" cy="515.5" r="2.5" class="cls-4"/><circle cx="451.5" cy="398.5" r="2.5" class="cls-4"/><circle cx="515.5" cy="261.5" r="2.5" class="cls-4"/><circle cx="550.5" cy="144.5" r="2.5" class="cls-4"/><circle cx="-137.5" cy="353.5" r="2.5" class="cls-4"/><circle cx="-117.5" cy="216.5" r="2.5" class="cls-4"/><circle cx="-193.5" cy="239.5" r="2.5" class="cls-4"/><circle cx="-117.5" cy="288.5" r="2.5" class="cls-4"/><circle cx="-56.5" cy="264.5" r="2.5" class="cls-4"/><circle cx="-61.5" cy="342.5" r="2.5" class="cls-4"/><circle cx="-132.5" cy="455.5" r="2.5" class="cls-4"/><circle cx="-61.5" cy="382.5" r="2.5" class="cls-4"/><circle cx="-87.5" cy="149.5" r="2.5" class="cls-4"/><circle cx="-218.5" cy="185.5" r="2.5" class="cls-4"/><circle cx="-218.5" cy="45.5" r="2.5" class="cls-4"/><circle cx="-134.5" cy="21.5" r="2.5" class="cls-4"/><circle cx="-183.5" cy="-92.5" r="2.5" class="cls-4"/><circle cx="-92.5" cy="-150.5" r="2.5" class="cls-4"/><circle cx="-203.5" cy="-190.5" r="2.5" class="cls-4"/><circle cx="-268.5" cy="-60.5" r="2.5" class="cls-4"/><circle cx="-112.5" cy="-36.5" r="2.5" class="cls-4"/><circle cx="18.5" cy="-179.5" r="2.5" class="cls-4"/><circle cx="-37.5" cy="-260.5" r="2.5" class="cls-4"/><circle cx="89.5" cy="-70.5" r="2.5" class="cls-4"/><circle cx="6.5" cy="26.5" r="2.5" class="cls-4"/><circle cx="-51.5" cy="63.5" r="2.5" class="cls-4"/><circle cx="58.5" cy="149.5" r="2.5" class="cls-4"/><circle cx="-17.5" cy="198.5" r="2.5" class="cls-4"/><circle cx="39.5" cy="272.5" r="2.5" class="cls-4"/><circle cx="10.5" cy="364.5" r="2.5" class="cls-4"/><circle cx="-51.5" cy="473.5" r="2.5" class="cls-4"/><circle cx="-142.5" cy="510.5" r="2.5" class="cls-4"/><circle cx="-218.5" cy="450.5" r="2.5" class="cls-4"/><circle cx="-273.5" cy="420.5" r="2.5" class="cls-4"/><circle cx="-306.5" cy="384.5" r="2.5" class="cls-4"/><circle cx="-278.5" cy="198.5" r="2.5" class="cls-4"/><circle cx="-263.5" cy="109.5" r="2.5" class="cls-4"/><circle cx="-300.5" cy="42.5" r="2.5" class="cls-4"/><circle cx="-241.5" cy="-2.5" r="2.5" class="cls-4"/><circle cx="-190.5" cy="-15.5" r="2.5" class="cls-4"/><circle cx="-246.5" cy="-123.5" r="2.5" class="cls-4"/><circle cx="-286.5" cy="-174.5" r="2.5" class="cls-4"/><circle cx="-298.5" cy="-247.5" r="2.5" class="cls-4"/><circle cx="-213.5" cy="-232.5" r="2.5" class="cls-4"/><circle cx="-258.5" cy="495.5" r="2.5" class="cls-4"/><circle cx="-251.5" cy="571.5" r="2.5" class="cls-4"/><circle cx="-129.5" cy="566.5" r="2.5" class="cls-4"/><circle cx="-61.5" cy="515.5" r="2.5" class="cls-4"/><circle cx="33.5" cy="398.5" r="2.5" class="cls-4"/><circle cx="97.5" cy="261.5" r="2.5" class="cls-4"/><circle cx="132.5" cy="144.5" r="2.5" class="cls-4"/><circle cx="711.5" cy="353.5" r="2.5" class="cls-4"/><circle cx="731.5" cy="216.5" r="2.5" class="cls-4"/><circle cx="655.5" cy="239.5" r="2.5" class="cls-4"/><circle cx="731.5" cy="288.5" r="2.5" class="cls-4"/><circle cx="792.5" cy="264.5" r="2.5" class="cls-4"/><circle cx="787.5" cy="342.5" r="2.5" class="cls-4"/><circle cx="716.5" cy="455.5" r="2.5" class="cls-4"/><circle cx="787.5" cy="382.5" r="2.5" class="cls-4"/><circle cx="761.5" cy="149.5" r="2.5" class="cls-4"/><circle cx="630.5" cy="185.5" r="2.5" class="cls-4"/><circle cx="630.5" cy="45.5" r="2.5" class="cls-4"/><circle cx="714.5" cy="21.5" r="2.5" class="cls-4"/><circle cx="665.5" cy="-92.5" r="2.5" class="cls-4"/><circle cx="756.5" cy="-150.5" r="2.5" class="cls-4"/><circle cx="645.5" cy="-190.5" r="2.5" class="cls-4"/><circle cx="580.5" cy="-60.5" r="2.5" class="cls-4"/><circle cx="736.5" cy="-36.5" r="2.5" class="cls-4"/><circle cx="867.5" cy="-179.5" r="2.5" class="cls-4"/><circle cx="811.5" cy="-260.5" r="2.5" class="cls-4"/><circle cx="938.5" cy="-70.5" r="2.5" class="cls-4"/><circle cx="855.5" cy="26.5" r="2.5" class="cls-4"/><circle cx="797.5" cy="63.5" r="2.5" class="cls-4"/><circle cx="907.5" cy="149.5" r="2.5" class="cls-4"/><circle cx="831.5" cy="198.5" r="2.5" class="cls-4"/><circle cx="888.5" cy="272.5" r="2.5" class="cls-4"/><circle cx="859.5" cy="364.5" r="2.5" class="cls-4"/><circle cx="797.5" cy="473.5" r="2.5" class="cls-4"/><circle cx="706.5" cy="510.5" r="2.5" class="cls-4"/><circle cx="630.5" cy="450.5" r="2.5" class="cls-4"/><circle cx="575.5" cy="420.5" r="2.5" class="cls-4"/><circle cx="542.5" cy="384.5" r="2.5" class="cls-4"/><circle cx="570.5" cy="198.5" r="2.5" class="cls-4"/><circle cx="585.5" cy="109.5" r="2.5" class="cls-4"/><circle cx="548.5" cy="42.5" r="2.5" class="cls-4"/><circle cx="607.5" cy="-2.5" r="2.5" class="cls-4"/><circle cx="658.5" cy="-15.5" r="2.5" class="cls-4"/><circle cx="602.5" cy="-123.5" r="2.5" class="cls-4"/><circle cx="562.5" cy="-174.5" r="2.5" class="cls-4"/><circle cx="550.5" cy="-247.5" r="2.5" class="cls-4"/><circle cx="635.5" cy="-232.5" r="2.5" class="cls-4"/><circle cx="590.5" cy="495.5" r="2.5" class="cls-4"/><circle cx="597.5" cy="571.5" r="2.5" class="cls-4"/><circle cx="719.5" cy="566.5" r="2.5" class="cls-4"/><circle cx="787.5" cy="515.5" r="2.5" class="cls-4"/><circle cx="882.5" cy="398.5" r="2.5" class="cls-4"/><circle cx="946.5" cy="261.5" r="2.5" class="cls-4"/><circle cx="981.5" cy="144.5" r="2.5" class="cls-4"/><circle cx="1141.5" cy="353.5" r="2.5" class="cls-4"/><circle cx="1161.5" cy="216.5" r="2.5" class="cls-4"/><circle cx="1085.5" cy="239.5" r="2.5" class="cls-4"/><circle cx="1161.5" cy="288.5" r="2.5" class="cls-4"/><circle cx="1222.5" cy="264.5" r="2.5" class="cls-4"/><circle cx="1217.5" cy="342.5" r="2.5" class="cls-4"/><circle cx="1146.5" cy="455.5" r="2.5" class="cls-4"/><circle cx="1217.5" cy="382.5" r="2.5" class="cls-4"/><circle cx="1191.5" cy="149.5" r="2.5" class="cls-4"/><circle cx="1060.5" cy="185.5" r="2.5" class="cls-4"/><circle cx="1060.5" cy="45.5" r="2.5" class="cls-4"/><circle cx="1144.5" cy="21.5" r="2.5" class="cls-4"/><circle cx="1095.5" cy="-92.5" r="2.5" class="cls-4"/><circle cx="1186.5" cy="-150.5" r="2.5" class="cls-4"/><circle cx="1075.5" cy="-190.5" r="2.5" class="cls-4"/><circle cx="1010.5" cy="-60.5" r="2.5" class="cls-4"/><circle cx="1166.5" cy="-36.5" r="2.5" class="cls-4"/><circle cx="1297.5" cy="-179.5" r="2.5" class="cls-4"/><circle cx="1241.5" cy="-260.5" r="2.5" class="cls-4"/><circle cx="1368.5" cy="-70.5" r="2.5" class="cls-4"/><circle cx="1285.5" cy="26.5" r="2.5" class="cls-4"/><circle cx="1227.5" cy="63.5" r="2.5" class="cls-4"/><circle cx="1337.5" cy="149.5" r="2.5" class="cls-4"/><circle cx="1261.5" cy="198.5" r="2.5" class="cls-4"/><circle cx="1318.5" cy="272.5" r="2.5" class="cls-4"/><circle cx="1289.5" cy="364.5" r="2.5" class="cls-4"/><circle cx="1227.5" cy="473.5" r="2.5" class="cls-4"/><circle cx="1136.5" cy="510.5" r="2.5" class="cls-4"/><circle cx="1060.5" cy="450.5" r="2.5" class="cls-4"/><circle cx="1005.5" cy="420.5" r="2.5" class="cls-4"/><circle cx="972.5" cy="384.5" r="2.5" class="cls-4"/><circle cx="1000.5" cy="198.5" r="2.5" class="cls-4"/><circle cx="1015.5" cy="109.5" r="2.5" class="cls-4"/><circle cx="978.5" cy="42.5" r="2.5" class="cls-4"/><circle cx="1037.5" cy="-2.5" r="2.5" class="cls-4"/><circle cx="1088.5" cy="-15.5" r="2.5" class="cls-4"/><circle cx="1032.5" cy="-123.5" r="2.5" class="cls-4"/><circle cx="992.5" cy="-174.5" r="2.5" class="cls-4"/><circle cx="980.5" cy="-247.5" r="2.5" class="cls-4"/><circle cx="1065.5" cy="-232.5" r="2.5" class="cls-4"/><circle cx="1020.5" cy="495.5" r="2.5" class="cls-4"/><circle cx="1027.5" cy="571.5" r="2.5" class="cls-4"/><circle cx="1149.5" cy="566.5" r="2.5" class="cls-4"/><circle cx="1217.5" cy="515.5" r="2.5" class="cls-4"/><circle cx="1312.5" cy="398.5" r="2.5" class="cls-4"/><circle cx="1376.5" cy="261.5" r="2.5" class="cls-4"/><circle cx="1411.5" cy="144.5" r="2.5" class="cls-4"/><circle cx="1560.5" cy="353.5" r="2.5" class="cls-4"/><circle cx="1580.5" cy="216.5" r="2.5" class="cls-4"/><circle cx="1504.5" cy="239.5" r="2.5" class="cls-4"/><circle cx="1580.5" cy="288.5" r="2.5" class="cls-4"/><circle cx="1641.5" cy="264.5" r="2.5" class="cls-4"/><circle cx="1636.5" cy="342.5" r="2.5" class="cls-4"/><circle cx="1565.5" cy="455.5" r="2.5" class="cls-4"/><circle cx="1636.5" cy="382.5" r="2.5" class="cls-4"/><circle cx="1610.5" cy="149.5" r="2.5" class="cls-4"/><circle cx="1479.5" cy="185.5" r="2.5" class="cls-4"/><circle cx="1479.5" cy="45.5" r="2.5" class="cls-4"/><circle cx="1563.5" cy="21.5" r="2.5" class="cls-4"/><circle cx="1514.5" cy="-92.5" r="2.5" class="cls-4"/><circle cx="1605.5" cy="-150.5" r="2.5" class="cls-4"/><circle cx="1494.5" cy="-190.5" r="2.5" class="cls-4"/><circle cx="1429.5" cy="-60.5" r="2.5" class="cls-4"/><circle cx="1585.5" cy="-36.5" r="2.5" class="cls-4"/><circle cx="1716.5" cy="-179.5" r="2.5" class="cls-4"/><circle cx="1660.5" cy="-260.5" r="2.5" class="cls-4"/><circle cx="1787.5" cy="-70.5" r="2.5" class="cls-4"/><circle cx="1704.5" cy="26.5" r="2.5" class="cls-4"/><circle cx="1646.5" cy="63.5" r="2.5" class="cls-4"/><circle cx="1756.5" cy="149.5" r="2.5" class="cls-4"/><circle cx="1680.5" cy="198.5" r="2.5" class="cls-4"/><circle cx="1737.5" cy="272.5" r="2.5" class="cls-4"/><circle cx="1708.5" cy="364.5" r="2.5" class="cls-4"/><circle cx="1646.5" cy="473.5" r="2.5" class="cls-4"/><circle cx="1555.5" cy="510.5" r="2.5" class="cls-4"/><circle cx="1479.5" cy="450.5" r="2.5" class="cls-4"/><circle cx="1424.5" cy="420.5" r="2.5" class="cls-4"/><circle cx="1391.5" cy="384.5" r="2.5" class="cls-4"/><circle cx="1419.5" cy="198.5" r="2.5" class="cls-4"/><circle cx="1434.5" cy="109.5" r="2.5" class="cls-4"/><circle cx="1397.5" cy="42.5" r="2.5" class="cls-4"/><circle cx="1456.5" cy="-2.5" r="2.5" class="cls-4"/><circle cx="1507.5" cy="-15.5" r="2.5" class="cls-4"/><circle cx="1451.5" cy="-123.5" r="2.5" class="cls-4"/><circle cx="1411.5" cy="-174.5" r="2.5" class="cls-4"/><circle cx="1399.5" cy="-247.5" r="2.5" class="cls-4"/><circle cx="1484.5" cy="-232.5" r="2.5" class="cls-4"/><circle cx="1439.5" cy="495.5" r="2.5" class="cls-4"/><circle cx="1446.5" cy="571.5" r="2.5" class="cls-4"/><circle cx="1568.5" cy="566.5" r="2.5" class="cls-4"/><circle cx="1636.5" cy="515.5" r="2.5" class="cls-4"/><circle cx="1731.5" cy="398.5" r="2.5" class="cls-4"/><circle cx="1795.5" cy="261.5" r="2.5" class="cls-4"/><circle cx="1830.5" cy="144.5" r="2.5" class="cls-4"/><circle cx="1984.5" cy="353.5" r="2.5" class="cls-4"/><circle cx="2004.5" cy="216.5" r="2.5" class="cls-4"/><circle cx="1928.5" cy="239.5" r="2.5" class="cls-4"/><circle cx="2004.5" cy="288.5" r="2.5" class="cls-4"/><circle cx="2065.5" cy="264.5" r="2.5" class="cls-4"/><circle cx="2060.5" cy="342.5" r="2.5" class="cls-4"/><circle cx="1989.5" cy="455.5" r="2.5" class="cls-4"/><circle cx="2060.5" cy="382.5" r="2.5" class="cls-4"/><circle cx="2034.5" cy="149.5" r="2.5" class="cls-4"/><circle cx="1903.5" cy="185.5" r="2.5" class="cls-4"/><circle cx="1903.5" cy="45.5" r="2.5" class="cls-4"/><circle cx="1987.5" cy="21.5" r="2.5" class="cls-4"/><circle cx="1938.5" cy="-92.5" r="2.5" class="cls-4"/><circle cx="2029.5" cy="-150.5" r="2.5" class="cls-4"/><circle cx="1918.5" cy="-190.5" r="2.5" class="cls-4"/><circle cx="1853.5" cy="-60.5" r="2.5" class="cls-4"/><circle cx="2009.5" cy="-36.5" r="2.5" class="cls-4"/><circle cx="2140.5" cy="-179.5" r="2.5" class="cls-4"/><circle cx="2084.5" cy="-260.5" r="2.5" class="cls-4"/><circle cx="2211.5" cy="-70.5" r="2.5" class="cls-4"/><circle cx="2128.5" cy="26.5" r="2.5" class="cls-4"/><circle cx="2070.5" cy="63.5" r="2.5" class="cls-4"/><circle cx="2180.5" cy="149.5" r="2.5" class="cls-4"/><circle cx="2104.5" cy="198.5" r="2.5" class="cls-4"/><circle cx="2161.5" cy="272.5" r="2.5" class="cls-4"/><circle cx="2132.5" cy="364.5" r="2.5" class="cls-4"/><circle cx="2070.5" cy="473.5" r="2.5" class="cls-4"/><circle cx="1979.5" cy="510.5" r="2.5" class="cls-4"/><circle cx="1903.5" cy="450.5" r="2.5" class="cls-4"/><circle cx="1848.5" cy="420.5" r="2.5" class="cls-4"/><circle cx="1815.5" cy="384.5" r="2.5" class="cls-4"/><circle cx="1843.5" cy="198.5" r="2.5" class="cls-4"/><circle cx="1858.5" cy="109.5" r="2.5" class="cls-4"/><circle cx="1821.5" cy="42.5" r="2.5" class="cls-4"/><circle cx="1880.5" cy="-2.5" r="2.5" class="cls-4"/><circle cx="1931.5" cy="-15.5" r="2.5" class="cls-4"/><circle cx="1875.5" cy="-123.5" r="2.5" class="cls-4"/><circle cx="1835.5" cy="-174.5" r="2.5" class="cls-4"/><circle cx="1823.5" cy="-247.5" r="2.5" class="cls-4"/><circle cx="1908.5" cy="-232.5" r="2.5" class="cls-4"/><circle cx="1863.5" cy="495.5" r="2.5" class="cls-4"/><circle cx="1870.5" cy="571.5" r="2.5" class="cls-4"/><circle cx="1992.5" cy="566.5" r="2.5" class="cls-4"/><circle cx="2060.5" cy="515.5" r="2.5" class="cls-4"/><circle cx="2155.5" cy="398.5" r="2.5" class="cls-4"/><circle cx="2219.5" cy="261.5" r="2.5" class="cls-4"/><circle cx="2254.5" cy="144.5" r="2.5" class="cls-4"/></g><circle cx="569" cy="-85" r="5" class="cls-5"/><circle cx="308" cy="196" r="5" class="cls-5"/><circle cx="1613" cy="-71" r="5" class="cls-5"/><circle cx="1528" cy="269" r="5" class="cls-5"/><circle cx="1663" cy="453" r="5" class="cls-5"/><circle cx="1164" cy="496" r="5" class="cls-5"/><circle cx="751" cy="463" r="5" class="cls-5"/><circle cx="468" cy="428" r="5" class="cls-5"/></svg>