<svg xmlns="http://www.w3.org/2000/svg" width="302" height="467" preserveAspectRatio="none"><defs><style>.cls-1 { fill: #545454; }</style></defs><circle cx="25.5" cy="2.5" r="2.5" class="cls-1"/><circle cx="2.5" cy="37.5" r="2.5" class="cls-1"/><circle cx="201.5" cy="42.5" r="2.5" class="cls-1"/><circle cx="70.5" cy="78.5" r="2.5" class="cls-1"/><circle cx="10.5" cy="91.5" r="2.5" class="cls-1"/><circle cx="95.5" cy="132.5" r="2.5" class="cls-1"/><circle cx="171.5" cy="109.5" r="2.5" class="cls-1"/><circle cx="271.5" cy="91.5" r="2.5" class="cls-1"/><circle cx="95.5" cy="132.5" r="2.5" class="cls-1"/><circle cx="232.5" cy="157.5" r="2.5" class="cls-1"/><circle cx="171.5" cy="181.5" r="2.5" class="cls-1"/><circle cx="227.5" cy="235.5" r="2.5" class="cls-1"/><circle cx="299.5" cy="257.5" r="2.5" class="cls-1"/><circle cx="227.5" cy="275.5" r="2.5" class="cls-1"/><circle cx="151.5" cy="246.5" r="2.5" class="cls-1"/><circle cx="15.5" cy="313.5" r="2.5" class="cls-1"/><circle cx="70.5" cy="343.5" r="2.5" class="cls-1"/><circle cx="156.5" cy="348.5" r="2.5" class="cls-1"/><circle cx="237.5" cy="366.5" r="2.5" class="cls-1"/><circle cx="227.5" cy="408.5" r="2.5" class="cls-1"/><circle cx="37.5" cy="464.5" r="2.5" class="cls-1"/><circle cx="30.5" cy="388.5" r="2.5" class="cls-1"/><circle cx="146.5" cy="403.5" r="2.5" class="cls-1"/></svg>