<svg xmlns="http://www.w3.org/2000/svg" width="2131.3" height="916" preserveAspectRatio="none"><g fill-rule="evenodd" clip-rule="evenodd"><path fill="#D1DDE2" d="M2131 437c-6.5-21-65-378-65-378L1889 0l-136 270-366-78-156 138-215 103-435 168-149-33-298 87S39.2 773.7 24.8 791.7c-1.2 1.5-1.8 2.3-1.8 2.3L4 884l2043 32s90.5-458 84-479z" opacity=".2"/><path fill="#DFE9ED" d="M2109 770c-2.9-8.5-62-584-62-584l-163-24-258 149-128-66-184 102-241 149-236-111-179 161-197 87-164-112L17 788 0 862l2036 23s75.9-106.5 73-115z" opacity=".2"/></g></svg>