<svg xmlns="http://www.w3.org/2000/svg" width="1976" height="916" preserveAspectRatio="none"><defs><style>.cls-1 { fill: #d1dde2; } .cls-1, .cls-2 { opacity: 0.2; fill-rule: evenodd; } .cls-2 { fill: #dfe9ed; }</style></defs><path d="M-7 794s.64-.8 1.82-2.28C9.2 773.72 104 655 104 655l298-87 149 33 435-168 215-103 156-138 366 78L1859 0l177 59s58.46 357.02 65 378c6.54 20.98-84 479-84 479L-26 884l19-90z" class="cls-1"/><path d="M-13 788l280-267 164 112 197-87 179-161 236 111 241-149 184-102 128 66 258-149 163 24s59.13 575.5 62 584c2.87 8.5-73 115-73 115L-30 862l17-74z" class="cls-2"/></svg>