<svg xmlns="http://www.w3.org/2000/svg" width="1922" height="1717" preserveAspectRatio="none"><defs><style>.cls-1, .cls-2 { fill: #d1dde2; } .cls-1, .cls-3 { opacity: 0.3; } .cls-1, .cls-2, .cls-3 { fill-rule: evenodd; } .cls-2 { opacity: 0.1; } .cls-3 { fill: #dfe9ed; }</style></defs><path d="M1922 39.1V717H.47c25.62-32.08 49.5-62 49.5-62l297.96-87 148.98 33 434.94-168 214.96-103 155.98-138 365.94 78L1804.7 0 1922 39.1z" class="cls-1"/><path d="M1922 1039.1V1717H.47c25.62-32.08 49.5-62 49.5-62l297.96-87 148.98 33 434.94-168 214.96-103 155.98-138 365.94 78 135.97-270 117.3 39.1z" class="cls-2"/><path d="M1922 717H7.44l205.5-196 164 112 196.95-87 178.97-161 235.96 111 240.96-149 183.96-102 127.98 66 257.96-149 122.3 18v537z" class="cls-3"/></svg>