<svg xmlns="http://www.w3.org/2000/svg" width="434.2" height="78.3" preserveAspectRatio="none"><path fill="#1C75BC" d="M51 55.3v8.3H24.7c-.7 0-1.3.3-1.8.8l-8.6 10.1c-.8 1-.7 2.5.3 3.3.4.4 1 .6 1.5.6.7 0 1.3-.3 1.8-.8l7.9-9.2h27.6c1.3 0 2.3-1 2.3-2.3V55.3H51zm-39.7 8.6H4.6v-31h29.8v-4.7h-14v-4.5h14.1V19H18.1c-1.3 0-2.3 1-2.3 2.3v6.8H2.3c-1.3 0-2.3 1-2.3 2.3V66c0 .6.2 1.2.7 1.7.4.4 1 .7 1.7.7l9-.1c1.3 0 2.3-1.1 2.3-2.3 0-1.1-1.1-2.1-2.4-2.1z"/><path fill="#06B5C5" d="M95.3 10.9H78.9V2.3c0-1.3-1-2.3-2.3-2.3H53.4C52.1 0 51 1.1 51 2.3v8.6H34.6c-1.3 0-2.3 1-2.3 2.3v42.1c0 1.3 1 2.3 2.3 2.3h33.1l9.5 11.2c.5.5 1.1.8 1.8.8.5 0 1.1-.2 1.5-.6 1-.8 1.1-2.3.3-3.3l-10.2-12c-.4-.5-1.1-.8-1.8-.8H36.9V15.6H93v37.8h-8.4c-1.3 0-2.3 1-2.3 2.3 0 1.3 1 2.3 2.3 2.4l10.7-.1c.8.1 1.2-.2 1.7-.7.4-.4.7-1 .7-1.7V13.2c0-1.3-1.1-2.3-2.4-2.3zm-39.6 0V4.7h18.5v6.2H55.7z"/><path fill="#939598" d="M189.9 50.6c0 1.8.6 3.1 2.2 3.1 1 0 2-.4 2.9-.9l.4 4.3c-1.3.7-3.3 1.2-5.2 1.2-3 0-4.6-1.3-5.2-4-1.9 2.2-5.1 3.9-9 3.9-7.8 0-13-5.8-13-14 0-8.3 5.2-14.1 13-14.1 3.7 0 6.7 1.3 8.6 3.2v-2.7h5.4v20zm-5.4-12.7c-1.4-1.6-4.2-3.1-7.2-3.1-5.5 0-8.9 3.8-8.9 9.4 0 5.4 3.5 9.3 8.9 9.3 3 0 5.7-1.5 7.2-3.1V37.9zm34.7-1.1c-2.3-1.1-5.8-2.1-8.7-2.1-3.3 0-5.9 1.3-5.9 3.6 0 1.9 1.3 2.4 3.9 3.1l5.6 1.3c4.6 1.1 6.7 3.3 6.7 7.2 0 5-3.9 8.4-10.8 8.4-4.6 0-8.3-1.3-10.3-2.3l1.1-4.7c2.2 1.2 5.5 2.5 9 2.5 3.6 0 5.6-1.3 5.6-3.5 0-1.7-1.7-2.4-4.3-3L206 46c-4.4-1.1-6.8-3.2-6.8-7.3 0-5 4.5-8.6 11.7-8.6 3.5 0 7.7 1 9.8 2l-1.5 4.7zm33 18c-2.8 2.3-6.7 3.7-11.3 3.7-10.2 0-14.7-6.3-14.7-14.2 0-8 5.5-14.4 14.2-14.4 8.3 0 12.1 5.1 12.1 11.3 0 1.6-.3 3.8-.6 4.8h-20.2c.5 4.7 3.4 7.9 9.3 7.9 3.7 0 6.9-1.5 9-3l2.2 3.9zm-4.8-14.5c0-3.1-2.1-5.9-7-5.9-5.1 0-8 3.4-8.5 7.4h15.4c.1-.5.1-1 .1-1.5zm28.4-17.9h6.2l14 35.3h-5.5l-3.1-7.8h-17.6l-3.2 7.8h-5.5l14.7-35.3zm-4.5 23.4h14.8l-7.2-18-7.6 18zm68.5-22.1v6.9h10.6v4.3h-10.6v13.5c0 3.5 1.6 5.2 4.4 5.2 2.1 0 4.5-1 6-2.1l1.8 4.2c-2.4 1.5-5.7 2.6-9.4 2.6-5 0-8.2-3.1-8.2-8.9V34.8h-5.1v-4.3h5.1l.6-6.9h4.8zm20.8-3.9c2 0 3.3.8 3.3 3s-1.3 3.1-3.3 3.1c-2 0-3.4-.8-3.4-3.1 0-2.2 1.4-3 3.4-3zm2.7 30.8c0 1.8.5 3.1 2.2 3.1 1.1 0 2.3-.5 2.9-.9l.4 4.3c-.6.5-2.9 1.2-5.3 1.2-3.6 0-5.5-2-5.5-6.5V30.6h5.4v20zm13.1-12.8c0-1.9-.5-3.1-2.2-3.1-.9 0-1.9.4-2.9.9l-.4-4.3c1.3-.8 3.3-1.2 5.2-1.2 3.7 0 5.6 2 5.6 6.5v8.9c0 5.1 2.5 7.7 6.9 7.7s7.7-3.1 7.7-8.7c0-5.8-1.9-11-3.1-14h5.7c.8 2.2 2.8 7.8 2.8 14.3 0 8-5.2 13.3-13.1 13.3-7.9 0-12.2-4.5-12.2-11.9v-8.4zm57.4 17c-2.8 2.3-6.7 3.7-11.3 3.7-10.2 0-14.7-6.3-14.7-14.2 0-8 5.5-14.4 14.2-14.4 8.3 0 12.1 5.1 12.1 11.3 0 1.6-.3 3.8-.6 4.8h-20.2c.5 4.7 3.4 7.9 9.3 7.9 3.7 0 6.9-1.5 9-3l2.2 3.9zM429 40.3c0-3.1-2.1-5.9-7-5.9-5.1 0-8 3.4-8.5 7.4h15.4c0-.5.1-1 .1-1.5zM143.4 53.4c-7.5 0-12.6-4.8-12.6-13.1 0 0 0 0 0-.1 0-8.3 5-13.1 12.6-13.1 4.7 0 9 2.2 11.7 4.7l2.6-4.1c-3.2-3-8.6-5.7-14.5-5.7-10.4 0-18.1 6.8-18.1 18.1 0 0 0 0 0 .1 0 11.4 7.6 18.1 18.1 18.1 5.9 0 11.3-2.7 14.5-5.7l-2.6-4.1c-2.7 2.7-7.1 4.9-11.7 4.9zm171.1.3c-6.9 0-9.7-4.2-9.7-9.5s2.8-9.5 9.7-9.5c3 0 6.3 1.5 8.6 3.2l2.1-4.3c-2.9-2.2-6.9-3.7-11.3-3.7-10.2 0-14.6 6.1-14.6 14.2 0 0 0 .1 0 .1s0 .1 0 .1c0 8.2 4.4 14.2 14.6 14.2 4.4 0 8.5-1.5 11.3-3.7l-2.1-4.3c-2.3 1.7-5.6 3.2-8.6 3.2z"/></svg>