<svg xmlns="http://www.w3.org/2000/svg" width="434.2" height="78.3" preserveAspectRatio="none"><path fill="#fff" d="M95.3 10.9H78.9V2.3c0-1.3-1-2.3-2.3-2.3H53.4C52.1 0 51 1.1 51 2.3v8.6H34.6c-1.3 0-2.3 1-2.3 2.3v5.9H18.1c-1.3 0-2.3 1-2.3 2.3v6.8H2.3c-1.3 0-2.3 1-2.3 2.3v35.6c0 .6.2 1.2.7 1.7.4.4 1 .7 1.7.7l9-.1c1.3 0 2.3-1.1 2.3-2.3 0-1.3-1-2.3-2.3-2.3H4.8v-31h27.5v22.4c0 1.3 1 2.3 2.3 2.3H51v5.9H24.7c-.7 0-1.3.3-1.8.8l-8.6 10.1c-.8 1-.7 2.5.3 3.3.4.4 1 .6 1.5.6.7 0 1.3-.3 1.8-.8l7.9-9.2h27.6c1.3 0 2.3-1 2.3-2.3v-8.3h12l9.5 11.2c.5.5 1.1.8 1.8.8.5 0 1.1-.2 1.5-.6 1-.8 1.1-2.3.3-3.3l-10.2-12c-.4-.5-1.1-.8-1.8-.8H36.9V15.6H93v37.8h-8.4c-1.3 0-2.3 1-2.3 2.3 0 1.3 1 2.3 2.3 2.4l10.7-.1c.8.1 1.2-.2 1.7-.7.4-.4.7-1 .7-1.7V13.2c0-1.3-1.1-2.3-2.4-2.3zM20.4 28.3v-4.5h11.8v4.5H20.4zm53.8-17.4H55.7V4.7h18.5v6.2zm117.9 42.7c-1.6 0-2.2-1.3-2.2-3.1v-20h-5.4v2.7c-1.9-1.9-4.9-3.2-8.6-3.2-7.8 0-13 5.9-13 14.1s5.2 14 13 14c3.8 0 7.1-1.8 9-3.9.6 2.6 2.3 4 5.2 4 2 0 4-.6 5.2-1.2l-.4-4.3c-.9.6-1.8.9-2.8.9zm-7.6-3.1c-1.6 1.6-4.2 3.1-7.2 3.1-5.4 0-8.9-3.8-8.9-9.3 0-5.6 3.5-9.4 8.9-9.4 3 0 5.8 1.5 7.2 3.1v12.5zm29.6-7.8l-5.6-1.3c-2.6-.6-3.9-1.1-3.9-3.1 0-2.3 2.6-3.6 5.9-3.6 3 0 6.4 1 8.7 2.1l1.5-4.7c-2-1-6.3-2-9.8-2-7.2 0-11.7 3.6-11.7 8.6 0 4.1 2.3 6.2 6.8 7.3l5.2 1.2c2.5.6 4.3 1.3 4.3 3 0 2.2-2 3.5-5.6 3.5-3.5 0-6.8-1.3-9-2.5l-1.1 4.7c2.1 1 5.7 2.3 10.3 2.3 6.9 0 10.8-3.4 10.8-8.4 0-3.8-2.2-6-6.8-7.1zm38.5-1.5c0-6.2-3.8-11.3-12.1-11.3-8.7 0-14.2 6.4-14.2 14.4 0 7.9 4.5 14.2 14.7 14.2 4.6 0 8.5-1.4 11.3-3.7l-2.1-3.9c-2.1 1.6-5.2 3-9 3-5.9 0-8.8-3.2-9.3-7.9H252c.3-1 .6-3.2.6-4.8zm-5.3.5h-15.4c.4-3.9 3.4-7.4 8.5-7.4 4.9 0 7 2.8 7 5.9 0 .6 0 1.1-.1 1.5zm28.5-19.3l-14.6 35.3h5.5l3.2-7.8h17.6l3.1 7.8h5.5l-14-35.3h-6.3zm-4.5 23.4l7.6-18 7.2 18h-14.8zm72.9 7.7c-2.8 0-4.4-1.7-4.4-5.2V34.8h10.6v-4.3h-10.6v-6.9H335l-.6 6.9h-5.1v4.3h5.1v14.5c0 5.8 3.1 8.9 8.2 8.9 3.7 0 7-1.1 9.4-2.6l-1.8-4.2c-1.5 1.1-3.9 2.1-6 2.1zm21.2.1c-1.7 0-2.2-1.3-2.2-3.1v-20h-5.4v21.2c0 4.5 1.9 6.5 5.5 6.5 2.4 0 4.7-.8 5.3-1.2l-.4-4.3c-.5.4-1.7.9-2.8.9zm-4.8-27.7c2 0 3.3-.8 3.3-3.1 0-2.2-1.3-3-3.3-3-2 0-3.4.8-3.4 3 0 2.3 1.4 3.1 3.4 3.1zm32.7 4.7c1.2 3 3.1 8.2 3.1 14 0 5.7-3.3 8.7-7.7 8.7s-6.9-2.6-6.9-7.7v-8.9c0-4.5-1.9-6.5-5.6-6.5-2 0-3.9.5-5.2 1.2l.4 4.3c1-.6 2-.9 2.9-.9 1.7 0 2.2 1.2 2.2 3.1v8.5c0 7.4 4.4 11.9 12.2 11.9 7.9 0 13.1-5.3 13.1-13.3 0-6.5-2-12.2-2.8-14.3h-5.7zm29.4 23.3c-5.9 0-8.8-3.2-9.3-7.9h20.2c.3-1 .6-3.2.6-4.8 0-6.2-3.8-11.3-12.1-11.3-8.7 0-14.2 6.4-14.2 14.4 0 7.9 4.5 14.2 14.7 14.2 4.6 0 8.5-1.4 11.3-3.7l-2.1-3.9c-2.2 1.5-5.4 3-9.1 3zm-.7-19.5c4.9 0 7 2.8 7 5.9 0 .5-.1 1-.1 1.5h-15.4c.4-4 3.4-7.4 8.5-7.4zm-291.2 5.8c0-8.3 5-13.1 12.6-13.1 4.7 0 9 2.2 11.7 4.7l2.6-4.1c-3.2-3-8.6-5.7-14.5-5.7-10.4 0-18.1 6.8-18.1 18.1 0 0 0 0 0 .1 0 11.4 7.6 18.1 18.1 18.1 5.9 0 11.3-2.7 14.5-5.7l-2.6-4.1c-2.7 2.5-7.1 4.7-11.7 4.7-7.6.2-12.6-4.6-12.6-13 0 .1 0 .1 0 0 0 .1 0 0 0 0zm183.7-5.5c3 0 6.3 1.5 8.6 3.2l2.1-4.3c-2.9-2.2-6.9-3.7-11.3-3.7-10.2 0-14.6 6.1-14.6 14.2 0 0 0 .1 0 .1s0 .1 0 .1c0 8.2 4.4 14.2 14.6 14.2 4.4 0 8.5-1.5 11.3-3.7l-2.1-4.3c-2.2 1.7-5.6 3.2-8.6 3.2-6.9 0-9.7-4.2-9.7-9.5s2.8-9.5 9.7-9.5z"/></svg>