<svg xmlns="http://www.w3.org/2000/svg" width="82" height="20" preserveAspectRatio="none"><path fill="#fff" fill-rule="evenodd" d="M48.03 0c-1.1 0-2 .9-2 2v16c0 1.1.9 2 2 2s2-.9 2-2V2c0-1.1-.9-2-2-2zm8.03 0c-1.1 0-2 .9-2 2v16c0 1.1.9 2 2 2s2-.9 2-2V2c0-1.1-.9-2-2-2zm7.96 0c-1.1 0-2 .9-2 2v16c0 1.1.9 2 2 2s2-.9 2-2V2c0-1.1-.9-2-2-2zm8.1 0c-1.1 0-2 .9-2 2v16c0 1.1.9 2 2 2s2-.9 2-2V2c0-1.1-.9-2-2-2zM80 0c-1.1 0-2 .9-2 2v16c0 1.1.9 2 2 2s2-.9 2-2V2c0-1.1-.9-2-2-2z" clip-rule="evenodd"/><path fill="#13B0C5" fill-rule="evenodd" d="M2 0C.9 0 0 .9 0 2v16c0 1.1.9 2 2 2s2-.9 2-2V2c0-1.1-.9-2-2-2zm8.03 0c-1.1 0-2 .9-2 2v16c0 1.1.9 2 2 2s2-.9 2-2V2c0-1.1-.9-2-2-2zm7.95 0c-1.1 0-2 .9-2 2v16c0 1.1.9 2 2 2s2-.9 2-2V2c0-1.1-.9-2-2-2zm8.1 0c-1.1 0-2 .9-2 2v16c0 1.1.9 2 2 2s2-.9 2-2V2c0-1.1-.9-2-2-2zM34 0c-1.1 0-2 .9-2 2v16c0 1.1.9 2 2 2s2-.9 2-2V2c0-1.1-.9-2-2-2z" clip-rule="evenodd"/></svg>